<svg width="510" height="77" viewBox="0 0 510 77" fill="none" xmlns="http://www.w3.org/2000/svg">
<path d="M15.596 26.472V30H1.82V26.136C1.82 25.1093 1.96933 24.232 2.268 23.504C2.58533 22.776 3.024 22.16 3.584 21.656C4.16267 21.152 4.85333 20.7413 5.656 20.424C6.45867 20.088 7.364 19.808 8.372 19.584C9.11867 19.416 9.72533 19.2293 10.192 19.024C10.6773 18.8 11.06 18.5573 11.34 18.296C11.62 18.016 11.8067 17.7173 11.9 17.4C12.012 17.064 12.068 16.6907 12.068 16.28C12.068 15.496 11.7787 14.8427 11.2 14.32C10.64 13.7973 9.856 13.536 8.848 13.536C7.784 13.536 6.93467 13.8627 6.3 14.516C5.66533 15.1507 5.348 16.0373 5.348 17.176V18.408H1.652V16.84C1.652 15.9253 1.81067 15.0573 2.128 14.236C2.464 13.396 2.93067 12.668 3.528 12.052C4.144 11.4173 4.89067 10.9227 5.768 10.568C6.64533 10.1947 7.63467 10.008 8.736 10.008C9.912 10.008 10.9387 10.1853 11.816 10.54C12.6933 10.876 13.4213 11.324 14 11.884C14.5973 12.444 15.036 13.0973 15.316 13.844C15.6147 14.572 15.764 15.328 15.764 16.112V16.448C15.764 18.0907 15.2973 19.4533 14.364 20.536C13.4493 21.6187 11.9467 22.4027 9.856 22.888C8.97867 23.0933 8.25067 23.308 7.672 23.532C7.112 23.7373 6.67333 23.9707 6.356 24.232C6.03867 24.4933 5.81467 24.7827 5.684 25.1C5.572 25.3987 5.516 25.744 5.516 26.136V26.472H15.596ZM23.6405 10.4H30.6405V22.776H33.4965V26.304H30.6405V30H26.9445V26.304H18.2085V21.208L23.6405 10.4ZM21.4005 22.272V22.776H26.9445V12.248H26.4405L21.4005 22.272ZM40.5051 20.2C40.5051 19.5653 40.7384 19.0147 41.2051 18.548C41.6717 18.0813 42.2224 17.848 42.8571 17.848C43.4917 17.848 44.0424 18.0813 44.5091 18.548C44.9757 19.0147 45.2091 19.5653 45.2091 20.2C45.2091 20.8347 44.9757 21.3853 44.5091 21.852C44.0424 22.3187 43.4917 22.552 42.8571 22.552C42.2224 22.552 41.6717 22.3187 41.2051 21.852C40.7384 21.3853 40.5051 20.8347 40.5051 20.2ZM35.6331 18.016C35.6331 15.4773 36.2677 13.508 37.5371 12.108C38.8251 10.708 40.5984 10.008 42.8571 10.008C45.1157 10.008 46.8797 10.708 48.1491 12.108C49.4371 13.508 50.0811 15.4773 50.0811 18.016V22.384C50.0811 24.9973 49.4371 26.9853 48.1491 28.348C46.8797 29.7107 45.1157 30.392 42.8571 30.392C40.5984 30.392 38.8251 29.7107 37.5371 28.348C36.2677 26.9853 35.6331 24.9973 35.6331 22.384V18.016ZM42.8571 27.032C43.5291 27.032 44.0891 26.9293 44.5371 26.724C44.9851 26.5 45.3491 26.192 45.6291 25.8C45.9091 25.408 46.1051 24.9413 46.2171 24.4C46.3291 23.8587 46.3851 23.2613 46.3851 22.608V17.792C46.3851 17.176 46.3197 16.5973 46.1891 16.056C46.0584 15.5147 45.8531 15.048 45.5731 14.656C45.2931 14.264 44.9291 13.956 44.4811 13.732C44.0331 13.4893 43.4917 13.368 42.8571 13.368C42.2224 13.368 41.6811 13.4893 41.2331 13.732C40.7851 13.956 40.4211 14.264 40.1411 14.656C39.8611 15.048 39.6557 15.5147 39.5251 16.056C39.3944 16.5973 39.3291 17.176 39.3291 17.792V22.608C39.3291 23.2613 39.3851 23.8587 39.4971 24.4C39.6091 24.9413 39.8051 25.408 40.0851 25.8C40.3651 26.192 40.7291 26.5 41.1771 26.724C41.6251 26.9293 42.1851 27.032 42.8571 27.032ZM58.2656 21.208H58.9376L62.6336 16.112H66.4976V16.28L62.0176 22.636V23.14L66.9456 29.832V30H62.9136L58.9376 24.568H58.2656V30H54.7376V10.4H58.2656V21.208ZM71.2941 18.604H75.5501V14.348H78.7421V18.604H82.9981V21.796H78.7421V26.052H75.5501V21.796H71.2941V18.604Z" fill="white"/>
<path d="M13.7223 50.1666H0.76768V51.9658H6.28538V66H8.20458V51.9658H13.7223V50.1666ZM19.124 53.7651C15.5015 53.7651 13.3184 56.1161 13.3184 60.0025C13.3184 63.8889 15.5015 66.2399 19.124 66.2399C22.7465 66.2399 24.9295 63.8889 24.9295 60.0025C24.9295 56.1161 22.7465 53.7651 19.124 53.7651ZM19.124 55.4204C21.547 55.4204 23.0103 57.1477 23.0103 60.0025C23.0103 62.8573 21.547 64.5846 19.124 64.5846C16.701 64.5846 15.2376 62.8573 15.2376 60.0025C15.2376 57.1477 16.701 55.4204 19.124 55.4204ZM35.1159 63.553C34.5642 64.1048 33.9404 64.4406 33.0768 64.4406C32.0212 64.4406 31.2775 63.8649 31.2775 62.6894V55.6603H35.7157V54.005H31.2775V50.5984L29.3583 51.1262V54.005H26.9593V55.6603H29.3583V63.0252C29.3823 65.3523 30.9177 66.2399 32.6929 66.2399C34.0124 66.2399 35.044 65.8321 35.7876 65.1604L35.1159 63.553ZM48.3331 64.6086C47.6614 64.6086 47.4215 64.3207 47.4215 63.7449V57.8434C47.4215 55.0606 45.4303 53.7651 42.6955 53.7651C40.3684 53.7651 38.4732 54.9166 37.8495 56.6919L39.2649 57.7234C39.9126 56.2121 41.1121 55.4444 42.6955 55.4444C44.4947 55.4444 45.5023 56.5 45.5023 58.0833V58.755L42.3116 59.2828C39.2169 59.8106 37.6336 61.226 37.6336 63.0252C37.6336 65.1843 39.4568 66.2399 41.7119 66.2399C43.2472 66.2399 44.8066 65.5922 45.5743 64.4646C45.7902 65.8081 46.5578 66.2399 47.7334 66.2399C48.3331 66.2399 48.8369 66.12 49.1728 66L49.2927 64.4886C49.0048 64.5606 48.645 64.6086 48.3331 64.6086ZM41.8078 64.5606C40.4404 64.5606 39.6247 64.0328 39.6247 63.0252C39.6247 61.8977 40.7043 61.202 42.8154 60.8182L45.5023 60.3144V61.9697C45.5023 63.553 43.727 64.5606 41.8078 64.5606ZM53.9085 48.4873H51.9893V63.0252C51.9893 65.2083 52.9249 66.2399 54.8681 66.2399C55.4919 66.2399 56.1396 66.12 56.6434 65.904L56.9553 64.0568C56.2595 64.3207 55.8517 64.3927 55.204 64.3927C54.2204 64.3927 53.9085 64.0088 53.9085 62.7853V48.4873ZM72.1968 49.9267C68.5263 49.9267 66.2952 52.0858 66.2952 54.6287C66.2952 57.0517 67.8306 58.3472 72.1008 59.0909C75.4354 59.6666 76.467 60.4583 76.467 61.8257C76.467 63.529 74.8357 64.4406 72.3887 64.4406C69.7978 64.4406 68.1665 63.2891 67.3268 61.4659L65.6715 62.8093C66.775 64.7765 68.9821 66.2399 72.3407 66.2399C76.0352 66.2399 78.4582 64.4406 78.4582 61.7298C78.4582 59.2828 76.9468 57.9394 72.7006 57.2197C69.366 56.6439 68.3104 55.9002 68.3104 54.4128C68.3104 52.9015 69.7018 51.7259 72.2208 51.7259C74.5478 51.7259 75.6993 52.5416 76.6589 54.6287L78.3142 53.2853C77.0907 51.0782 75.0996 49.9267 72.1968 49.9267ZM91.7213 64.6086C91.0495 64.6086 90.8096 64.3207 90.8096 63.7449V57.8434C90.8096 55.0606 88.8185 53.7651 86.0836 53.7651C83.7566 53.7651 81.8614 54.9166 81.2376 56.6919L82.653 57.7234C83.3008 56.2121 84.5003 55.4444 86.0836 55.4444C87.8829 55.4444 88.8904 56.5 88.8904 58.0833V58.755L85.6998 59.2828C82.6051 59.8106 81.0217 61.226 81.0217 63.0252C81.0217 65.1843 82.845 66.2399 85.1 66.2399C86.6354 66.2399 88.1947 65.5922 88.9624 64.4646C89.1783 65.8081 89.946 66.2399 91.1215 66.2399C91.7213 66.2399 92.2251 66.12 92.5609 66L92.6809 64.4886C92.393 64.5606 92.0331 64.6086 91.7213 64.6086ZM85.196 64.5606C83.8286 64.5606 83.0129 64.0328 83.0129 63.0252C83.0129 61.8977 84.0924 61.202 86.2036 60.8182L88.8904 60.3144V61.9697C88.8904 63.553 87.1152 64.5606 85.196 64.5606ZM97.2967 48.4873H95.3775V63.0252C95.3775 65.2083 96.3131 66.2399 98.2563 66.2399C98.88 66.2399 99.5278 66.12 100.032 65.904L100.343 64.0568C99.6477 64.3207 99.2399 64.3927 98.5922 64.3927C97.6086 64.3927 97.2967 64.0088 97.2967 62.7853V48.4873ZM113.098 59.3788C113.098 56.284 111.203 53.7651 107.724 53.7651C104.102 53.7651 102.063 56.1161 102.063 60.0025C102.063 63.8889 104.246 66.2399 107.868 66.2399C110.459 66.2399 111.947 65.2563 112.858 63.625L111.251 62.7853C110.819 63.9369 109.619 64.5606 107.868 64.5606C105.661 64.5606 104.198 63.1452 103.958 60.7222H113.002C113.05 60.3863 113.098 59.9305 113.098 59.3788ZM107.724 55.4444C109.763 55.4444 110.987 56.8118 111.251 59.0189H103.982C104.27 56.7638 105.589 55.4444 107.724 55.4444Z" fill="white"/>
<path d="M187.392 26.472V12.248H186.888L185.04 18.968H181.512V18.632L183.864 10.4H191.088V26.472H195.96V30H181.848V26.472H187.392ZM203.361 20.2C203.361 19.5653 203.594 19.0147 204.061 18.548C204.527 18.0813 205.078 17.848 205.713 17.848C206.347 17.848 206.898 18.0813 207.365 18.548C207.831 19.0147 208.065 19.5653 208.065 20.2C208.065 20.8347 207.831 21.3853 207.365 21.852C206.898 22.3187 206.347 22.552 205.713 22.552C205.078 22.552 204.527 22.3187 204.061 21.852C203.594 21.3853 203.361 20.8347 203.361 20.2ZM198.489 18.016C198.489 15.4773 199.123 13.508 200.393 12.108C201.681 10.708 203.454 10.008 205.713 10.008C207.971 10.008 209.735 10.708 211.005 12.108C212.293 13.508 212.937 15.4773 212.937 18.016V22.384C212.937 24.9973 212.293 26.9853 211.005 28.348C209.735 29.7107 207.971 30.392 205.713 30.392C203.454 30.392 201.681 29.7107 200.393 28.348C199.123 26.9853 198.489 24.9973 198.489 22.384V18.016ZM205.713 27.032C206.385 27.032 206.945 26.9293 207.393 26.724C207.841 26.5 208.205 26.192 208.485 25.8C208.765 25.408 208.961 24.9413 209.073 24.4C209.185 23.8587 209.241 23.2613 209.241 22.608V17.792C209.241 17.176 209.175 16.5973 209.045 16.056C208.914 15.5147 208.709 15.048 208.429 14.656C208.149 14.264 207.785 13.956 207.337 13.732C206.889 13.4893 206.347 13.368 205.713 13.368C205.078 13.368 204.537 13.4893 204.089 13.732C203.641 13.956 203.277 14.264 202.997 14.656C202.717 15.048 202.511 15.5147 202.381 16.056C202.25 16.5973 202.185 17.176 202.185 17.792V22.608C202.185 23.2613 202.241 23.8587 202.353 24.4C202.465 24.9413 202.661 25.408 202.941 25.8C203.221 26.192 203.585 26.5 204.033 26.724C204.481 26.9293 205.041 27.032 205.713 27.032ZM220.505 20.2C220.505 19.5653 220.738 19.0147 221.205 18.548C221.672 18.0813 222.222 17.848 222.857 17.848C223.492 17.848 224.042 18.0813 224.509 18.548C224.976 19.0147 225.209 19.5653 225.209 20.2C225.209 20.8347 224.976 21.3853 224.509 21.852C224.042 22.3187 223.492 22.552 222.857 22.552C222.222 22.552 221.672 22.3187 221.205 21.852C220.738 21.3853 220.505 20.8347 220.505 20.2ZM215.633 18.016C215.633 15.4773 216.268 13.508 217.537 12.108C218.825 10.708 220.598 10.008 222.857 10.008C225.116 10.008 226.88 10.708 228.149 12.108C229.437 13.508 230.081 15.4773 230.081 18.016V22.384C230.081 24.9973 229.437 26.9853 228.149 28.348C226.88 29.7107 225.116 30.392 222.857 30.392C220.598 30.392 218.825 29.7107 217.537 28.348C216.268 26.9853 215.633 24.9973 215.633 22.384V18.016ZM222.857 27.032C223.529 27.032 224.089 26.9293 224.537 26.724C224.985 26.5 225.349 26.192 225.629 25.8C225.909 25.408 226.105 24.9413 226.217 24.4C226.329 23.8587 226.385 23.2613 226.385 22.608V17.792C226.385 17.176 226.32 16.5973 226.189 16.056C226.058 15.5147 225.853 15.048 225.573 14.656C225.293 14.264 224.929 13.956 224.481 13.732C224.033 13.4893 223.492 13.368 222.857 13.368C222.222 13.368 221.681 13.4893 221.233 13.732C220.785 13.956 220.421 14.264 220.141 14.656C219.861 15.048 219.656 15.5147 219.525 16.056C219.394 16.5973 219.329 17.176 219.329 17.792V22.608C219.329 23.2613 219.385 23.8587 219.497 24.4C219.609 24.9413 219.805 25.408 220.085 25.8C220.365 26.192 220.729 26.5 221.177 26.724C221.625 26.9293 222.185 27.032 222.857 27.032ZM238.266 21.208H238.938L242.634 16.112H246.498V16.28L242.018 22.636V23.14L246.946 29.832V30H242.914L238.938 24.568H238.266V30H234.738V10.4H238.266V21.208ZM251.294 18.604H255.55V14.348H258.742V18.604H262.998V21.796H258.742V26.052H255.55V21.796H251.294V18.604Z" fill="white"/>
<path d="M193.171 66H195.21L189.068 50.1666H186.789L180.624 66H182.639L184.318 61.6098H191.491L193.171 66ZM185.014 59.8106L187.173 54.1249L187.869 51.9898H187.917L188.66 54.1969L190.796 59.8106H185.014ZM206.326 54.005V60.5303C206.326 63.3611 204.527 64.5606 202.487 64.5606C200.76 64.5606 199.657 63.8169 199.657 61.3459V54.005H197.737V61.8497C197.737 65.0164 199.777 66.2399 202.152 66.2399C204.071 66.2399 205.606 65.6162 206.446 64.1768L206.566 66H208.245V54.005H206.326ZM217.772 53.7651C214.15 53.7651 211.967 56.1161 211.967 60.0025C211.967 63.8889 214.15 66.2399 217.772 66.2399C220.315 66.2399 222.043 64.9204 222.858 62.7134L221.083 62.0896C220.723 63.673 219.596 64.5606 217.724 64.5606C215.325 64.5606 213.886 62.8573 213.886 60.0025C213.886 57.1477 215.325 55.4444 217.724 55.4444C219.38 55.4444 220.411 56.284 220.915 57.8194L222.738 56.9558C221.851 54.9886 220.243 53.7651 217.772 53.7651ZM232.921 63.553C232.369 64.1048 231.745 64.4406 230.882 64.4406C229.826 64.4406 229.083 63.8649 229.083 62.6894V55.6603H233.521V54.005H229.083V50.5984L227.163 51.1262V54.005H224.764V55.6603H227.163V63.0252C227.187 65.3523 228.723 66.2399 230.498 66.2399C231.817 66.2399 232.849 65.8321 233.593 65.1604L232.921 63.553ZM237.262 51.702C238.126 51.702 238.701 51.1262 238.701 50.2626C238.701 49.3989 238.126 48.8232 237.262 48.8232C236.398 48.8232 235.822 49.3989 235.822 50.2626C235.822 51.1262 236.398 51.702 237.262 51.702ZM238.221 54.005H236.302V66H238.221V54.005ZM247.737 53.7651C244.114 53.7651 241.931 56.1161 241.931 60.0025C241.931 63.8889 244.114 66.2399 247.737 66.2399C251.359 66.2399 253.542 63.8889 253.542 60.0025C253.542 56.1161 251.359 53.7651 247.737 53.7651ZM247.737 55.4204C250.16 55.4204 251.623 57.1477 251.623 60.0025C251.623 62.8573 250.16 64.5846 247.737 64.5846C245.314 64.5846 243.85 62.8573 243.85 60.0025C243.85 57.1477 245.314 55.4204 247.737 55.4204ZM263.1 53.7651C261.444 53.7651 259.909 54.3648 259.069 55.8762L258.949 54.005H257.27V66H259.189V59.6187C259.189 56.5479 261.156 55.4444 262.908 55.4444C264.563 55.4444 265.859 56.332 265.859 58.9949V66H267.778V58.3232C267.778 55.2285 265.667 53.7651 263.1 53.7651ZM276.202 66.2399C279.272 66.2399 281.216 64.7765 281.216 62.6894C281.216 60.7222 280.016 59.7146 276.657 59.1628C274.21 58.755 273.419 58.2272 273.419 57.1957C273.419 56.308 274.618 55.4444 276.226 55.4444C277.737 55.4444 278.816 56.0202 279.344 57.6035L280.976 56.6439C280.304 54.6767 278.793 53.7651 276.226 53.7651C273.299 53.7651 271.5 55.4204 271.5 57.3636C271.5 59.3788 272.747 60.3144 276.154 60.9381C278.553 61.3699 279.296 61.8977 279.296 62.7853C279.296 63.7689 278.361 64.5606 276.394 64.5606C274.666 64.5606 273.179 63.9129 272.603 62.4495L271.044 63.529C271.955 65.3763 273.995 66.2399 276.202 66.2399Z" fill="white"/>
<path d="M375.596 26.472V30H361.82V26.136C361.82 25.1093 361.969 24.232 362.268 23.504C362.585 22.776 363.024 22.16 363.584 21.656C364.163 21.152 364.853 20.7413 365.656 20.424C366.459 20.088 367.364 19.808 368.372 19.584C369.119 19.416 369.725 19.2293 370.192 19.024C370.677 18.8 371.06 18.5573 371.34 18.296C371.62 18.016 371.807 17.7173 371.9 17.4C372.012 17.064 372.068 16.6907 372.068 16.28C372.068 15.496 371.779 14.8427 371.2 14.32C370.64 13.7973 369.856 13.536 368.848 13.536C367.784 13.536 366.935 13.8627 366.3 14.516C365.665 15.1507 365.348 16.0373 365.348 17.176V18.408H361.652V16.84C361.652 15.9253 361.811 15.0573 362.128 14.236C362.464 13.396 362.931 12.668 363.528 12.052C364.144 11.4173 364.891 10.9227 365.768 10.568C366.645 10.1947 367.635 10.008 368.736 10.008C369.912 10.008 370.939 10.1853 371.816 10.54C372.693 10.876 373.421 11.324 374 11.884C374.597 12.444 375.036 13.0973 375.316 13.844C375.615 14.572 375.764 15.328 375.764 16.112V16.448C375.764 18.0907 375.297 19.4533 374.364 20.536C373.449 21.6187 371.947 22.4027 369.856 22.888C368.979 23.0933 368.251 23.308 367.672 23.532C367.112 23.7373 366.673 23.9707 366.356 24.232C366.039 24.4933 365.815 24.7827 365.684 25.1C365.572 25.3987 365.516 25.744 365.516 26.136V26.472H375.596ZM383.641 10.4H390.641V22.776H393.497V26.304H390.641V30H386.945V26.304H378.209V21.208L383.641 10.4ZM381.401 22.272V22.776H386.945V12.248H386.441L381.401 22.272ZM400.505 20.2C400.505 19.5653 400.738 19.0147 401.205 18.548C401.672 18.0813 402.222 17.848 402.857 17.848C403.492 17.848 404.042 18.0813 404.509 18.548C404.976 19.0147 405.209 19.5653 405.209 20.2C405.209 20.8347 404.976 21.3853 404.509 21.852C404.042 22.3187 403.492 22.552 402.857 22.552C402.222 22.552 401.672 22.3187 401.205 21.852C400.738 21.3853 400.505 20.8347 400.505 20.2ZM395.633 18.016C395.633 15.4773 396.268 13.508 397.537 12.108C398.825 10.708 400.598 10.008 402.857 10.008C405.116 10.008 406.88 10.708 408.149 12.108C409.437 13.508 410.081 15.4773 410.081 18.016V22.384C410.081 24.9973 409.437 26.9853 408.149 28.348C406.88 29.7107 405.116 30.392 402.857 30.392C400.598 30.392 398.825 29.7107 397.537 28.348C396.268 26.9853 395.633 24.9973 395.633 22.384V18.016ZM402.857 27.032C403.529 27.032 404.089 26.9293 404.537 26.724C404.985 26.5 405.349 26.192 405.629 25.8C405.909 25.408 406.105 24.9413 406.217 24.4C406.329 23.8587 406.385 23.2613 406.385 22.608V17.792C406.385 17.176 406.32 16.5973 406.189 16.056C406.058 15.5147 405.853 15.048 405.573 14.656C405.293 14.264 404.929 13.956 404.481 13.732C404.033 13.4893 403.492 13.368 402.857 13.368C402.222 13.368 401.681 13.4893 401.233 13.732C400.785 13.956 400.421 14.264 400.141 14.656C399.861 15.048 399.656 15.5147 399.525 16.056C399.394 16.5973 399.329 17.176 399.329 17.792V22.608C399.329 23.2613 399.385 23.8587 399.497 24.4C399.609 24.9413 399.805 25.408 400.085 25.8C400.365 26.192 400.729 26.5 401.177 26.724C401.625 26.9293 402.185 27.032 402.857 27.032ZM418.266 21.208H418.938L422.634 16.112H426.498V16.28L422.018 22.636V23.14L426.946 29.832V30H422.914L418.938 24.568H418.266V30H414.738V10.4H418.266V21.208ZM431.294 18.604H435.55V14.348H438.742V18.604H442.998V21.796H438.742V26.052H435.55V21.796H431.294V18.604Z" fill="white"/>
<path d="M373.171 66H375.21L369.068 50.1666H366.789L360.624 66H362.639L364.318 61.6098H371.491L373.171 66ZM365.014 59.8106L367.173 54.1249L367.869 51.9898H367.917L368.66 54.1969L370.796 59.8106H365.014ZM383.73 53.7651C381.859 53.7651 380.563 54.5088 379.891 55.9722L379.628 54.005H378.068V66H379.987V59.5227C379.987 56.8358 381.715 55.5643 383.154 55.5643C383.778 55.5643 384.306 55.6843 384.665 55.8762L385.049 54.005C384.689 53.8131 384.138 53.7651 383.73 53.7651ZM393.804 63.553C393.252 64.1048 392.628 64.4406 391.765 64.4406C390.709 64.4406 389.966 63.8649 389.966 62.6894V55.6603H394.404V54.005H389.966V50.5984L388.046 51.1262V54.005H385.647V55.6603H388.046V63.0252C388.07 65.3523 389.606 66.2399 391.381 66.2399C392.7 66.2399 393.732 65.8321 394.476 65.1604L393.804 63.553ZM398.145 51.702C399.008 51.702 399.584 51.1262 399.584 50.2626C399.584 49.3989 399.008 48.8232 398.145 48.8232C397.281 48.8232 396.705 49.3989 396.705 50.2626C396.705 51.1262 397.281 51.702 398.145 51.702ZM399.104 54.005H397.185V66H399.104V54.005ZM407.636 66.2399C410.707 66.2399 412.65 64.7765 412.65 62.6894C412.65 60.7222 411.45 59.7146 408.092 59.1628C405.645 58.755 404.853 58.2272 404.853 57.1957C404.853 56.308 406.053 55.4444 407.66 55.4444C409.171 55.4444 410.251 56.0202 410.779 57.6035L412.41 56.6439C411.738 54.6767 410.227 53.7651 407.66 53.7651C404.733 53.7651 402.934 55.4204 402.934 57.3636C402.934 59.3788 404.181 60.3144 407.588 60.9381C409.987 61.3699 410.731 61.8977 410.731 62.7853C410.731 63.7689 409.795 64.5606 407.828 64.5606C406.101 64.5606 404.613 63.9129 404.037 62.4495L402.478 63.529C403.39 65.3763 405.429 66.2399 407.636 66.2399ZM422.878 63.553C422.326 64.1048 421.702 64.4406 420.839 64.4406C419.783 64.4406 419.039 63.8649 419.039 62.6894V55.6603H423.478V54.005H419.039V50.5984L417.12 51.1262V54.005H414.721V55.6603H417.12V63.0252C417.144 65.3523 418.68 66.2399 420.455 66.2399C421.774 66.2399 422.806 65.8321 423.55 65.1604L422.878 63.553ZM430.337 66.2399C433.408 66.2399 435.351 64.7765 435.351 62.6894C435.351 60.7222 434.152 59.7146 430.793 59.1628C428.346 58.755 427.555 58.2272 427.555 57.1957C427.555 56.308 428.754 55.4444 430.361 55.4444C431.873 55.4444 432.952 56.0202 433.48 57.6035L435.111 56.6439C434.44 54.6767 432.928 53.7651 430.361 53.7651C427.435 53.7651 425.635 55.4204 425.635 57.3636C425.635 59.3788 426.883 60.3144 430.289 60.9381C432.688 61.3699 433.432 61.8977 433.432 62.7853C433.432 63.7689 432.496 64.5606 430.529 64.5606C428.802 64.5606 427.315 63.9129 426.739 62.4495L425.18 63.529C426.091 65.3763 428.13 66.2399 430.337 66.2399Z" fill="white"/>
</svg>
