<svg width="330" height="439" viewBox="0 0 330 439" fill="none" xmlns="http://www.w3.org/2000/svg">
<rect width="330" height="439" rx="20" fill="#3B3B3B"/>
<g clip-path="url(#clip0_39944_5826)">
<path d="M165 239.167C222.53 239.167 269.166 192.531 269.166 135.001C269.166 77.471 222.53 30.834 165 30.834C107.47 30.834 60.833 77.471 60.833 135.001C60.833 192.531 107.47 239.167 165 239.167Z" fill="url(#paint0_linear_39944_5826)"/>
<g filter="url(#filter0_f_39944_5826)">
<path d="M165 211.086C207.022 211.086 241.087 177.021 241.087 134.999C241.087 92.9774 207.022 58.9121 165 58.9121C122.978 58.9121 88.9131 92.9774 88.9131 134.999C88.9131 177.021 122.978 211.086 165 211.086Z" fill="url(#paint1_linear_39944_5826)"/>
</g>
<path fill-rule="evenodd" clip-rule="evenodd" d="M157.84 50.3808C159.583 50.3808 160.996 48.968 160.996 47.2252C160.996 45.4826 159.583 44.0698 157.84 44.0698C156.097 44.0698 154.685 45.4826 154.685 47.2252C154.685 48.968 156.097 50.3808 157.84 50.3808ZM157.84 52.7474C160.89 52.7474 163.363 50.275 163.363 47.2252C163.363 44.1755 160.89 41.7031 157.84 41.7031C154.79 41.7031 152.318 44.1755 152.318 47.2252C152.318 50.275 154.79 52.7474 157.84 52.7474Z" fill="white"/>
<path fill-rule="evenodd" clip-rule="evenodd" d="M82.6598 195.308C84.4026 195.308 85.8153 193.895 85.8153 192.153C85.8153 190.41 84.4026 188.998 82.6598 188.998C80.9171 188.998 79.5044 190.41 79.5044 192.153C79.5044 193.895 80.9171 195.308 82.6598 195.308ZM82.6598 197.675C85.7096 197.675 88.182 195.202 88.182 192.153C88.182 189.103 85.7096 186.631 82.6598 186.631C79.6101 186.631 77.1377 189.103 77.1377 192.153C77.1377 195.202 79.6101 197.675 82.6598 197.675Z" fill="white"/>
<path fill-rule="evenodd" clip-rule="evenodd" d="M255.668 188.062C257.411 188.062 258.824 186.649 258.824 184.906C258.824 183.164 257.411 181.752 255.668 181.752C253.925 181.752 252.513 183.164 252.513 184.906C252.513 186.649 253.925 188.062 255.668 188.062ZM255.668 190.429C258.718 190.429 261.191 187.956 261.191 184.906C261.191 181.857 258.718 179.385 255.668 179.385C252.618 179.385 250.146 181.857 250.146 184.906C250.146 187.956 252.618 190.429 255.668 190.429Z" fill="white"/>
<path d="M106.477 64.518C106.709 63.5565 108.077 63.5565 108.309 64.518L109.09 67.7541C109.173 68.0976 109.441 68.3659 109.785 68.4489L113.021 69.23C113.982 69.4621 113.982 70.8298 113.021 71.0618L109.785 71.843C109.441 71.926 109.173 72.1942 109.09 72.5378L108.309 75.7739C108.077 76.7354 106.709 76.7354 106.477 75.7739L105.696 72.5378C105.613 72.1942 105.345 71.926 105.001 71.843L101.765 71.0618C100.804 70.8298 100.804 69.4621 101.765 69.23L105.001 68.4489C105.345 68.3659 105.613 68.0976 105.696 67.7541L106.477 64.518Z" fill="white"/>
<path d="M240.45 206.187C240.704 205.133 242.203 205.133 242.458 206.187L243.314 209.734C243.404 210.11 243.699 210.405 244.076 210.495L247.623 211.352C248.676 211.606 248.676 213.105 247.623 213.36L244.076 214.216C243.699 214.307 243.404 214.601 243.314 214.977L242.458 218.524C242.203 219.579 240.704 219.579 240.45 218.524L239.593 214.977C239.502 214.601 239.208 214.307 238.832 214.216L235.285 213.36C234.231 213.105 234.231 211.606 235.285 211.352L238.832 210.495C239.208 210.405 239.502 210.11 239.593 209.734L240.45 206.187Z" fill="url(#paint2_linear_39944_5826)"/>
<path d="M91.6584 219.454C92.8577 219.262 93.8151 220.44 93.3818 221.575L90.4569 229.233C90.0236 230.368 88.5245 230.608 87.7586 229.665L82.5884 223.303C81.8223 222.361 82.364 220.943 83.5633 220.75L91.6584 219.454Z" fill="url(#paint3_linear_39944_5826)"/>
<path d="M245.598 72.5064C245.298 71.3295 246.385 70.2691 247.554 70.5977L255.447 72.8157C256.615 73.1442 256.991 74.6153 256.122 75.4637L250.255 81.1898C249.385 82.0381 247.924 81.6274 247.624 80.4505L245.598 72.5064Z" fill="url(#paint4_linear_39944_5826)"/>
<path d="M219.318 127.491L202.205 130.818C197.335 131.764 194.156 136.478 195.102 141.347C196.049 146.216 200.763 149.395 205.631 148.449L222.745 145.122C227.614 144.176 230.793 139.462 229.847 134.593C228.901 129.725 224.187 126.544 219.318 127.491Z" fill="url(#paint5_linear_39944_5826)"/>
<path d="M226.043 136.272C226.129 134.056 224.403 132.189 222.185 132.103C219.969 132.016 218.102 133.743 218.016 135.96C217.929 138.176 219.656 140.043 221.873 140.13C224.09 140.216 225.957 138.489 226.043 136.272Z" fill="#EBEBEB"/>
<path d="M222.447 138.273C223.639 138.041 224.417 136.887 224.186 135.696C223.954 134.504 222.8 133.726 221.608 133.957C220.417 134.188 219.638 135.342 219.87 136.535C220.102 137.726 221.256 138.505 222.447 138.273Z" fill="#DBDBDB"/>
<path d="M192.184 100.443L104.802 117.429C99.8914 118.383 96.6843 123.138 97.6388 128.049L109.445 188.786C110.4 193.697 115.154 196.904 120.065 195.949L207.446 178.964C212.358 178.01 215.564 173.255 214.61 168.344L202.803 107.607C201.849 102.696 197.095 99.489 192.184 100.443Z" fill="url(#paint6_linear_39944_5826)"/>
<path d="M190.587 72.825L208.436 118.962C209.435 121.541 208.151 124.442 205.577 125.439L132.404 153.748C129.829 154.746 126.929 153.461 125.929 150.883L108.08 104.745C107.153 102.345 108.344 99.6475 110.745 98.7211L184.56 70.1659C186.962 69.2395 189.658 70.4297 190.585 72.8308L190.587 72.825Z" fill="url(#paint7_linear_39944_5826)"/>
<path d="M194.024 117.061C194.939 119.434 193.763 122.101 191.39 123.016C189.019 123.932 186.35 122.754 185.436 120.382C184.52 118.011 185.697 115.343 188.07 114.427C190.441 113.512 193.11 114.69 194.024 117.061Z" fill="url(#paint8_linear_39944_5826)"/>
<path d="M199.311 115.012C200.227 117.384 199.049 120.052 196.678 120.968C194.306 121.883 191.638 120.705 190.722 118.334C189.807 115.961 190.985 113.294 193.356 112.379C195.729 111.463 198.396 112.641 199.311 115.012Z" fill="url(#paint9_linear_39944_5826)"/>
<path d="M130.135 100.326L118.146 104.964C117.18 105.338 116.699 106.425 117.073 107.391L119.86 114.596C120.234 115.563 121.321 116.043 122.288 115.669L134.276 111.031C135.243 110.658 135.723 109.571 135.349 108.604L132.562 101.399C132.188 100.433 131.101 99.9522 130.135 100.326Z" fill="url(#paint10_linear_39944_5826)"/>
<path d="M184.7 85.9619L177.69 88.6718C176.068 89.2947 174.247 88.4909 173.62 86.8699C172.997 85.2472 173.801 83.4264 175.422 82.7993L182.431 80.0894C184.053 79.4624 185.875 80.2704 186.502 81.8914C187.125 83.514 186.321 85.3349 184.7 85.9619Z" fill="white"/>
<path d="M123.742 126.318L123.252 126.937C123.252 126.937 123.211 126.981 123.182 126.992C123.124 127.015 123.061 127 123.02 126.969C122.942 126.903 122.932 126.801 122.997 126.733L123.661 125.871C123.717 125.806 123.831 125.791 123.896 125.847C123.931 125.877 123.95 125.913 123.962 125.956L125.559 130.081C125.592 130.164 125.556 130.259 125.464 130.295C125.381 130.327 125.283 130.283 125.251 130.2L123.75 126.315L123.742 126.318Z" fill="#F8F8F8"/>
<path d="M126.608 129.536L127.972 126.829C128.133 126.499 128.148 126.14 128.024 125.818C127.919 125.543 127.709 125.308 127.424 125.163C127.102 125 126.736 124.992 126.424 125.116C126.141 125.226 125.902 125.427 125.754 125.714L125.614 125.998C125.575 126.084 125.469 126.12 125.395 126.076C125.309 126.037 125.273 125.932 125.316 125.858L125.455 125.57C125.642 125.211 125.951 124.944 126.306 124.808C126.698 124.657 127.152 124.655 127.57 124.873C127.942 125.056 128.202 125.358 128.335 125.704C128.487 126.101 128.482 126.562 128.274 126.981L127.107 129.301L129.234 128.484C129.316 128.448 129.413 128.488 129.448 128.579C129.48 128.662 129.436 128.761 129.353 128.793L126.849 129.763L126.824 129.773C126.778 129.791 126.727 129.796 126.69 129.772C126.604 129.723 126.567 129.627 126.606 129.541L126.608 129.536Z" fill="#F8F8F8"/>
<path d="M131.593 123.084L130.894 124.726C131.199 124.676 131.522 124.705 131.822 124.839C132.232 125.021 132.533 125.356 132.683 125.748C132.833 126.14 132.838 126.588 132.651 127C132.469 127.41 132.136 127.714 131.745 127.869C131.362 128.016 130.914 128.02 130.502 127.834C130.417 127.799 130.375 127.702 130.416 127.609C130.449 127.519 130.549 127.481 130.641 127.522C130.967 127.661 131.316 127.661 131.625 127.542C131.934 127.423 132.197 127.188 132.346 126.864C132.492 126.534 132.486 126.183 132.368 125.874C132.249 125.565 132.014 125.301 131.688 125.163C131.363 125.015 131.012 125.021 130.703 125.139C130.653 125.159 130.597 125.151 130.549 125.126L130.541 125.13C130.45 125.093 130.41 124.989 130.453 124.9L131.125 123.321L129.402 123.982C129.312 124.022 129.214 123.979 129.18 123.891C129.145 123.799 129.189 123.701 129.276 123.667L131.379 122.86C131.468 122.821 131.567 122.865 131.6 122.952C131.61 122.977 131.611 123.006 131.607 123.031C131.607 123.055 131.6 123.077 131.592 123.094L131.593 123.084Z" fill="#F8F8F8"/>
<path d="M136.635 124.911L134.203 125.853L134.182 125.862C134.149 125.874 134.108 125.881 134.073 125.865C133.983 125.843 133.935 125.741 133.969 125.656L135.318 121.415L135.322 121.403C135.354 121.31 135.438 121.268 135.532 121.299C135.564 121.311 135.589 121.335 135.61 121.355C135.615 121.368 135.627 121.372 135.629 121.377L135.637 121.398L136.828 124.478L137.129 124.362C137.22 124.327 137.319 124.371 137.351 124.454C137.382 124.537 137.339 124.635 137.251 124.669L136.951 124.785L137.247 125.556C137.279 125.64 137.235 125.737 137.148 125.771C137.064 125.804 136.966 125.759 136.934 125.676L136.638 124.904L136.635 124.911ZM136.517 124.602L135.498 121.973L134.393 125.427L136.52 124.61L136.517 124.602Z" fill="#F8F8F8"/>
<path d="M142.449 123.213C142.359 123.176 142.319 123.072 142.363 122.987C142.402 122.901 142.504 122.857 142.592 122.899C142.918 123.038 143.268 123.038 143.576 122.919C143.885 122.801 144.14 122.569 144.287 122.24C144.434 121.91 144.429 121.562 144.311 121.255C144.191 120.941 143.956 120.678 143.632 120.534C143.311 120.394 142.957 120.396 142.648 120.514C142.335 120.634 142.076 120.868 141.929 121.197C141.89 121.284 141.786 121.323 141.704 121.284C141.678 121.279 141.658 121.263 141.648 121.247L141.644 121.239C141.644 121.239 141.631 121.23 141.628 121.222C141.615 121.212 141.607 121.191 141.6 121.175C141.597 121.167 141.596 121.152 141.591 121.139L141.108 119.244C141.089 119.194 141.098 119.142 141.126 119.103C141.141 119.068 141.174 119.042 141.215 119.025L143.31 118.222C143.399 118.182 143.497 118.226 143.532 118.313C143.568 118.409 143.523 118.504 143.436 118.537L141.475 119.29L141.831 120.694C142.008 120.467 142.244 120.296 142.515 120.192C142.908 120.042 143.344 120.032 143.761 120.221C144.179 120.4 144.468 120.729 144.622 121.13C144.769 121.514 144.785 121.967 144.594 122.38C144.41 122.785 144.073 123.092 143.686 123.241C143.293 123.391 142.845 123.396 142.436 123.214L142.449 123.213Z" fill="#F8F8F8"/>
<path d="M145.542 118.492C145.642 117.827 146.003 117.224 146.739 116.908C146.819 116.868 146.917 116.911 146.958 116.992C146.992 117.083 146.949 117.181 146.867 117.217C146.247 117.485 145.976 117.962 145.871 118.538C145.817 118.86 145.839 119.216 145.9 119.561C146.053 119.148 146.372 118.795 146.815 118.626C147.644 118.307 148.562 118.716 148.876 119.533C149.192 120.355 148.787 121.271 147.962 121.592C147.158 121.901 146.259 121.519 145.924 120.734C145.875 120.642 145.838 120.546 145.798 120.442C145.574 119.844 145.443 119.142 145.547 118.49L145.542 118.492ZM146.228 120.588C146.24 120.621 146.259 120.643 146.272 120.667C146.28 120.687 146.285 120.7 146.281 120.716C146.58 121.257 147.246 121.508 147.835 121.283C148.49 121.032 148.811 120.3 148.565 119.658C148.318 119.015 147.586 118.693 146.932 118.945C146.289 119.191 145.967 119.922 146.214 120.565L146.223 120.59L146.228 120.588Z" fill="#F8F8F8"/>
<path d="M151 120.168L151.136 115.584L148.962 116.418C148.88 116.453 148.783 116.414 148.752 116.331C148.72 116.248 148.763 116.149 148.847 116.117L151.224 115.204C151.253 115.179 151.282 115.168 151.32 115.168C151.366 115.174 151.414 115.199 151.441 115.231C151.457 115.249 151.466 115.26 151.473 115.277C151.485 115.31 151.486 115.338 151.479 115.37L151.339 120.176C151.336 120.244 151.291 120.305 151.233 120.326C151.208 120.336 151.195 120.341 151.166 120.338C151.074 120.336 151 120.254 150.995 120.169L151 120.168Z" fill="#F8F8F8"/>
<path d="M153.782 114.174C154.295 113.977 154.88 114.231 155.078 114.744C155.197 115.057 155.148 115.387 154.986 115.65C155.602 115.662 156.179 116.043 156.412 116.649C156.723 117.457 156.326 118.357 155.518 118.671C154.713 118.981 153.81 118.585 153.496 117.778C153.263 117.173 153.433 116.505 153.873 116.082C153.582 115.997 153.328 115.784 153.208 115.471C153.011 114.958 153.258 114.38 153.78 114.179L153.782 114.174ZM155.402 118.357C156.044 118.111 156.351 117.399 156.108 116.765C155.866 116.136 155.159 115.813 154.515 116.061C153.881 116.303 153.569 117.022 153.811 117.652C154.055 118.29 154.768 118.601 155.402 118.357ZM154.389 115.741C154.731 115.6 154.906 115.207 154.774 114.861C154.64 114.515 154.251 114.348 153.905 114.481C153.559 114.614 153.39 114.999 153.524 115.345C153.657 115.691 154.044 115.868 154.392 115.739L154.389 115.741Z" fill="#F8F8F8"/>
<path d="M161.766 111.086C162.538 110.789 163.381 111.117 163.748 111.823C163.761 111.833 163.764 111.841 163.773 111.852C163.828 111.97 163.882 112.097 163.933 112.23C164.162 112.827 164.291 113.538 164.196 114.188C164.092 114.84 163.727 115.459 163 115.771L162.991 115.775C162.9 115.81 162.805 115.775 162.772 115.692C162.738 115.599 162.774 115.509 162.863 115.465C163.473 115.197 163.763 114.718 163.859 114.144C163.909 113.815 163.899 113.464 163.83 113.122C163.677 113.535 163.353 113.874 162.903 114.048C162.085 114.361 161.168 113.967 160.845 113.138C160.531 112.321 160.94 111.403 161.758 111.089L161.766 111.086ZM163.511 112.105C163.265 111.463 162.54 111.147 161.886 111.399C161.243 111.645 160.92 112.373 161.165 113.011C161.416 113.666 162.143 113.975 162.785 113.729C163.44 113.478 163.763 112.76 163.507 112.106L163.511 112.105Z" fill="#F8F8F8"/>
<path d="M165.268 112.315C165.036 111.711 164.975 111.102 165.089 110.575C165.21 110.07 165.497 109.644 165.951 109.469C166.406 109.294 166.908 109.418 167.335 109.708C167.767 110.022 168.145 110.508 168.382 111.111C168.613 111.716 168.662 112.329 168.549 112.846C168.43 113.356 168.144 113.786 167.69 113.961C167.235 114.135 166.733 114.012 166.303 113.713C165.871 113.41 165.499 112.917 165.267 112.312L165.268 112.315ZM165.581 112.196C165.793 112.746 166.133 113.185 166.5 113.441C166.864 113.694 167.248 113.772 167.57 113.648C167.891 113.524 168.114 113.209 168.221 112.776C168.317 112.342 168.281 111.786 168.07 111.236C167.859 110.685 167.509 110.249 167.147 109.991C166.774 109.728 166.399 109.661 166.077 109.784C165.756 109.908 165.519 110.214 165.426 110.657C165.33 111.091 165.374 111.643 165.587 112.198L165.581 112.196Z" fill="#F8F8F8"/>
<path d="M169.763 108.517L169.274 109.137C169.274 109.137 169.233 109.18 169.204 109.192C169.145 109.215 169.083 109.2 169.041 109.168C168.963 109.102 168.953 109.001 169.019 108.933L169.683 108.07C169.74 108.005 169.853 107.99 169.918 108.047C169.953 108.076 169.972 108.112 169.983 108.156L171.581 112.28C171.613 112.364 171.577 112.458 171.486 112.494C171.403 112.526 171.305 112.482 171.272 112.398L169.772 108.514L169.763 108.517Z" fill="#F8F8F8"/>
<path d="M172.629 111.731L173.993 109.025C174.154 108.695 174.168 108.335 174.045 108.014C173.939 107.739 173.73 107.503 173.445 107.359C173.123 107.195 172.756 107.188 172.445 107.312C172.162 107.421 171.925 107.627 171.774 107.909L171.635 108.193C171.596 108.28 171.49 108.315 171.416 108.272C171.33 108.234 171.293 108.128 171.337 108.053L171.475 107.766C171.663 107.407 171.972 107.139 172.325 106.999C172.717 106.849 173.171 106.847 173.59 107.064C173.961 107.247 174.221 107.55 174.354 107.896C174.506 108.291 174.501 108.753 174.293 109.173L173.126 111.493L175.253 110.676C175.335 110.639 175.434 110.683 175.467 110.771C175.499 110.854 175.455 110.952 175.372 110.984L172.868 111.955L172.843 111.964C172.797 111.982 172.746 111.987 172.709 111.964C172.623 111.915 172.586 111.819 172.625 111.733L172.629 111.731Z" fill="#F8F8F8"/>
<path d="M181.461 103.793L180.761 105.436C181.067 105.385 181.389 105.414 181.689 105.548C182.1 105.73 182.4 106.065 182.551 106.457C182.701 106.849 182.705 107.297 182.519 107.709C182.336 108.119 182.003 108.423 181.617 108.576C181.234 108.724 180.781 108.73 180.369 108.544C180.284 108.509 180.242 108.411 180.283 108.318C180.318 108.233 180.416 108.19 180.508 108.231C180.834 108.37 181.184 108.37 181.493 108.251C181.801 108.132 182.065 107.897 182.213 107.573C182.359 107.244 182.353 106.892 182.235 106.583C182.117 106.275 181.881 106.01 181.555 105.872C181.231 105.724 180.878 105.73 180.57 105.849C180.52 105.868 180.465 105.861 180.417 105.835L180.408 105.839C180.318 105.802 180.277 105.698 180.321 105.609L180.992 104.031L179.269 104.692C179.179 104.731 179.081 104.688 179.047 104.6C179.013 104.508 179.056 104.41 179.143 104.376L181.245 103.569C181.336 103.53 181.434 103.574 181.467 103.661C181.477 103.687 181.478 103.715 181.474 103.74C181.474 103.765 181.467 103.786 181.46 103.803L181.461 103.793Z" fill="#F8F8F8"/>
<path d="M186.503 105.619L184.067 106.554L184.06 106.562L184.048 106.566C184.015 106.579 183.976 106.59 183.94 106.57C183.849 106.547 183.801 106.446 183.835 106.361L185.184 102.12L185.189 102.108C185.22 102.015 185.305 101.973 185.398 102.005C185.43 102.016 185.455 102.04 185.477 102.06C185.481 102.073 185.489 102.079 185.495 102.082L185.503 102.102L186.694 105.182L186.995 105.067C187.086 105.032 187.185 105.075 187.217 105.159C187.248 105.242 187.205 105.341 187.117 105.374L186.817 105.489L187.113 106.261C187.145 106.344 187.102 106.442 187.014 106.476C186.93 106.508 186.833 106.465 186.8 106.381L186.504 105.609L186.503 105.619ZM186.384 105.311L185.366 102.681L184.26 106.135L186.388 105.319L186.384 105.311Z" fill="#F8F8F8"/>
<path d="M188.47 105.409C188.379 105.371 188.339 105.267 188.384 105.183C188.422 105.097 188.527 105.056 188.613 105.095C188.939 105.233 189.288 105.233 189.597 105.115C189.905 104.996 190.161 104.764 190.308 104.435C190.454 104.106 190.45 103.758 190.331 103.449C190.211 103.137 189.976 102.873 189.653 102.729C189.329 102.585 188.977 102.591 188.669 102.709C188.356 102.83 188.097 103.063 187.95 103.392C187.911 103.479 187.808 103.523 187.724 103.478C187.699 103.474 187.678 103.458 187.668 103.443L187.664 103.435C187.664 103.435 187.652 103.426 187.648 103.417C187.635 103.408 187.627 103.387 187.621 103.37C187.617 103.361 187.616 103.348 187.612 103.335L187.128 101.439C187.109 101.389 187.118 101.338 187.146 101.298C187.162 101.264 187.194 101.236 187.236 101.221L189.329 100.417C189.42 100.378 189.518 100.421 189.551 100.509C189.588 100.605 189.543 100.698 189.455 100.732L187.495 101.485L187.852 102.889C188.03 102.668 188.264 102.491 188.536 102.388C188.927 102.236 189.364 102.227 189.781 102.417C190.2 102.596 190.489 102.925 190.643 103.325C190.789 103.709 190.806 104.162 190.615 104.575C190.431 104.981 190.094 105.287 189.706 105.437C189.314 105.587 188.866 105.591 188.456 105.409L188.47 105.409Z" fill="#F8F8F8"/>
<path d="M191.562 100.687C191.662 100.022 192.021 99.4148 192.759 99.1031C192.839 99.0628 192.937 99.1065 192.977 99.1867C193.012 99.2785 192.969 99.3766 192.887 99.4128C192.269 99.6837 191.995 100.157 191.891 100.734C191.837 101.055 191.859 101.41 191.92 101.756C192.073 101.343 192.392 100.991 192.834 100.821C193.664 100.502 194.582 100.911 194.896 101.728C195.212 102.551 194.807 103.466 193.982 103.788C193.177 104.097 192.28 103.715 191.944 102.928C191.895 102.838 191.858 102.742 191.818 102.638C191.593 102.039 191.462 101.338 191.567 100.686L191.562 100.687ZM192.248 102.783C192.261 102.817 192.279 102.839 192.292 102.862C192.3 102.883 192.305 102.896 192.301 102.911C192.6 103.452 193.266 103.704 193.854 103.478C194.509 103.226 194.831 102.495 194.585 101.853C194.338 101.21 193.607 100.888 192.952 101.139C192.309 101.387 191.987 102.118 192.233 102.76L192.243 102.785L192.248 102.783Z" fill="#F8F8F8"/>
<path d="M168.036 122.686L128.854 137.844L129.598 139.769L168.78 124.61L168.036 122.686Z" fill="url(#paint11_linear_39944_5826)"/>
<path d="M158.249 131.391L130.509 142.123L131.253 144.048L158.993 133.316L158.249 131.391Z" fill="url(#paint12_linear_39944_5826)"/>
<path d="M168.828 85.353L151.214 92.1673C150.682 92.373 150.418 92.9707 150.623 93.5023C150.829 94.0339 151.427 94.2982 151.959 94.0925L169.573 87.2782C170.104 87.0725 170.368 86.4748 170.162 85.9432C169.957 85.4116 169.359 85.1473 168.828 85.353Z" fill="#3B3B3B"/>
<path d="M201.106 134.535L109.301 152.381L116.445 189.135L208.251 171.29L201.106 134.535Z" fill="url(#paint13_linear_39944_5826)"/>
<path opacity="0.2" d="M201.106 134.535L109.301 152.381L116.445 189.135L208.251 171.29L201.106 134.535Z" fill="black"/>
<path d="M209.586 193.287L119.136 197.864C114.632 198.092 110.647 194.973 109.787 190.546L96.7663 123.562C96.4591 121.982 98.0832 120.725 99.536 121.42C101.222 122.225 103.095 122.567 104.963 122.409L186.216 115.459C190.829 115.064 194.997 118.211 195.88 122.755L209.589 193.282C209.589 193.283 209.587 193.286 209.586 193.287Z" fill="url(#paint14_linear_39944_5826)"/>
<path d="M190.374 160.298C192.479 159.889 193.808 157.613 193.342 155.216C192.876 152.818 190.792 151.206 188.687 151.614C186.582 152.023 185.253 154.299 185.719 156.697C186.186 159.095 188.27 160.707 190.374 160.298Z" fill="#EBEBEB"/>
<path d="M191.303 155.613C191.519 156.727 190.901 157.785 189.923 157.974C188.945 158.164 187.976 157.415 187.759 156.301C187.543 155.188 188.16 154.13 189.139 153.94C190.117 153.749 191.086 154.499 191.303 155.613Z" fill="#DBDBDB"/>
</g>
<path d="M75.7506 288.26C71.9886 288.26 69.8106 290.262 69.8106 292.836C69.8106 295.256 71.3506 296.488 75.3986 297.302C77.7966 297.786 78.5666 298.248 78.5666 299.04C78.5666 300.14 77.5546 300.734 75.6846 300.734C73.7266 300.734 72.3406 300.25 71.1966 298.358L69.3926 300.514C70.6246 302.274 72.4946 303.22 75.7946 303.22C79.2706 303.22 81.7566 301.592 81.7566 298.864C81.7566 296.444 80.2826 295.234 76.3666 294.508C73.8146 294.046 73.0226 293.518 73.0226 292.55C73.0226 291.516 73.9466 290.746 75.7726 290.746C77.7306 290.746 78.9406 291.538 79.6886 293.1L81.7786 291.054C80.3046 289.118 78.4566 288.26 75.7506 288.26ZM94.5514 297.456C94.5514 293.848 92.6814 291.78 89.2494 291.78C85.7074 291.78 83.7054 293.892 83.7054 297.5C83.7054 301.108 85.7734 303.22 89.4254 303.22C91.9114 303.22 93.6054 302.274 94.3094 300.514L91.8454 299.612C91.5374 300.492 90.7014 300.976 89.4254 300.976C87.9514 300.976 86.9834 300.228 86.6754 298.644H94.4634C94.5074 298.358 94.5514 297.764 94.5514 297.456ZM89.2274 294.002C90.6134 294.002 91.5374 294.882 91.7794 296.532H86.6534C86.8954 294.86 87.7754 294.002 89.2274 294.002ZM103.973 300.316C103.511 300.712 103.005 300.932 102.279 300.932C101.333 300.932 100.761 300.47 100.761 299.414V294.244H104.325V292H100.761V288.634L97.7467 289.47V292H95.7447V294.244H97.7467V299.898C97.7467 302.318 99.2427 303.22 101.421 303.22C102.587 303.22 103.731 302.89 104.435 302.318L103.973 300.316ZM113.756 292V297.896C113.756 299.942 112.612 300.844 111.182 300.844C109.994 300.844 109.268 300.294 109.268 298.512V292H106.254V299.282C106.254 302.098 107.904 303.22 110.126 303.22C111.886 303.22 113.25 302.56 113.976 301.108L114.086 303H116.77V292H113.756ZM126.409 291.78C124.649 291.78 123.329 292.726 122.713 294.134L122.603 292H119.941V307.62H122.955V301.174C123.593 302.406 124.781 303.22 126.409 303.22C129.313 303.22 131.117 301.086 131.117 297.478C131.117 293.892 129.335 291.78 126.409 291.78ZM125.507 300.91C123.923 300.91 122.955 299.7 122.955 297.61V297.39C122.955 295.256 123.945 294.09 125.507 294.09C127.113 294.09 128.081 295.256 128.081 297.5C128.081 299.744 127.113 300.91 125.507 300.91ZM151.718 288.48H148.506L146.174 292.814L145.052 295.102L143.952 292.814L141.62 288.48H138.386L143.534 297.566V303H146.57V297.566L151.718 288.48ZM156.498 291.78C152.956 291.78 150.866 293.914 150.866 297.5C150.866 301.086 152.956 303.22 156.498 303.22C160.04 303.22 162.13 301.086 162.13 297.5C162.13 293.914 160.04 291.78 156.498 291.78ZM156.498 294.024C158.192 294.024 159.116 295.168 159.116 297.5C159.116 299.832 158.192 300.976 156.498 300.976C154.804 300.976 153.88 299.832 153.88 297.5C153.88 295.168 154.804 294.024 156.498 294.024ZM172.151 292V297.896C172.151 299.942 171.007 300.844 169.577 300.844C168.389 300.844 167.663 300.294 167.663 298.512V292H164.649V299.282C164.649 302.098 166.299 303.22 168.521 303.22C170.281 303.22 171.645 302.56 172.371 301.108L172.481 303H175.165V292H172.151ZM184.562 291.78C182.846 291.78 181.724 292.638 181.152 294.156L180.954 292H178.336V303H181.35V297.302C181.35 295.3 182.67 294.332 183.99 294.332C184.562 294.332 185.068 294.464 185.376 294.662L185.75 292.022C185.486 291.868 185.046 291.78 184.562 291.78ZM202.083 295.08L202.765 291.648H202.809L203.491 295.08L205.515 303H208.925L213.149 288.48H210.025L207.209 300.602L204.261 288.48H201.357L198.453 300.602L195.637 288.48H192.359L196.583 303H200.081L202.083 295.08ZM224.355 301.174C223.783 301.174 223.541 300.91 223.541 300.338V295.828C223.541 293.1 221.605 291.78 218.547 291.78C215.863 291.78 214.213 292.968 213.751 294.838L216.149 295.85C216.479 294.464 217.403 293.98 218.679 293.98C219.867 293.98 220.549 294.728 220.549 295.894V296.422L217.909 296.928C214.961 297.478 213.619 298.688 213.619 300.404C213.619 302.252 214.939 303.22 217.029 303.22C218.877 303.22 220.263 302.648 220.923 301.57C221.231 302.758 222.133 303.22 223.453 303.22C224.003 303.22 224.487 303.11 224.883 302.912L225.103 301.086C224.883 301.152 224.619 301.174 224.355 301.174ZM217.975 301.174C217.183 301.174 216.721 300.8 216.721 300.096C216.721 299.37 217.227 299.018 218.195 298.798L220.549 298.27V299.414C220.549 300.58 219.119 301.174 217.975 301.174ZM229.904 287.182H226.89V299.942C226.89 302.23 227.836 303.22 229.97 303.22C230.696 303.22 231.532 303.044 232.016 302.758L232.28 300.668C231.796 300.844 231.488 300.91 230.982 300.91C230.168 300.91 229.904 300.536 229.904 299.502V287.182ZM236.929 287.182H233.915V299.942C233.915 302.23 234.861 303.22 236.995 303.22C237.721 303.22 238.557 303.044 239.041 302.758L239.305 300.668C238.821 300.844 238.513 300.91 238.007 300.91C237.193 300.91 236.929 300.536 236.929 299.502V287.182ZM251.258 297.456C251.258 293.848 249.388 291.78 245.956 291.78C242.414 291.78 240.412 293.892 240.412 297.5C240.412 301.108 242.48 303.22 246.132 303.22C248.618 303.22 250.312 302.274 251.016 300.514L248.552 299.612C248.244 300.492 247.408 300.976 246.132 300.976C244.658 300.976 243.69 300.228 243.382 298.644H251.17C251.214 298.358 251.258 297.764 251.258 297.456ZM245.934 294.002C247.32 294.002 248.244 294.882 248.486 296.532H243.36C243.602 294.86 244.482 294.002 245.934 294.002ZM260.68 300.316C260.218 300.712 259.712 300.932 258.986 300.932C258.04 300.932 257.468 300.47 257.468 299.414V294.244H261.032V292H257.468V288.634L254.454 289.47V292H252.452V294.244H254.454V299.898C254.454 302.318 255.95 303.22 258.128 303.22C259.294 303.22 260.438 302.89 261.142 302.318L260.68 300.316Z" fill="white"/>
<path d="M57.2528 326.28C54.8048 326.28 53.3168 327.72 53.3168 329.416C53.3168 331.032 54.3408 331.896 57.1888 332.392C59.4128 332.776 60.1008 333.304 60.1008 334.216C60.1008 335.352 59.0128 335.96 57.3808 335.96C55.6528 335.96 54.5648 335.192 54.0048 333.976L52.9008 334.872C53.6368 336.184 55.1088 337.16 57.3488 337.16C59.8128 337.16 61.4288 335.96 61.4288 334.152C61.4288 332.52 60.4208 331.624 57.5888 331.144C55.3648 330.76 54.6608 330.264 54.6608 329.272C54.6608 328.264 55.5888 327.48 57.2688 327.48C58.8208 327.48 59.5888 328.024 60.2288 329.416L61.3328 328.52C60.5168 327.048 59.1888 326.28 57.2528 326.28ZM70.7348 332.584C70.7348 330.52 69.4708 328.84 67.1508 328.84C64.7348 328.84 63.3748 330.408 63.3748 333C63.3748 335.592 64.8308 337.16 67.2468 337.16C68.9748 337.16 69.9668 336.504 70.5748 335.416L69.5028 334.856C69.2148 335.624 68.4148 336.04 67.2468 336.04C65.7748 336.04 64.7988 335.096 64.6388 333.48H70.6708C70.7028 333.256 70.7348 332.952 70.7348 332.584ZM67.1508 329.96C68.5108 329.96 69.3268 330.872 69.5028 332.344H64.6548C64.8468 330.84 65.7268 329.96 67.1508 329.96ZM77.3813 335.368C77.0133 335.736 76.5973 335.96 76.0213 335.96C75.3173 335.96 74.8213 335.576 74.8213 334.792V330.104H77.7813V329H74.8213V326.728L73.5413 327.08V329H71.9413V330.104H73.5413V335.016C73.5573 336.568 74.5813 337.16 75.7653 337.16C76.6453 337.16 77.3333 336.888 77.8293 336.44L77.3813 335.368ZM90.7376 329V333.352C90.7376 335.24 89.5376 336.04 88.1776 336.04C87.0256 336.04 86.2896 335.544 86.2896 333.896V329H85.0096V334.232C85.0096 336.344 86.3696 337.16 87.9536 337.16C89.2336 337.16 90.2576 336.744 90.8176 335.784L90.8976 337H92.0176V329H90.7376ZM98.9318 328.84C97.6678 328.84 96.6598 329.48 96.1958 330.392L96.1158 329H94.9958V340.36H96.2758V335.752C96.7718 336.584 97.7318 337.16 98.9318 337.16C101.156 337.16 102.58 335.608 102.58 333C102.58 330.392 101.156 328.84 98.9318 328.84ZM98.7878 336.04C97.2678 336.04 96.2758 334.904 96.2758 333.096V332.904C96.2758 331.096 97.2678 329.96 98.7878 329.96C100.356 329.96 101.3 331.144 101.3 333C101.3 334.856 100.356 336.04 98.7878 336.04ZM116.921 329H115.545L113.673 334.056L113.097 335.64L112.601 334.216L110.601 329H109.145L112.489 336.984L112.073 338.024C111.673 339.08 111.177 339.32 110.617 339.32C110.169 339.32 109.689 339.192 109.321 338.68L108.873 339.768C109.321 340.248 109.833 340.44 110.633 340.44C111.817 340.44 112.537 339.912 113.161 338.344L116.921 329ZM122.059 328.84C119.643 328.84 118.187 330.408 118.187 333C118.187 335.592 119.643 337.16 122.059 337.16C124.475 337.16 125.931 335.592 125.931 333C125.931 330.408 124.475 328.84 122.059 328.84ZM122.059 329.944C123.675 329.944 124.651 331.096 124.651 333C124.651 334.904 123.675 336.056 122.059 336.056C120.443 336.056 119.467 334.904 119.467 333C119.467 331.096 120.443 329.944 122.059 329.944ZM134.066 329V333.352C134.066 335.24 132.866 336.04 131.506 336.04C130.354 336.04 129.618 335.544 129.618 333.896V329H128.338V334.232C128.338 336.344 129.698 337.16 131.282 337.16C132.562 337.16 133.586 336.744 134.146 335.784L134.226 337H135.346V329H134.066ZM142.1 328.84C140.852 328.84 139.988 329.336 139.54 330.312L139.364 329H138.324V337H139.604V332.68C139.604 330.888 140.756 330.04 141.716 330.04C142.132 330.04 142.484 330.12 142.724 330.248L142.98 329C142.74 328.872 142.372 328.84 142.1 328.84ZM159.766 329L157.75 335.512L155.574 329H154.294L152.118 335.512L150.102 329H148.678L151.462 337H152.742L154.87 330.632L157.126 337H158.406L161.19 329H159.766ZM169.665 336.072C169.217 336.072 169.057 335.88 169.057 335.496V331.56C169.057 329.704 167.729 328.84 165.905 328.84C164.353 328.84 163.089 329.608 162.673 330.792L163.617 331.48C164.049 330.472 164.849 329.96 165.905 329.96C167.105 329.96 167.777 330.664 167.777 331.72V332.168L165.649 332.52C163.585 332.872 162.529 333.816 162.529 335.016C162.529 336.456 163.745 337.16 165.249 337.16C166.273 337.16 167.313 336.728 167.825 335.976C167.969 336.872 168.481 337.16 169.265 337.16C169.665 337.16 170.001 337.08 170.225 337L170.305 335.992C170.113 336.04 169.873 336.072 169.665 336.072ZM165.313 336.04C164.401 336.04 163.857 335.688 163.857 335.016C163.857 334.264 164.577 333.8 165.985 333.544L167.777 333.208V334.312C167.777 335.368 166.593 336.04 165.313 336.04ZM173.384 325.32H172.104V335.016C172.104 336.472 172.728 337.16 174.024 337.16C174.44 337.16 174.872 337.08 175.208 336.936L175.416 335.704C174.952 335.88 174.68 335.928 174.248 335.928C173.592 335.928 173.384 335.672 173.384 334.856V325.32ZM178.274 325.32H176.994V335.016C176.994 336.472 177.618 337.16 178.914 337.16C179.33 337.16 179.762 337.08 180.098 336.936L180.306 335.704C179.842 335.88 179.57 335.928 179.138 335.928C178.482 335.928 178.274 335.672 178.274 334.856V325.32ZM188.813 332.584C188.813 330.52 187.549 328.84 185.229 328.84C182.813 328.84 181.453 330.408 181.453 333C181.453 335.592 182.909 337.16 185.325 337.16C187.053 337.16 188.045 336.504 188.653 335.416L187.581 334.856C187.293 335.624 186.493 336.04 185.325 336.04C183.853 336.04 182.877 335.096 182.717 333.48H188.749C188.781 333.256 188.813 332.952 188.813 332.584ZM185.229 329.96C186.589 329.96 187.405 330.872 187.581 332.344H182.733C182.925 330.84 183.805 329.96 185.229 329.96ZM195.459 335.368C195.091 335.736 194.675 335.96 194.099 335.96C193.395 335.96 192.899 335.576 192.899 334.792V330.104H195.859V329H192.899V326.728L191.619 327.08V329H190.019V330.104H191.619V335.016C191.635 336.568 192.659 337.16 193.843 337.16C194.723 337.16 195.411 336.888 195.907 336.44L195.459 335.368ZM206.544 328.84C204.128 328.84 202.672 330.408 202.672 333C202.672 335.592 204.128 337.16 206.544 337.16C208.96 337.16 210.416 335.592 210.416 333C210.416 330.408 208.96 328.84 206.544 328.84ZM206.544 329.944C208.16 329.944 209.136 331.096 209.136 333C209.136 334.904 208.16 336.056 206.544 336.056C204.928 336.056 203.952 334.904 203.952 333C203.952 331.096 204.928 329.944 206.544 329.944ZM214.665 327.784C214.665 326.824 215.193 326.408 216.121 326.408C216.489 326.408 216.777 326.488 217.033 326.648L217.369 325.608C217.081 325.368 216.569 325.24 216.009 325.24C214.249 325.24 213.385 326.232 213.385 327.656V329H211.785V330.104H213.385V337H214.665V330.104H217.337V329H214.665V327.784ZM227.231 328.84C224.815 328.84 223.359 330.408 223.359 333C223.359 335.592 224.815 337.16 227.231 337.16C228.927 337.16 230.079 336.28 230.623 334.808L229.439 334.392C229.199 335.448 228.447 336.04 227.199 336.04C225.599 336.04 224.639 334.904 224.639 333C224.639 331.096 225.599 329.96 227.199 329.96C228.303 329.96 228.991 330.52 229.327 331.544L230.543 330.968C229.951 329.656 228.879 328.84 227.231 328.84ZM236.774 328.84C235.686 328.84 234.726 329.24 234.166 330.2V325.32H232.886V337H234.166V332.76C234.166 330.712 235.478 329.96 236.646 329.96C237.75 329.96 238.614 330.552 238.614 332.328V337H239.894V331.88C239.894 329.816 238.486 328.84 236.774 328.84ZM246.169 328.84C243.753 328.84 242.297 330.408 242.297 333C242.297 335.592 243.753 337.16 246.169 337.16C248.585 337.16 250.041 335.592 250.041 333C250.041 330.408 248.585 328.84 246.169 328.84ZM246.169 329.944C247.785 329.944 248.761 331.096 248.761 333C248.761 334.904 247.785 336.056 246.169 336.056C244.553 336.056 243.577 334.904 243.577 333C243.577 331.096 244.553 329.944 246.169 329.944ZM253.167 327.464C253.743 327.464 254.127 327.08 254.127 326.504C254.127 325.928 253.743 325.544 253.167 325.544C252.591 325.544 252.207 325.928 252.207 326.504C252.207 327.08 252.591 327.464 253.167 327.464ZM253.807 329H252.527V337H253.807V329ZM260.153 328.84C257.737 328.84 256.281 330.408 256.281 333C256.281 335.592 257.737 337.16 260.153 337.16C261.849 337.16 263.001 336.28 263.545 334.808L262.361 334.392C262.121 335.448 261.369 336.04 260.121 336.04C258.521 336.04 257.561 334.904 257.561 333C257.561 331.096 258.521 329.96 260.121 329.96C261.225 329.96 261.913 330.52 262.249 331.544L263.465 330.968C262.873 329.656 261.801 328.84 260.153 328.84ZM272.672 332.584C272.672 330.52 271.408 328.84 269.088 328.84C266.672 328.84 265.312 330.408 265.312 333C265.312 335.592 266.768 337.16 269.184 337.16C270.912 337.16 271.904 336.504 272.512 335.416L271.44 334.856C271.152 335.624 270.352 336.04 269.184 336.04C267.712 336.04 266.736 335.096 266.576 333.48H272.608C272.64 333.256 272.672 332.952 272.672 332.584ZM269.088 329.96C270.448 329.96 271.264 330.872 271.44 332.344H266.592C266.784 330.84 267.664 329.96 269.088 329.96ZM275.745 335.08C275.121 335.08 274.705 335.496 274.705 336.12C274.705 336.744 275.121 337.16 275.745 337.16C276.369 337.16 276.785 336.744 276.785 336.12C276.785 335.496 276.369 335.08 275.745 335.08ZM53.7556 356.296L52.4756 355.816C52.0116 357.24 50.9076 357.96 49.4996 357.96C47.3076 357.96 45.9476 356.376 45.9476 353.72C45.9476 351.048 47.4036 349.48 49.5636 349.48C50.9716 349.48 51.8356 350.12 52.2996 351.336L53.5636 350.744C52.8916 349.144 51.5156 348.28 49.4676 348.28C46.5236 348.28 44.6036 350.376 44.6036 353.72C44.6036 357.064 46.4916 359.16 49.4996 359.16C51.4836 359.16 53.0836 358.104 53.7556 356.296ZM59.3484 350.84C56.9324 350.84 55.4764 352.408 55.4764 355C55.4764 357.592 56.9324 359.16 59.3484 359.16C61.7644 359.16 63.2204 357.592 63.2204 355C63.2204 352.408 61.7644 350.84 59.3484 350.84ZM59.3484 351.944C60.9644 351.944 61.9404 353.096 61.9404 355C61.9404 356.904 60.9644 358.056 59.3484 358.056C57.7324 358.056 56.7564 356.904 56.7564 355C56.7564 353.096 57.7324 351.944 59.3484 351.944ZM69.5948 350.84C68.4908 350.84 67.4668 351.24 66.9068 352.248L66.8268 351H65.7068V359H66.9868V354.744C66.9868 352.696 68.2988 351.96 69.4668 351.96C70.5708 351.96 71.4348 352.552 71.4348 354.328V359H72.7148V353.88C72.7148 351.816 71.3068 350.84 69.5948 350.84ZM79.501 350.84C78.397 350.84 77.373 351.24 76.813 352.248L76.733 351H75.613V359H76.893V354.744C76.893 352.696 78.205 351.96 79.373 351.96C80.477 351.96 81.341 352.552 81.341 354.328V359H82.621V353.88C82.621 351.816 81.213 350.84 79.501 350.84ZM92.3833 354.584C92.3833 352.52 91.1193 350.84 88.7993 350.84C86.3832 350.84 85.0233 352.408 85.0233 355C85.0233 357.592 86.4793 359.16 88.8953 359.16C90.6233 359.16 91.6153 358.504 92.2233 357.416L91.1513 356.856C90.8633 357.624 90.0633 358.04 88.8953 358.04C87.4233 358.04 86.4473 357.096 86.2873 355.48H92.3193C92.3513 355.256 92.3833 354.952 92.3833 354.584ZM88.7993 351.96C90.1593 351.96 90.9753 352.872 91.1513 354.344H86.3033C86.4953 352.84 87.3753 351.96 88.7993 351.96ZM98.1921 350.84C95.7761 350.84 94.3201 352.408 94.3201 355C94.3201 357.592 95.7761 359.16 98.1921 359.16C99.8881 359.16 101.04 358.28 101.584 356.808L100.4 356.392C100.16 357.448 99.4081 358.04 98.1601 358.04C96.5601 358.04 95.6001 356.904 95.6001 355C95.6001 353.096 96.5601 351.96 98.1601 351.96C99.2641 351.96 99.9521 352.52 100.288 353.544L101.504 352.968C100.912 351.656 99.8401 350.84 98.1921 350.84ZM108.295 357.368C107.927 357.736 107.511 357.96 106.935 357.96C106.231 357.96 105.735 357.576 105.735 356.792V352.104H108.695V351H105.735V348.728L104.455 349.08V351H102.855V352.104H104.455V357.016C104.471 358.568 105.495 359.16 106.679 359.16C107.559 359.16 108.247 358.888 108.743 358.44L108.295 357.368ZM116.644 349.464C117.22 349.464 117.604 349.08 117.604 348.504C117.604 347.928 117.22 347.544 116.644 347.544C116.068 347.544 115.684 347.928 115.684 348.504C115.684 349.08 116.068 349.464 116.644 349.464ZM117.284 351H116.004V359H117.284V351ZM124.702 357.368C124.334 357.736 123.918 357.96 123.342 357.96C122.638 357.96 122.142 357.576 122.142 356.792V352.104H125.102V351H122.142V348.728L120.862 349.08V351H119.262V352.104H120.862V357.016C120.878 358.568 121.902 359.16 123.086 359.16C123.966 359.16 124.654 358.888 125.15 358.44L124.702 357.368ZM136.545 357.368C136.177 357.736 135.761 357.96 135.185 357.96C134.481 357.96 133.985 357.576 133.985 356.792V352.104H136.945V351H133.985V348.728L132.705 349.08V351H131.105V352.104H132.705V357.016C132.721 358.568 133.745 359.16 134.929 359.16C135.809 359.16 136.497 358.888 136.993 358.44L136.545 357.368ZM142.177 350.84C139.761 350.84 138.305 352.408 138.305 355C138.305 357.592 139.761 359.16 142.177 359.16C144.593 359.16 146.049 357.592 146.049 355C146.049 352.408 144.593 350.84 142.177 350.84ZM142.177 351.944C143.793 351.944 144.769 353.096 144.769 355C144.769 356.904 143.793 358.056 142.177 358.056C140.561 358.056 139.585 356.904 139.585 355C139.585 353.096 140.561 351.944 142.177 351.944ZM158.124 357.368C157.756 357.736 157.34 357.96 156.764 357.96C156.06 357.96 155.564 357.576 155.564 356.792V352.104H158.524V351H155.564V348.728L154.284 349.08V351H152.684V352.104H154.284V357.016C154.299 358.568 155.324 359.16 156.508 359.16C157.388 359.16 158.076 358.888 158.572 358.44L158.124 357.368ZM164.267 350.84C163.179 350.84 162.219 351.24 161.659 352.2V347.32H160.379V359H161.659V354.76C161.659 352.712 162.971 351.96 164.139 351.96C165.243 351.96 166.107 352.552 166.107 354.328V359H167.387V353.88C167.387 351.816 165.979 350.84 164.267 350.84ZM177.149 354.584C177.149 352.52 175.885 350.84 173.565 350.84C171.149 350.84 169.789 352.408 169.789 355C169.789 357.592 171.245 359.16 173.661 359.16C175.389 359.16 176.381 358.504 176.989 357.416L175.917 356.856C175.629 357.624 174.829 358.04 173.661 358.04C172.189 358.04 171.213 357.096 171.053 355.48H177.085C177.117 355.256 177.149 354.952 177.149 354.584ZM173.565 351.96C174.925 351.96 175.741 352.872 175.917 354.344H171.069C171.261 352.84 172.141 351.96 173.565 351.96ZM191.69 359H193.05L188.954 348.44H187.434L183.322 359H184.666L185.786 356.072H190.57L191.69 359ZM186.25 354.872L187.69 351.08L188.154 349.656H188.186L188.682 351.128L190.106 354.872H186.25ZM198.845 350.84C197.741 350.84 196.717 351.24 196.157 352.248L196.077 351H194.957V359H196.237V354.744C196.237 352.696 197.549 351.96 198.717 351.96C199.821 351.96 200.685 352.552 200.685 354.328V359H201.965V353.88C201.965 351.816 200.557 350.84 198.845 350.84ZM205.503 349.464C206.079 349.464 206.463 349.08 206.463 348.504C206.463 347.928 206.079 347.544 205.503 347.544C204.927 347.544 204.543 347.928 204.543 348.504C204.543 349.08 204.927 349.464 205.503 349.464ZM206.143 351H204.863V359H206.143V351ZM218.409 350.84C217.401 350.84 216.121 351.32 215.625 352.408C215.097 351.336 213.993 350.84 212.873 350.84C211.881 350.84 210.889 351.272 210.313 352.248L210.233 351H209.113V359H210.393V354.728C210.393 352.744 211.705 351.96 212.761 351.96C213.817 351.96 214.649 352.552 214.649 354.008V359H215.929V354.616C215.929 352.904 217.049 351.96 218.297 351.96C219.353 351.96 220.185 352.552 220.185 354.008V359H221.465V353.88C221.465 351.768 219.945 350.84 218.409 350.84ZM230.923 358.072C230.475 358.072 230.315 357.88 230.315 357.496V353.56C230.315 351.704 228.987 350.84 227.163 350.84C225.611 350.84 224.347 351.608 223.931 352.792L224.875 353.48C225.307 352.472 226.107 351.96 227.163 351.96C228.363 351.96 229.035 352.664 229.035 353.72V354.168L226.907 354.52C224.843 354.872 223.787 355.816 223.787 357.016C223.787 358.456 225.003 359.16 226.507 359.16C227.531 359.16 228.571 358.728 229.083 357.976C229.227 358.872 229.739 359.16 230.523 359.16C230.923 359.16 231.259 359.08 231.483 359L231.563 357.992C231.371 358.04 231.131 358.072 230.923 358.072ZM226.571 358.04C225.659 358.04 225.115 357.688 225.115 357.016C225.115 356.264 225.835 355.8 227.243 355.544L229.035 355.208V356.312C229.035 357.368 227.851 358.04 226.571 358.04ZM237.202 350.84C235.954 350.84 235.09 351.336 234.642 352.312L234.466 351H233.426V359H234.706V354.68C234.706 352.888 235.858 352.04 236.818 352.04C237.234 352.04 237.586 352.12 237.826 352.248L238.082 351C237.842 350.872 237.474 350.84 237.202 350.84ZM245.621 359H247.173L243.861 354.12L246.981 351H245.381L241.237 355.144V347.32H239.957V359H241.237V356.744L242.933 355.048L245.621 359ZM255.618 354.584C255.618 352.52 254.354 350.84 252.034 350.84C249.618 350.84 248.258 352.408 248.258 355C248.258 357.592 249.714 359.16 252.13 359.16C253.858 359.16 254.85 358.504 255.458 357.416L254.386 356.856C254.098 357.624 253.298 358.04 252.13 358.04C250.658 358.04 249.682 357.096 249.522 355.48H255.554C255.586 355.256 255.618 354.952 255.618 354.584ZM252.034 351.96C253.394 351.96 254.21 352.872 254.386 354.344H249.538C249.73 352.84 250.61 351.96 252.034 351.96ZM262.264 357.368C261.896 357.736 261.48 357.96 260.904 357.96C260.2 357.96 259.704 357.576 259.704 356.792V352.104H262.664V351H259.704V348.728L258.424 349.08V351H256.824V352.104H258.424V357.016C258.44 358.568 259.464 359.16 260.648 359.16C261.528 359.16 262.216 358.888 262.712 358.44L262.264 357.368ZM273.908 350.84C272.708 350.84 271.748 351.416 271.252 352.248V347.32H269.972V359H271.092L271.172 357.608C271.636 358.52 272.644 359.16 273.908 359.16C276.132 359.16 277.556 357.608 277.556 355C277.556 352.392 276.132 350.84 273.908 350.84ZM273.764 358.04C272.244 358.04 271.252 356.904 271.252 355.096V354.904C271.252 353.096 272.244 351.96 273.764 351.96C275.332 351.96 276.276 353.144 276.276 355C276.276 356.856 275.332 358.04 273.764 358.04ZM286.616 351H285.24L283.368 356.056L282.792 357.64L282.296 356.216L280.296 351H278.84L282.184 358.984L281.768 360.024C281.368 361.08 280.872 361.32 280.312 361.32C279.864 361.32 279.384 361.192 279.016 360.68L278.568 361.768C279.016 362.248 279.528 362.44 280.328 362.44C281.512 362.44 282.232 361.912 282.856 360.344L286.616 351ZM37.7703 372.84C35.3543 372.84 33.8983 374.408 33.8983 377C33.8983 379.592 35.3543 381.16 37.7703 381.16C39.4663 381.16 40.6183 380.28 41.1623 378.808L39.9783 378.392C39.7383 379.448 38.9863 380.04 37.7383 380.04C36.1383 380.04 35.1783 378.904 35.1783 377C35.1783 375.096 36.1383 373.96 37.7383 373.96C38.8423 373.96 39.5303 374.52 39.8663 375.544L41.0823 374.968C40.4903 373.656 39.4183 372.84 37.7703 372.84ZM44.6415 369.32H43.3615V379.016C43.3615 380.472 43.9855 381.16 45.2815 381.16C45.6975 381.16 46.1295 381.08 46.4655 380.936L46.6735 379.704C46.2095 379.88 45.9375 379.928 45.5055 379.928C44.8495 379.928 44.6415 379.672 44.6415 378.856V369.32ZM48.9561 371.464C49.5321 371.464 49.9161 371.08 49.9161 370.504C49.9161 369.928 49.5321 369.544 48.9561 369.544C48.3801 369.544 47.9961 369.928 47.9961 370.504C47.9961 371.08 48.3801 371.464 48.9561 371.464ZM49.5961 373H48.3161V381H49.5961V373ZM55.9421 372.84C53.5261 372.84 52.0701 374.408 52.0701 377C52.0701 379.592 53.5261 381.16 55.9421 381.16C57.6381 381.16 58.7901 380.28 59.3341 378.808L58.1501 378.392C57.9101 379.448 57.1581 380.04 55.9101 380.04C54.3101 380.04 53.3501 378.904 53.3501 377C53.3501 375.096 54.3101 373.96 55.9101 373.96C57.0141 373.96 57.7021 374.52 58.0381 375.544L59.2541 374.968C58.6621 373.656 57.5901 372.84 55.9421 372.84ZM67.2614 381H68.8134L65.5014 376.12L68.6214 373H67.0214L62.8774 377.144V369.32H61.5974V381H62.8774V378.744L64.5734 377.048L67.2614 381ZM71.3155 371.464C71.8915 371.464 72.2755 371.08 72.2755 370.504C72.2755 369.928 71.8915 369.544 71.3155 369.544C70.7395 369.544 70.3555 369.928 70.3555 370.504C70.3555 371.08 70.7395 371.464 71.3155 371.464ZM71.9555 373H70.6755V381H71.9555V373ZM78.8135 372.84C77.7095 372.84 76.6855 373.24 76.1255 374.248L76.0455 373H74.9255V381H76.2055V376.744C76.2055 374.696 77.5175 373.96 78.6855 373.96C79.7895 373.96 80.6535 374.552 80.6535 376.328V381H81.9335V375.88C81.9335 373.816 80.5255 372.84 78.8135 372.84ZM89.2958 379.976H86.6398C86.0158 379.976 85.5838 379.672 85.5838 379.112C85.5838 378.568 85.8398 378.248 86.4798 378.104C86.8318 378.2 87.2478 378.248 87.7118 378.248C89.6318 378.248 90.9918 377.128 90.9918 375.544C90.9918 374.712 90.6238 374.008 89.9838 373.528C90.2078 372.952 90.8158 372.648 91.8878 372.648L91.5998 371.528C90.3998 371.528 89.6478 372.056 89.3438 373.16C88.8638 372.952 88.3198 372.84 87.7118 372.84C85.7918 372.84 84.4318 373.96 84.4318 375.544C84.4318 376.472 84.8318 377.256 85.5998 377.736C84.8958 377.976 84.3997 378.472 84.3997 379.304C84.3997 380.008 84.8798 380.488 85.4878 380.776C84.6078 381.016 84.0798 381.592 84.0798 382.328C84.0798 383.528 85.2318 384.44 87.7598 384.44C89.9198 384.44 91.7118 383.464 91.7118 381.88C91.7118 380.728 90.8158 379.976 89.2958 379.976ZM87.7118 373.88C88.8158 373.88 89.6638 374.552 89.6638 375.544C89.6638 376.536 88.8158 377.208 87.7118 377.208C86.6078 377.208 85.7598 376.536 85.7598 375.544C85.7598 374.552 86.6078 373.88 87.7118 373.88ZM87.9038 383.368C86.1438 383.368 85.2638 382.856 85.2638 382.072C85.2638 381.464 85.7918 381.08 86.7998 381.08H88.9438C90.1438 381.08 90.5278 381.448 90.5278 382.024C90.5278 382.728 89.5998 383.368 87.9038 383.368ZM103.202 379.368C102.834 379.736 102.418 379.96 101.842 379.96C101.138 379.96 100.642 379.576 100.642 378.792V374.104H103.602V373H100.642V370.728L99.3616 371.08V373H97.7616V374.104H99.3616V379.016C99.3776 380.568 100.402 381.16 101.586 381.16C102.466 381.16 103.154 380.888 103.65 380.44L103.202 379.368ZM109.345 372.84C108.257 372.84 107.297 373.24 106.737 374.2V369.32H105.457V381H106.737V376.76C106.737 374.712 108.049 373.96 109.217 373.96C110.321 373.96 111.185 374.552 111.185 376.328V381H112.465V375.88C112.465 373.816 111.057 372.84 109.345 372.84ZM122.227 376.584C122.227 374.52 120.963 372.84 118.643 372.84C116.227 372.84 114.867 374.408 114.867 377C114.867 379.592 116.323 381.16 118.739 381.16C120.467 381.16 121.459 380.504 122.067 379.416L120.995 378.856C120.707 379.624 119.907 380.04 118.739 380.04C117.267 380.04 116.291 379.096 116.131 377.48H122.163C122.195 377.256 122.227 376.952 122.227 376.584ZM118.643 373.96C120.003 373.96 120.819 374.872 120.995 376.344H116.147C116.339 374.84 117.219 373.96 118.643 373.96ZM139.946 373L137.93 379.512L135.754 373H134.474L132.298 379.512L130.282 373H128.858L131.642 381H132.922L135.05 374.632L137.306 381H138.586L141.37 373H139.946ZM149.845 380.072C149.397 380.072 149.237 379.88 149.237 379.496V375.56C149.237 373.704 147.909 372.84 146.085 372.84C144.533 372.84 143.269 373.608 142.853 374.792L143.797 375.48C144.229 374.472 145.029 373.96 146.085 373.96C147.285 373.96 147.957 374.664 147.957 375.72V376.168L145.829 376.52C143.765 376.872 142.709 377.816 142.709 379.016C142.709 380.456 143.925 381.16 145.429 381.16C146.453 381.16 147.493 380.728 148.005 379.976C148.149 380.872 148.661 381.16 149.445 381.16C149.845 381.16 150.181 381.08 150.405 381L150.485 379.992C150.293 380.04 150.053 380.072 149.845 380.072ZM145.493 380.04C144.581 380.04 144.037 379.688 144.037 379.016C144.037 378.264 144.757 377.8 146.165 377.544L147.957 377.208V378.312C147.957 379.368 146.773 380.04 145.493 380.04ZM153.563 369.32H152.283V379.016C152.283 380.472 152.907 381.16 154.203 381.16C154.619 381.16 155.051 381.08 155.387 380.936L155.595 379.704C155.131 379.88 154.859 379.928 154.427 379.928C153.771 379.928 153.563 379.672 153.563 378.856V369.32ZM158.454 369.32H157.174V379.016C157.174 380.472 157.798 381.16 159.094 381.16C159.51 381.16 159.942 381.08 160.278 380.936L160.486 379.704C160.022 379.88 159.75 379.928 159.318 379.928C158.662 379.928 158.454 379.672 158.454 378.856V369.32ZM168.993 376.584C168.993 374.52 167.729 372.84 165.409 372.84C162.993 372.84 161.633 374.408 161.633 377C161.633 379.592 163.089 381.16 165.505 381.16C167.233 381.16 168.225 380.504 168.833 379.416L167.761 378.856C167.473 379.624 166.673 380.04 165.505 380.04C164.033 380.04 163.057 379.096 162.897 377.48H168.929C168.961 377.256 168.993 376.952 168.993 376.584ZM165.409 373.96C166.769 373.96 167.585 374.872 167.761 376.344H162.913C163.105 374.84 163.985 373.96 165.409 373.96ZM175.639 379.368C175.271 379.736 174.855 379.96 174.279 379.96C173.575 379.96 173.079 379.576 173.079 378.792V374.104H176.039V373H173.079V370.728L171.799 371.08V373H170.199V374.104H171.799V379.016C171.815 380.568 172.839 381.16 174.023 381.16C174.903 381.16 175.591 380.888 176.087 380.44L175.639 379.368ZM183.987 371.464C184.563 371.464 184.947 371.08 184.947 370.504C184.947 369.928 184.563 369.544 183.987 369.544C183.411 369.544 183.027 369.928 183.027 370.504C183.027 371.08 183.411 371.464 183.987 371.464ZM184.627 373H183.347V381H184.627V373ZM190.973 372.84C188.557 372.84 187.101 374.408 187.101 377C187.101 379.592 188.557 381.16 190.973 381.16C192.669 381.16 193.821 380.28 194.365 378.808L193.181 378.392C192.941 379.448 192.189 380.04 190.941 380.04C189.341 380.04 188.381 378.904 188.381 377C188.381 375.096 189.341 373.96 190.941 373.96C192.045 373.96 192.733 374.52 193.069 375.544L194.285 374.968C193.693 373.656 192.621 372.84 190.973 372.84ZM200.005 372.84C197.589 372.84 196.133 374.408 196.133 377C196.133 379.592 197.589 381.16 200.005 381.16C202.421 381.16 203.877 379.592 203.877 377C203.877 374.408 202.421 372.84 200.005 372.84ZM200.005 373.944C201.621 373.944 202.597 375.096 202.597 377C202.597 378.904 201.621 380.056 200.005 380.056C198.389 380.056 197.413 378.904 197.413 377C197.413 375.096 198.389 373.944 200.005 373.944ZM210.251 372.84C209.147 372.84 208.123 373.24 207.563 374.248L207.483 373H206.363V381H207.643V376.744C207.643 374.696 208.955 373.96 210.123 373.96C211.227 373.96 212.091 374.552 212.091 376.328V381H213.371V375.88C213.371 373.816 211.963 372.84 210.251 372.84ZM222.362 371.464C222.938 371.464 223.322 371.08 223.322 370.504C223.322 369.928 222.938 369.544 222.362 369.544C221.786 369.544 221.402 369.928 221.402 370.504C221.402 371.08 221.786 371.464 222.362 371.464ZM223.002 373H221.722V381H223.002V373ZM229.86 372.84C228.756 372.84 227.732 373.24 227.172 374.248L227.092 373H225.972V381H227.252V376.744C227.252 374.696 228.564 373.96 229.732 373.96C230.836 373.96 231.7 374.552 231.7 376.328V381H232.98V375.88C232.98 373.816 231.572 372.84 229.86 372.84ZM245.467 379.368C245.099 379.736 244.683 379.96 244.107 379.96C243.403 379.96 242.907 379.576 242.907 378.792V374.104H245.867V373H242.907V370.728L241.627 371.08V373H240.027V374.104H241.627V379.016C241.643 380.568 242.667 381.16 243.851 381.16C244.731 381.16 245.419 380.888 245.915 380.44L245.467 379.368ZM251.61 372.84C250.522 372.84 249.562 373.24 249.002 374.2V369.32H247.722V381H249.002V376.76C249.002 374.712 250.314 373.96 251.482 373.96C252.586 373.96 253.45 374.552 253.45 376.328V381H254.73V375.88C254.73 373.816 253.322 372.84 251.61 372.84ZM264.493 376.584C264.493 374.52 263.229 372.84 260.909 372.84C258.493 372.84 257.133 374.408 257.133 377C257.133 379.592 258.589 381.16 261.005 381.16C262.733 381.16 263.725 380.504 264.333 379.416L263.261 378.856C262.973 379.624 262.173 380.04 261.005 380.04C259.533 380.04 258.557 379.096 258.397 377.48H264.429C264.461 377.256 264.493 376.952 264.493 376.584ZM260.909 373.96C262.269 373.96 263.085 374.872 263.261 376.344H258.413C258.605 374.84 259.485 373.96 260.909 373.96ZM276.514 379.368C276.146 379.736 275.73 379.96 275.154 379.96C274.45 379.96 273.954 379.576 273.954 378.792V374.104H276.914V373H273.954V370.728L272.674 371.08V373H271.074V374.104H272.674V379.016C272.69 380.568 273.714 381.16 274.898 381.16C275.778 381.16 276.466 380.888 276.962 380.44L276.514 379.368ZM282.145 372.84C279.729 372.84 278.273 374.408 278.273 377C278.273 379.592 279.729 381.16 282.145 381.16C284.561 381.16 286.017 379.592 286.017 377C286.017 374.408 284.561 372.84 282.145 372.84ZM282.145 373.944C283.761 373.944 284.737 375.096 284.737 377C284.737 378.904 283.761 380.056 282.145 380.056C280.529 380.056 279.553 378.904 279.553 377C279.553 375.096 280.529 373.944 282.145 373.944ZM292.44 372.84C291.176 372.84 290.168 373.48 289.704 374.392L289.624 373H288.504V384.36H289.784V379.752C290.28 380.584 291.24 381.16 292.44 381.16C294.664 381.16 296.088 379.608 296.088 377C296.088 374.392 294.664 372.84 292.44 372.84ZM292.296 380.04C290.776 380.04 289.784 378.904 289.784 377.096V376.904C289.784 375.096 290.776 373.96 292.296 373.96C293.864 373.96 294.808 375.144 294.808 377C294.808 378.856 293.864 380.04 292.296 380.04ZM122.506 394.84C121.258 394.84 120.394 395.336 119.946 396.312L119.77 395H118.73V403H120.01V398.68C120.01 396.888 121.162 396.04 122.122 396.04C122.538 396.04 122.89 396.12 123.13 396.248L123.386 395C123.146 394.872 122.778 394.84 122.506 394.84ZM125.901 393.464C126.477 393.464 126.861 393.08 126.861 392.504C126.861 391.928 126.477 391.544 125.901 391.544C125.325 391.544 124.941 391.928 124.941 392.504C124.941 393.08 125.325 393.464 125.901 393.464ZM126.541 395H125.261V403H126.541V395ZM133.975 401.976H131.319C130.695 401.976 130.263 401.672 130.263 401.112C130.263 400.568 130.519 400.248 131.159 400.104C131.511 400.2 131.927 400.248 132.391 400.248C134.311 400.248 135.671 399.128 135.671 397.544C135.671 396.712 135.303 396.008 134.663 395.528C134.887 394.952 135.495 394.648 136.567 394.648L136.279 393.528C135.079 393.528 134.327 394.056 134.023 395.16C133.543 394.952 132.999 394.84 132.391 394.84C130.471 394.84 129.111 395.96 129.111 397.544C129.111 398.472 129.511 399.256 130.279 399.736C129.575 399.976 129.079 400.472 129.079 401.304C129.079 402.008 129.559 402.488 130.167 402.776C129.287 403.016 128.759 403.592 128.759 404.328C128.759 405.528 129.911 406.44 132.439 406.44C134.599 406.44 136.391 405.464 136.391 403.88C136.391 402.728 135.495 401.976 133.975 401.976ZM132.391 395.88C133.495 395.88 134.343 396.552 134.343 397.544C134.343 398.536 133.495 399.208 132.391 399.208C131.287 399.208 130.439 398.536 130.439 397.544C130.439 396.552 131.287 395.88 132.391 395.88ZM132.583 405.368C130.823 405.368 129.943 404.856 129.943 404.072C129.943 403.464 130.471 403.08 131.479 403.08H133.623C134.823 403.08 135.207 403.448 135.207 404.024C135.207 404.728 134.279 405.368 132.583 405.368ZM142.181 394.84C141.093 394.84 140.133 395.24 139.573 396.2V391.32H138.293V403H139.573V398.76C139.573 396.712 140.885 395.96 142.053 395.96C143.157 395.96 144.021 396.552 144.021 398.328V403H145.301V397.88C145.301 395.816 143.893 394.84 142.181 394.84ZM152.538 401.368C152.17 401.736 151.754 401.96 151.178 401.96C150.474 401.96 149.978 401.576 149.978 400.792V396.104H152.938V395H149.978V392.728L148.698 393.08V395H147.098V396.104H148.698V401.016C148.714 402.568 149.738 403.16 150.922 403.16C151.802 403.16 152.49 402.888 152.986 402.44L152.538 401.368ZM163.622 394.84C161.206 394.84 159.75 396.408 159.75 399C159.75 401.592 161.206 403.16 163.622 403.16C165.318 403.16 166.47 402.28 167.014 400.808L165.83 400.392C165.59 401.448 164.838 402.04 163.59 402.04C161.99 402.04 161.03 400.904 161.03 399C161.03 397.096 161.99 395.96 163.59 395.96C164.694 395.96 165.382 396.52 165.718 397.544L166.934 396.968C166.342 395.656 165.27 394.84 163.622 394.84ZM172.653 394.84C170.237 394.84 168.781 396.408 168.781 399C168.781 401.592 170.237 403.16 172.653 403.16C175.069 403.16 176.525 401.592 176.525 399C176.525 396.408 175.069 394.84 172.653 394.84ZM172.653 395.944C174.269 395.944 175.245 397.096 175.245 399C175.245 400.904 174.269 402.056 172.653 402.056C171.037 402.056 170.061 400.904 170.061 399C170.061 397.096 171.037 395.944 172.653 395.944ZM182.787 394.84C181.539 394.84 180.675 395.336 180.227 396.312L180.051 395H179.011V403H180.291V398.68C180.291 396.888 181.443 396.04 182.403 396.04C182.819 396.04 183.171 396.12 183.411 396.248L183.667 395C183.427 394.872 183.059 394.84 182.787 394.84ZM189.431 394.84C188.327 394.84 187.303 395.24 186.743 396.248L186.663 395H185.543V403H186.823V398.744C186.823 396.696 188.135 395.96 189.303 395.96C190.407 395.96 191.271 396.552 191.271 398.328V403H192.551V397.88C192.551 395.816 191.143 394.84 189.431 394.84ZM202.313 398.584C202.313 396.52 201.049 394.84 198.729 394.84C196.313 394.84 194.953 396.408 194.953 399C194.953 401.592 196.409 403.16 198.825 403.16C200.553 403.16 201.545 402.504 202.153 401.416L201.081 400.856C200.793 401.624 199.993 402.04 198.825 402.04C197.353 402.04 196.377 401.096 196.217 399.48H202.249C202.281 399.256 202.313 398.952 202.313 398.584ZM198.729 395.96C200.089 395.96 200.905 396.872 201.081 398.344H196.233C196.425 396.84 197.305 395.96 198.729 395.96ZM208.522 394.84C207.274 394.84 206.41 395.336 205.962 396.312L205.786 395H204.746V403H206.026V398.68C206.026 396.888 207.178 396.04 208.138 396.04C208.554 396.04 208.906 396.12 209.146 396.248L209.402 395C209.162 394.872 208.794 394.84 208.522 394.84ZM210.636 401.08C210.012 401.08 209.596 401.496 209.596 402.12C209.596 402.744 210.012 403.16 210.636 403.16C211.26 403.16 211.676 402.744 211.676 402.12C211.676 401.496 211.26 401.08 210.636 401.08Z" fill="white"/>
<defs>
<filter id="filter0_f_39944_5826" x="34.9131" y="4.91211" width="260.174" height="260.174" filterUnits="userSpaceOnUse" color-interpolation-filters="sRGB">
<feFlood flood-opacity="0" result="BackgroundImageFix"/>
<feBlend mode="normal" in="SourceGraphic" in2="BackgroundImageFix" result="shape"/>
<feGaussianBlur stdDeviation="27" result="effect1_foregroundBlur_39944_5826"/>
</filter>
<linearGradient id="paint0_linear_39944_5826" x1="89.8941" y1="30.834" x2="248.897" y2="63.9327" gradientUnits="userSpaceOnUse">
<stop stop-color="#A259FF"/>
<stop offset="1" stop-color="#3B3B3B"/>
</linearGradient>
<linearGradient id="paint1_linear_39944_5826" x1="113.551" y1="58.9121" x2="260.705" y2="87.2917" gradientUnits="userSpaceOnUse">
<stop stop-color="#A259FF" stop-opacity="0"/>
<stop offset="1" stop-color="#FF6250"/>
</linearGradient>
<linearGradient id="paint2_linear_39944_5826" x1="244.429" y1="208.49" x2="257.771" y2="218.969" gradientUnits="userSpaceOnUse">
<stop stop-color="#A259FF"/>
<stop offset="1" stop-color="#377DF7"/>
</linearGradient>
<linearGradient id="paint3_linear_39944_5826" x1="92.8952" y1="223.338" x2="92.4494" y2="236.614" gradientUnits="userSpaceOnUse">
<stop stop-color="#A259FF"/>
<stop offset="1" stop-color="#377DF7"/>
</linearGradient>
<linearGradient id="paint4_linear_39944_5826" x1="249.355" y1="70.9223" x2="262.616" y2="70.1618" gradientUnits="userSpaceOnUse">
<stop stop-color="#A259FF"/>
<stop offset="1" stop-color="#377DF7"/>
</linearGradient>
<linearGradient id="paint5_linear_39944_5826" x1="199.014" y1="131.437" x2="231.714" y2="137.091" gradientUnits="userSpaceOnUse">
<stop stop-color="#A259FF"/>
<stop offset="1" stop-color="#3B3B3B"/>
</linearGradient>
<linearGradient id="paint6_linear_39944_5826" x1="177.498" y1="213.71" x2="142.173" y2="144.339" gradientUnits="userSpaceOnUse">
<stop stop-color="#A259FF"/>
<stop offset="1" stop-color="#3B3B3B"/>
</linearGradient>
<linearGradient id="paint7_linear_39944_5826" x1="119.724" y1="95.054" x2="204.798" y2="87.7059" gradientUnits="userSpaceOnUse">
<stop stop-color="#A259FF"/>
<stop offset="1" stop-color="#FF6250"/>
</linearGradient>
<linearGradient id="paint8_linear_39944_5826" x1="185.173" y1="115.54" x2="194.102" y2="113.952" gradientUnits="userSpaceOnUse">
<stop stop-color="#A259FF"/>
<stop offset="1" stop-color="#FF6250"/>
</linearGradient>
<linearGradient id="paint9_linear_39944_5826" x1="190.46" y1="113.49" x2="199.389" y2="111.903" gradientUnits="userSpaceOnUse">
<stop stop-color="#A259FF"/>
<stop offset="1" stop-color="#3B3B3B"/>
</linearGradient>
<linearGradient id="paint10_linear_39944_5826" x1="118.904" y1="104.671" x2="134.873" y2="103.117" gradientUnits="userSpaceOnUse">
<stop stop-color="#A259FF"/>
<stop offset="1" stop-color="#3B3B3B"/>
</linearGradient>
<linearGradient id="paint11_linear_39944_5826" x1="135.197" y1="135.389" x2="141.23" y2="143.865" gradientUnits="userSpaceOnUse">
<stop stop-color="#A259FF"/>
<stop offset="1" stop-color="#FF6250"/>
</linearGradient>
<linearGradient id="paint12_linear_39944_5826" x1="135" y1="140.385" x2="141.619" y2="148.016" gradientUnits="userSpaceOnUse">
<stop stop-color="#A259FF"/>
<stop offset="1" stop-color="#FF6250"/>
</linearGradient>
<linearGradient id="paint13_linear_39944_5826" x1="124.164" y1="149.492" x2="205.898" y2="170.966" gradientUnits="userSpaceOnUse">
<stop stop-color="#A259FF"/>
<stop offset="1" stop-color="#3B3B3B"/>
</linearGradient>
<linearGradient id="paint14_linear_39944_5826" x1="185.194" y1="170.976" x2="43.6056" y2="103.024" gradientUnits="userSpaceOnUse">
<stop stop-color="#A259FF"/>
<stop offset="0.666667" stop-color="white"/>
</linearGradient>
<clipPath id="clip0_39944_5826">
<rect width="250" height="250" fill="white" transform="translate(40 10)"/>
</clipPath>
</defs>
</svg>
