<svg width="330" height="439" viewBox="0 0 330 439" fill="none" xmlns="http://www.w3.org/2000/svg">
<rect width="330" height="439" rx="20" fill="#3B3B3B"/>
<g clip-path="url(#clip0_39944_5874)">
<path d="M165 239.167C222.53 239.167 269.166 192.531 269.166 135.001C269.166 77.471 222.53 30.834 165 30.834C107.47 30.834 60.833 77.471 60.833 135.001C60.833 192.531 107.47 239.167 165 239.167Z" fill="url(#paint0_linear_39944_5874)"/>
<g filter="url(#filter0_f_39944_5874)">
<path d="M165 211.086C207.022 211.086 241.087 177.021 241.087 134.999C241.087 92.9774 207.022 58.9121 165 58.9121C122.978 58.9121 88.9131 92.9774 88.9131 134.999C88.9131 177.021 122.978 211.086 165 211.086Z" fill="url(#paint1_linear_39944_5874)"/>
</g>
<path fill-rule="evenodd" clip-rule="evenodd" d="M115.268 56.7206C117.011 56.7206 118.424 55.3078 118.424 53.5651C118.424 51.8224 117.011 50.4096 115.268 50.4096C113.526 50.4096 112.113 51.8224 112.113 53.5651C112.113 55.3078 113.526 56.7206 115.268 56.7206ZM115.268 59.0873C118.318 59.0873 120.79 56.6149 120.79 53.5651C120.79 50.5153 118.318 48.043 115.268 48.043C112.218 48.043 109.746 50.5153 109.746 53.5651C109.746 56.6149 112.218 59.0873 115.268 59.0873Z" fill="white"/>
<path fill-rule="evenodd" clip-rule="evenodd" d="M86.2828 189.873C88.0256 189.873 89.4384 188.46 89.4384 186.717C89.4384 184.974 88.0256 183.562 86.2828 183.562C84.5402 183.562 83.1274 184.974 83.1274 186.717C83.1274 188.46 84.5402 189.873 86.2828 189.873ZM86.2828 192.24C89.3327 192.24 91.805 189.767 91.805 186.717C91.805 183.667 89.3327 181.195 86.2828 181.195C83.2331 181.195 80.7607 183.667 80.7607 186.717C80.7607 189.767 83.2331 192.24 86.2828 192.24Z" fill="white"/>
<path fill-rule="evenodd" clip-rule="evenodd" d="M244.797 101.105C246.54 101.105 247.953 99.6926 247.953 97.9498C247.953 96.2072 246.54 94.7944 244.797 94.7944C243.054 94.7944 241.642 96.2072 241.642 97.9498C241.642 99.6926 243.054 101.105 244.797 101.105ZM244.797 103.472C247.847 103.472 250.32 100.999 250.32 97.9498C250.32 94.9001 247.847 92.4277 244.797 92.4277C241.747 92.4277 239.275 94.9001 239.275 97.9498C239.275 100.999 241.747 103.472 244.797 103.472Z" fill="white"/>
<path d="M79.3033 57.2719C79.5354 56.3104 80.903 56.3104 81.1351 57.2719L81.9162 60.508C81.9992 60.8515 82.2675 61.1198 82.6111 61.2028L85.8471 61.984C86.8086 62.216 86.8086 63.5837 85.8471 63.8158L82.6111 64.5969C82.2675 64.6799 81.9992 64.9481 81.9162 65.2917L81.1351 68.5278C80.903 69.4893 79.5354 69.4893 79.3033 68.5278L78.5221 65.2917C78.4392 64.9481 78.171 64.6799 77.8273 64.5969L74.5912 63.8158C73.6297 63.5837 73.6297 62.216 74.5912 61.984L77.8273 61.2028C78.171 61.1198 78.4392 60.8515 78.5221 60.508L79.3033 57.2719Z" fill="white"/>
<path d="M247.694 56.7318C247.948 55.6779 249.447 55.6779 249.701 56.7318L250.558 60.2789C250.649 60.6556 250.943 60.9497 251.319 61.0406L254.866 61.8969C255.921 62.1512 255.921 63.6503 254.866 63.9047L251.319 64.761C250.943 64.8519 250.649 65.146 250.558 65.5226L249.701 69.0698C249.447 70.1237 247.948 70.1237 247.694 69.0698L246.837 65.5226C246.747 65.146 246.452 64.8519 246.075 64.761L242.528 63.9047C241.475 63.6503 241.475 62.1512 242.528 61.8969L246.075 61.0406C246.452 60.9497 246.747 60.6556 246.837 60.2789L247.694 56.7318Z" fill="url(#paint2_linear_39944_5874)"/>
<path d="M89.8469 210.396C91.0461 210.204 92.0036 211.381 91.5702 212.516L88.6454 220.175C88.2121 221.31 86.713 221.55 85.9471 220.607L80.7769 214.244C80.0108 213.302 80.5525 211.884 81.7518 211.692L89.8469 210.396Z" fill="url(#paint3_linear_39944_5874)"/>
<path d="M233.82 189.355C233.52 188.177 234.606 187.117 235.776 187.445L243.669 189.663C244.837 189.992 245.213 191.463 244.344 192.311L238.477 198.038C237.607 198.886 236.146 198.475 235.845 197.298L233.82 189.355Z" fill="url(#paint4_linear_39944_5874)"/>
<path d="M205.316 149.369L134.984 123.77C129.592 121.808 123.631 124.588 121.669 129.979L105.066 175.595C103.104 180.986 105.883 186.947 111.275 188.909L181.608 214.509C186.999 216.471 192.96 213.691 194.922 208.3L211.525 162.684C213.487 157.292 210.707 151.331 205.316 149.369Z" fill="url(#paint5_linear_39944_5874)"/>
<path d="M202.461 163.499L223.237 133.572C226.509 128.859 225.341 122.386 220.629 119.115L190.702 98.3382C185.989 95.0663 179.516 96.2345 176.244 100.947L155.468 130.874C152.196 135.587 153.364 142.059 158.077 145.331L188.003 166.107C192.716 169.379 199.189 168.211 202.461 163.499Z" fill="url(#paint6_linear_39944_5874)"/>
<path d="M178.808 139.682C177.537 141.434 175.095 141.821 173.343 140.55C171.592 139.279 171.205 136.837 172.476 135.085C173.747 133.333 176.189 132.946 177.941 134.217C179.692 135.489 180.08 137.931 178.808 139.682Z" fill="url(#paint7_linear_39944_5874)"/>
<path d="M190.369 123.728L187.952 121.975L176.407 137.894L178.825 139.648L190.369 123.728Z" fill="url(#paint8_linear_39944_5874)"/>
<path d="M192.393 142.506C191.122 144.258 188.68 144.646 186.929 143.374C185.177 142.103 184.789 139.661 186.061 137.909C187.332 136.157 189.774 135.77 191.526 137.041C193.277 138.313 193.665 140.755 192.393 142.506Z" fill="url(#paint9_linear_39944_5874)"/>
<path d="M203.978 126.544L201.56 124.791L190.018 140.712L192.436 142.465L203.978 126.544Z" fill="url(#paint10_linear_39944_5874)"/>
<path d="M203.947 126.584L186.416 124.102L187.956 121.971L205.484 124.461L203.947 126.584Z" fill="url(#paint11_linear_39944_5874)"/>
<path d="M201.037 130.596L183.505 128.114L185.045 125.982L202.581 128.475L201.037 130.596Z" fill="url(#paint12_linear_39944_5874)"/>
<path d="M187.076 97.2561L180.992 69.0678C179.782 63.4597 174.253 59.8947 168.646 61.1052L131.785 69.0611C126.177 70.2716 122.612 75.7991 123.823 81.4072L129.907 109.595C131.118 115.203 136.645 118.768 142.253 117.558L179.113 109.602C184.722 108.392 188.286 102.864 187.076 97.2561Z" fill="url(#paint13_linear_39944_5874)"/>
<path d="M186.596 94.3574L165.933 77.7676L157.945 93.516L149.53 88.6648L137.896 104.86L129.17 106.74L129.585 108.693C130.988 115.176 137.376 119.3 143.859 117.897L177.797 110.573C184.279 109.171 188.404 102.783 187 96.3001L186.586 94.3574H186.596Z" fill="url(#paint14_linear_39944_5874)"/>
<path opacity="0.9" d="M137.688 86.7851C140.919 86.7019 143.007 83.4608 141.75 80.4898C141.043 78.8278 139.35 77.737 137.542 77.7785C134.312 77.8616 132.224 81.1028 133.481 84.0738C134.187 85.7358 135.88 86.8266 137.688 86.7851Z" fill="white"/>
<path d="M193.834 206.629C192.396 212.673 186.011 216.112 180.174 213.987L109.973 188.435C105.017 186.632 102.199 181.401 103.419 176.27L113.389 134.364C114.826 128.32 121.211 124.881 127.048 127.006L197.25 152.558C202.205 154.361 205.023 159.592 203.803 164.723L193.834 206.629Z" fill="url(#paint15_linear_39944_5874)"/>
</g>
<path d="M85.1882 298.996L82.3942 298.16C81.9322 299.898 80.7882 300.734 79.0502 300.734C76.6082 300.734 75.1782 298.952 75.1782 295.74C75.1782 292.506 76.6962 290.746 79.1162 290.746C80.7882 290.746 81.7562 291.428 82.2402 293.188L84.9902 292.022C84.1762 289.492 81.9542 288.26 78.9842 288.26C74.7382 288.26 72.0322 291.076 72.0322 295.74C72.0322 300.404 74.7162 303.22 79.0282 303.22C81.9762 303.22 84.3082 301.834 85.1882 298.996ZM93.6938 291.78C91.9778 291.78 90.8558 292.638 90.2838 294.156L90.0858 292H87.4678V303H90.4818V297.302C90.4818 295.3 91.8018 294.332 93.1218 294.332C93.6938 294.332 94.1998 294.464 94.5078 294.662L94.8818 292.022C94.6178 291.868 94.1778 291.78 93.6938 291.78ZM106.808 297.456C106.808 293.848 104.938 291.78 101.506 291.78C97.9642 291.78 95.9622 293.892 95.9622 297.5C95.9622 301.108 98.0302 303.22 101.682 303.22C104.168 303.22 105.862 302.274 106.566 300.514L104.102 299.612C103.794 300.492 102.958 300.976 101.682 300.976C100.208 300.976 99.2402 300.228 98.9322 298.644H106.72C106.764 298.358 106.808 297.764 106.808 297.456ZM101.484 294.002C102.87 294.002 103.794 294.882 104.036 296.532H98.9102C99.1522 294.86 100.032 294.002 101.484 294.002ZM119.393 301.174C118.821 301.174 118.579 300.91 118.579 300.338V295.828C118.579 293.1 116.643 291.78 113.585 291.78C110.901 291.78 109.251 292.968 108.789 294.838L111.187 295.85C111.517 294.464 112.441 293.98 113.717 293.98C114.905 293.98 115.587 294.728 115.587 295.894V296.422L112.947 296.928C109.999 297.478 108.657 298.688 108.657 300.404C108.657 302.252 109.977 303.22 112.067 303.22C113.915 303.22 115.301 302.648 115.961 301.57C116.269 302.758 117.171 303.22 118.491 303.22C119.041 303.22 119.525 303.11 119.921 302.912L120.141 301.086C119.921 301.152 119.657 301.174 119.393 301.174ZM113.013 301.174C112.221 301.174 111.759 300.8 111.759 300.096C111.759 299.37 112.265 299.018 113.233 298.798L115.587 298.27V299.414C115.587 300.58 114.157 301.174 113.013 301.174ZM128.626 300.316C128.164 300.712 127.658 300.932 126.932 300.932C125.986 300.932 125.414 300.47 125.414 299.414V294.244H128.978V292H125.414V288.634L122.4 289.47V292H120.398V294.244H122.4V299.898C122.4 302.318 123.896 303.22 126.074 303.22C127.24 303.22 128.384 302.89 129.088 302.318L128.626 300.316ZM141.248 297.456C141.248 293.848 139.378 291.78 135.946 291.78C132.404 291.78 130.402 293.892 130.402 297.5C130.402 301.108 132.47 303.22 136.122 303.22C138.608 303.22 140.302 302.274 141.006 300.514L138.542 299.612C138.234 300.492 137.398 300.976 136.122 300.976C134.648 300.976 133.68 300.228 133.372 298.644H141.16C141.204 298.358 141.248 297.764 141.248 297.456ZM135.924 294.002C137.31 294.002 138.234 294.882 138.476 296.532H133.35C133.592 294.86 134.472 294.002 135.924 294.002ZM163.241 298.996L160.447 298.16C159.985 299.898 158.841 300.734 157.103 300.734C154.661 300.734 153.231 298.952 153.231 295.74C153.231 292.506 154.749 290.746 157.169 290.746C158.841 290.746 159.809 291.428 160.293 293.188L163.043 292.022C162.229 289.492 160.007 288.26 157.037 288.26C152.791 288.26 150.085 291.076 150.085 295.74C150.085 300.404 152.769 303.22 157.081 303.22C160.029 303.22 162.361 301.834 163.241 298.996ZM170.581 291.78C167.039 291.78 164.949 293.914 164.949 297.5C164.949 301.086 167.039 303.22 170.581 303.22C174.123 303.22 176.213 301.086 176.213 297.5C176.213 293.914 174.123 291.78 170.581 291.78ZM170.581 294.024C172.275 294.024 173.199 295.168 173.199 297.5C173.199 299.832 172.275 300.976 170.581 300.976C168.887 300.976 167.963 299.832 167.963 297.5C167.963 295.168 168.887 294.024 170.581 294.024ZM181.768 287.182H178.754V299.942C178.754 302.23 179.7 303.22 181.834 303.22C182.56 303.22 183.396 303.044 183.88 302.758L184.144 300.668C183.66 300.844 183.352 300.91 182.846 300.91C182.032 300.91 181.768 300.536 181.768 299.502V287.182ZM188.793 287.182H185.779V299.942C185.779 302.23 186.725 303.22 188.859 303.22C189.585 303.22 190.421 303.044 190.905 302.758L191.169 300.668C190.685 300.844 190.377 300.91 189.871 300.91C189.057 300.91 188.793 300.536 188.793 299.502V287.182ZM203.123 297.456C203.123 293.848 201.253 291.78 197.821 291.78C194.279 291.78 192.277 293.892 192.277 297.5C192.277 301.108 194.345 303.22 197.997 303.22C200.483 303.22 202.177 302.274 202.881 300.514L200.417 299.612C200.109 300.492 199.273 300.976 197.997 300.976C196.523 300.976 195.555 300.228 195.247 298.644H203.035C203.079 298.358 203.123 297.764 203.123 297.456ZM197.799 294.002C199.185 294.002 200.109 294.882 200.351 296.532H195.225C195.467 294.86 196.347 294.002 197.799 294.002ZM210.691 291.78C207.171 291.78 205.081 293.892 205.081 297.5C205.081 301.108 207.149 303.22 210.801 303.22C213.595 303.22 215.311 301.856 215.773 299.898L213.045 299.018C212.825 300.272 212.077 300.976 210.757 300.976C209.129 300.976 208.095 299.876 208.095 297.522C208.095 295.212 209.063 294.024 210.779 294.024C211.945 294.024 212.649 294.706 212.913 296.026L215.729 295.014C215.201 293.21 213.793 291.78 210.691 291.78ZM225.263 300.316C224.801 300.712 224.295 300.932 223.569 300.932C222.623 300.932 222.051 300.47 222.051 299.414V294.244H225.615V292H222.051V288.634L219.037 289.47V292H217.035V294.244H219.037V299.898C219.037 302.318 220.533 303.22 222.711 303.22C223.877 303.22 225.021 302.89 225.725 302.318L225.263 300.316ZM229.128 290.416C230.382 290.416 230.998 289.888 230.998 288.81C230.998 287.732 230.382 287.182 229.128 287.182C227.874 287.182 227.258 287.732 227.258 288.81C227.258 289.888 227.874 290.416 229.128 290.416ZM230.624 292H227.61V303H230.624V292ZM238.879 291.78C235.337 291.78 233.247 293.914 233.247 297.5C233.247 301.086 235.337 303.22 238.879 303.22C242.421 303.22 244.511 301.086 244.511 297.5C244.511 293.914 242.421 291.78 238.879 291.78ZM238.879 294.024C240.573 294.024 241.497 295.168 241.497 297.5C241.497 299.832 240.573 300.976 238.879 300.976C237.185 300.976 236.261 299.832 236.261 297.5C236.261 295.168 237.185 294.024 238.879 294.024ZM253.653 291.78C252.003 291.78 250.639 292.484 249.913 293.958L249.803 292H247.097V303H250.111V297.192C250.111 294.992 251.365 294.156 252.641 294.156C253.785 294.156 254.599 294.772 254.599 296.664V303H257.613V295.784C257.613 293.122 255.941 291.78 253.653 291.78Z" fill="white"/>
<path d="M44.0212 326.44H42.7412V332.744C42.7412 334.952 41.8452 335.96 39.8772 335.96C37.9092 335.96 37.0132 334.952 37.0132 332.744V326.44H35.7332V333.064C35.7332 335.784 37.2212 337.16 39.8772 337.16C42.5492 337.16 44.0212 335.784 44.0212 333.064V326.44ZM50.9787 328.84C49.7147 328.84 48.7067 329.48 48.2427 330.392L48.1627 329H47.0427V340.36H48.3227V335.752C48.8187 336.584 49.7787 337.16 50.9787 337.16C53.2027 337.16 54.6267 335.608 54.6267 333C54.6267 330.392 53.2027 328.84 50.9787 328.84ZM50.8347 336.04C49.3147 336.04 48.3227 334.904 48.3227 333.096V332.904C48.3227 331.096 49.3147 329.96 50.8347 329.96C52.4027 329.96 53.3467 331.144 53.3467 333C53.3467 334.856 52.4027 336.04 50.8347 336.04ZM58.3368 325.32H57.0568V335.016C57.0568 336.472 57.6808 337.16 58.9768 337.16C59.3928 337.16 59.8248 337.08 60.1608 336.936L60.3688 335.704C59.9048 335.88 59.6328 335.928 59.2008 335.928C58.5448 335.928 58.3368 335.672 58.3368 334.856V325.32ZM65.3874 328.84C62.9714 328.84 61.5154 330.408 61.5154 333C61.5154 335.592 62.9714 337.16 65.3874 337.16C67.8034 337.16 69.2594 335.592 69.2594 333C69.2594 330.408 67.8034 328.84 65.3874 328.84ZM65.3874 329.944C67.0034 329.944 67.9794 331.096 67.9794 333C67.9794 334.904 67.0034 336.056 65.3874 336.056C63.7714 336.056 62.7954 334.904 62.7954 333C62.7954 331.096 63.7714 329.944 65.3874 329.944ZM78.3058 336.072C77.8578 336.072 77.6978 335.88 77.6978 335.496V331.56C77.6978 329.704 76.3698 328.84 74.5458 328.84C72.9938 328.84 71.7298 329.608 71.3138 330.792L72.2578 331.48C72.6898 330.472 73.4898 329.96 74.5458 329.96C75.7458 329.96 76.4178 330.664 76.4178 331.72V332.168L74.2898 332.52C72.2258 332.872 71.1698 333.816 71.1698 335.016C71.1698 336.456 72.3858 337.16 73.8898 337.16C74.9138 337.16 75.9538 336.728 76.4658 335.976C76.6098 336.872 77.1218 337.16 77.9058 337.16C78.3058 337.16 78.6418 337.08 78.8658 337L78.9458 335.992C78.7538 336.04 78.5138 336.072 78.3058 336.072ZM73.9538 336.04C73.0418 336.04 72.4978 335.688 72.4978 335.016C72.4978 334.264 73.2178 333.8 74.6258 333.544L76.4178 333.208V334.312C76.4178 335.368 75.2338 336.04 73.9538 336.04ZM86.6323 325.32V330.248C86.1363 329.416 85.1763 328.84 83.9763 328.84C81.7523 328.84 80.3283 330.392 80.3283 333C80.3283 335.608 81.7523 337.16 83.9763 337.16C85.2403 337.16 86.2483 336.52 86.7123 335.608L86.7923 337H87.9123V325.32H86.6323ZM84.1203 336.04C82.5523 336.04 81.6083 334.856 81.6083 333C81.6083 331.144 82.5523 329.96 84.1203 329.96C85.6403 329.96 86.6323 331.096 86.6323 332.904V333.096C86.6323 334.904 85.6403 336.04 84.1203 336.04ZM102.733 329H101.357L99.4853 334.056L98.9093 335.64L98.4133 334.216L96.4133 329H94.9573L98.3013 336.984L97.8853 338.024C97.4853 339.08 96.9893 339.32 96.4293 339.32C95.9813 339.32 95.5013 339.192 95.1333 338.68L94.6853 339.768C95.1333 340.248 95.6453 340.44 96.4453 340.44C97.6293 340.44 98.3493 339.912 98.9733 338.344L102.733 329ZM107.872 328.84C105.456 328.84 104 330.408 104 333C104 335.592 105.456 337.16 107.872 337.16C110.288 337.16 111.744 335.592 111.744 333C111.744 330.408 110.288 328.84 107.872 328.84ZM107.872 329.944C109.488 329.944 110.464 331.096 110.464 333C110.464 334.904 109.488 336.056 107.872 336.056C106.256 336.056 105.28 334.904 105.28 333C105.28 331.096 106.256 329.944 107.872 329.944ZM119.878 329V333.352C119.878 335.24 118.678 336.04 117.318 336.04C116.166 336.04 115.43 335.544 115.43 333.896V329H114.15V334.232C114.15 336.344 115.51 337.16 117.094 337.16C118.374 337.16 119.398 336.744 119.958 335.784L120.038 337H121.158V329H119.878ZM127.912 328.84C126.664 328.84 125.8 329.336 125.352 330.312L125.176 329H124.136V337H125.416V332.68C125.416 330.888 126.568 330.04 127.528 330.04C127.944 330.04 128.296 330.12 128.536 330.248L128.792 329C128.552 328.872 128.184 328.84 127.912 328.84ZM145.578 329L143.562 335.512L141.386 329H140.106L137.93 335.512L135.914 329H134.49L137.274 337H138.554L140.682 330.632L142.938 337H144.218L147.002 329H145.578ZM152.216 328.84C149.8 328.84 148.344 330.408 148.344 333C148.344 335.592 149.8 337.16 152.216 337.16C154.632 337.16 156.088 335.592 156.088 333C156.088 330.408 154.632 328.84 152.216 328.84ZM152.216 329.944C153.832 329.944 154.808 331.096 154.808 333C154.808 334.904 153.832 336.056 152.216 336.056C150.6 336.056 149.624 334.904 149.624 333C149.624 331.096 150.6 329.944 152.216 329.944ZM162.35 328.84C161.102 328.84 160.238 329.336 159.79 330.312L159.614 329H158.574V337H159.854V332.68C159.854 330.888 161.006 330.04 161.966 330.04C162.382 330.04 162.734 330.12 162.974 330.248L163.23 329C162.99 328.872 162.622 328.84 162.35 328.84ZM170.769 337H172.321L169.009 332.12L172.129 329H170.529L166.385 333.144V325.32H165.105V337H166.385V334.744L168.081 333.048L170.769 337ZM185.837 336.072C185.389 336.072 185.229 335.88 185.229 335.496V331.56C185.229 329.704 183.901 328.84 182.077 328.84C180.525 328.84 179.261 329.608 178.845 330.792L179.789 331.48C180.221 330.472 181.021 329.96 182.077 329.96C183.277 329.96 183.949 330.664 183.949 331.72V332.168L181.821 332.52C179.757 332.872 178.701 333.816 178.701 335.016C178.701 336.456 179.917 337.16 181.421 337.16C182.445 337.16 183.485 336.728 183.997 335.976C184.141 336.872 184.653 337.16 185.437 337.16C185.837 337.16 186.173 337.08 186.397 337L186.477 335.992C186.285 336.04 186.045 336.072 185.837 336.072ZM181.485 336.04C180.573 336.04 180.029 335.688 180.029 335.016C180.029 334.264 180.749 333.8 182.157 333.544L183.949 333.208V334.312C183.949 335.368 182.765 336.04 181.485 336.04ZM192.228 328.84C191.124 328.84 190.1 329.24 189.54 330.248L189.46 329H188.34V337H189.62V332.744C189.62 330.696 190.932 329.96 192.1 329.96C193.204 329.96 194.068 330.552 194.068 332.328V337H195.348V331.88C195.348 329.816 193.94 328.84 192.228 328.84ZM204.07 325.32V330.248C203.574 329.416 202.614 328.84 201.414 328.84C199.19 328.84 197.766 330.392 197.766 333C197.766 335.608 199.19 337.16 201.414 337.16C202.678 337.16 203.686 336.52 204.15 335.608L204.23 337H205.35V325.32H204.07ZM201.558 336.04C199.99 336.04 199.046 334.856 199.046 333C199.046 331.144 199.99 329.96 201.558 329.96C203.078 329.96 204.07 331.096 204.07 332.904V333.096C204.07 334.904 203.078 336.04 201.558 336.04ZM216.497 337.16C218.545 337.16 219.841 336.184 219.841 334.792C219.841 333.48 219.041 332.808 216.801 332.44C215.169 332.168 214.641 331.816 214.641 331.128C214.641 330.536 215.441 329.96 216.513 329.96C217.521 329.96 218.241 330.344 218.593 331.4L219.681 330.76C219.233 329.448 218.225 328.84 216.513 328.84C214.561 328.84 213.361 329.944 213.361 331.24C213.361 332.584 214.193 333.208 216.465 333.624C218.065 333.912 218.561 334.264 218.561 334.856C218.561 335.512 217.937 336.04 216.625 336.04C215.473 336.04 214.481 335.608 214.097 334.632L213.057 335.352C213.665 336.584 215.025 337.16 216.497 337.16ZM229.079 332.584C229.079 330.52 227.815 328.84 225.495 328.84C223.079 328.84 221.719 330.408 221.719 333C221.719 335.592 223.175 337.16 225.591 337.16C227.319 337.16 228.311 336.504 228.919 335.416L227.847 334.856C227.559 335.624 226.759 336.04 225.591 336.04C224.119 336.04 223.143 335.096 222.983 333.48H229.015C229.047 333.256 229.079 332.952 229.079 332.584ZM225.495 329.96C226.855 329.96 227.671 330.872 227.847 332.344H222.999C223.191 330.84 224.071 329.96 225.495 329.96ZM235.725 335.368C235.357 335.736 234.941 335.96 234.365 335.96C233.661 335.96 233.165 335.576 233.165 334.792V330.104H236.125V329H233.165V326.728L231.885 327.08V329H230.285V330.104H231.885V335.016C231.901 336.568 232.925 337.16 234.109 337.16C234.989 337.16 235.677 336.888 236.173 336.44L235.725 335.368ZM243.628 329V333.352C243.628 335.24 242.428 336.04 241.068 336.04C239.916 336.04 239.18 335.544 239.18 333.896V329H237.9V334.232C237.9 336.344 239.26 337.16 240.844 337.16C242.124 337.16 243.148 336.744 243.708 335.784L243.788 337H244.908V329H243.628ZM251.822 328.84C250.558 328.84 249.55 329.48 249.086 330.392L249.006 329H247.886V340.36H249.166V335.752C249.662 336.584 250.622 337.16 251.822 337.16C254.046 337.16 255.47 335.608 255.47 333C255.47 330.392 254.046 328.84 251.822 328.84ZM251.678 336.04C250.158 336.04 249.166 334.904 249.166 333.096V332.904C249.166 331.096 250.158 329.96 251.678 329.96C253.246 329.96 254.19 331.144 254.19 333C254.19 334.856 253.246 336.04 251.678 336.04ZM269.811 329H268.435L266.563 334.056L265.987 335.64L265.491 334.216L263.491 329H262.035L265.379 336.984L264.963 338.024C264.563 339.08 264.067 339.32 263.507 339.32C263.059 339.32 262.579 339.192 262.211 338.68L261.763 339.768C262.211 340.248 262.723 340.44 263.523 340.44C264.707 340.44 265.427 339.912 266.051 338.344L269.811 329ZM274.95 328.84C272.534 328.84 271.078 330.408 271.078 333C271.078 335.592 272.534 337.16 274.95 337.16C277.366 337.16 278.822 335.592 278.822 333C278.822 330.408 277.366 328.84 274.95 328.84ZM274.95 329.944C276.566 329.944 277.542 331.096 277.542 333C277.542 334.904 276.566 336.056 274.95 336.056C273.334 336.056 272.358 334.904 272.358 333C272.358 331.096 273.334 329.944 274.95 329.944ZM286.956 329V333.352C286.956 335.24 285.756 336.04 284.396 336.04C283.244 336.04 282.508 335.544 282.508 333.896V329H281.228V334.232C281.228 336.344 282.588 337.16 284.172 337.16C285.452 337.16 286.476 336.744 287.036 335.784L287.116 337H288.236V329H286.956ZM294.991 328.84C293.743 328.84 292.879 329.336 292.431 330.312L292.255 329H291.215V337H292.495V332.68C292.495 330.888 293.647 330.04 294.607 330.04C295.023 330.04 295.375 330.12 295.615 330.248L295.871 329C295.631 328.872 295.263 328.84 294.991 328.84ZM55.3093 350.84C52.8933 350.84 51.4373 352.408 51.4373 355C51.4373 357.592 52.8933 359.16 55.3093 359.16C57.0053 359.16 58.1573 358.28 58.7013 356.808L57.5173 356.392C57.2773 357.448 56.5253 358.04 55.2773 358.04C53.6773 358.04 52.7173 356.904 52.7173 355C52.7173 353.096 53.6773 351.96 55.2773 351.96C56.3813 351.96 57.0693 352.52 57.4053 353.544L58.6213 352.968C58.0293 351.656 56.9573 350.84 55.3093 350.84ZM64.3406 350.84C61.9246 350.84 60.4686 352.408 60.4686 355C60.4686 357.592 61.9246 359.16 64.3406 359.16C66.7566 359.16 68.2126 357.592 68.2126 355C68.2126 352.408 66.7566 350.84 64.3406 350.84ZM64.3406 351.944C65.9566 351.944 66.9326 353.096 66.9326 355C66.9326 356.904 65.9566 358.056 64.3406 358.056C62.7246 358.056 61.7486 356.904 61.7486 355C61.7486 353.096 62.7246 351.944 64.3406 351.944ZM71.9149 347.32H70.6349V357.016C70.6349 358.472 71.2589 359.16 72.5549 359.16C72.9709 359.16 73.4029 359.08 73.7389 358.936L73.9469 357.704C73.4829 357.88 73.2109 357.928 72.7789 357.928C72.1229 357.928 71.9149 357.672 71.9149 356.856V347.32ZM76.8056 347.32H75.5256V357.016C75.5256 358.472 76.1496 359.16 77.4456 359.16C77.8616 359.16 78.2936 359.08 78.6296 358.936L78.8376 357.704C78.3736 357.88 78.1016 357.928 77.6696 357.928C77.0136 357.928 76.8056 357.672 76.8056 356.856V347.32ZM87.3442 354.584C87.3442 352.52 86.0802 350.84 83.7602 350.84C81.3442 350.84 79.9842 352.408 79.9842 355C79.9842 357.592 81.4402 359.16 83.8562 359.16C85.5842 359.16 86.5762 358.504 87.1842 357.416L86.1122 356.856C85.8242 357.624 85.0242 358.04 83.8562 358.04C82.3842 358.04 81.4082 357.096 81.2482 355.48H87.2802C87.3122 355.256 87.3442 354.952 87.3442 354.584ZM83.7602 351.96C85.1202 351.96 85.9362 352.872 86.1122 354.344H81.2642C81.4562 352.84 82.3362 351.96 83.7602 351.96ZM93.1531 350.84C90.7371 350.84 89.2811 352.408 89.2811 355C89.2811 357.592 90.7371 359.16 93.1531 359.16C94.8491 359.16 96.0011 358.28 96.5451 356.808L95.3611 356.392C95.1211 357.448 94.3691 358.04 93.1211 358.04C91.5211 358.04 90.5611 356.904 90.5611 355C90.5611 353.096 91.5211 351.96 93.1211 351.96C94.2251 351.96 94.9131 352.52 95.2491 353.544L96.4651 352.968C95.8731 351.656 94.8011 350.84 93.1531 350.84ZM103.256 357.368C102.888 357.736 102.472 357.96 101.896 357.96C101.192 357.96 100.696 357.576 100.696 356.792V352.104H103.656V351H100.696V348.728L99.4163 349.08V351H97.8163V352.104H99.4163V357.016C99.4323 358.568 100.456 359.16 101.64 359.16C102.52 359.16 103.208 358.888 103.704 358.44L103.256 357.368ZM106.151 349.464C106.727 349.464 107.111 349.08 107.111 348.504C107.111 347.928 106.727 347.544 106.151 347.544C105.575 347.544 105.191 347.928 105.191 348.504C105.191 349.08 105.575 349.464 106.151 349.464ZM106.791 351H105.511V359H106.791V351ZM113.137 350.84C110.721 350.84 109.265 352.408 109.265 355C109.265 357.592 110.721 359.16 113.137 359.16C115.553 359.16 117.009 357.592 117.009 355C117.009 352.408 115.553 350.84 113.137 350.84ZM113.137 351.944C114.753 351.944 115.729 353.096 115.729 355C115.729 356.904 114.753 358.056 113.137 358.056C111.521 358.056 110.545 356.904 110.545 355C110.545 353.096 111.521 351.944 113.137 351.944ZM123.384 350.84C122.28 350.84 121.256 351.24 120.696 352.248L120.616 351H119.496V359H120.776V354.744C120.776 352.696 122.088 351.96 123.256 351.96C124.36 351.96 125.224 352.552 125.224 354.328V359H126.504V353.88C126.504 351.816 125.096 350.84 123.384 350.84ZM130.042 357.08C129.418 357.08 129.002 357.496 129.002 358.12C129.002 358.744 129.418 359.16 130.042 359.16C130.666 359.16 131.082 358.744 131.082 358.12C131.082 357.496 130.666 357.08 130.042 357.08ZM145.761 359H147.121L143.025 348.44H141.505L137.393 359H138.737L139.857 356.072H144.641L145.761 359ZM140.321 354.872L141.761 351.08L142.225 349.656H142.257L142.753 351.128L144.177 354.872H140.321ZM154.71 347.32V352.248C154.214 351.416 153.254 350.84 152.054 350.84C149.83 350.84 148.406 352.392 148.406 355C148.406 357.608 149.83 359.16 152.054 359.16C153.318 359.16 154.326 358.52 154.79 357.608L154.87 359H155.99V347.32H154.71ZM152.198 358.04C150.63 358.04 149.686 356.856 149.686 355C149.686 353.144 150.63 351.96 152.198 351.96C153.718 351.96 154.71 353.096 154.71 354.904V355.096C154.71 356.904 153.718 358.04 152.198 358.04ZM164.789 347.32V352.248C164.293 351.416 163.333 350.84 162.133 350.84C159.909 350.84 158.485 352.392 158.485 355C158.485 357.608 159.909 359.16 162.133 359.16C163.397 359.16 164.405 358.52 164.869 357.608L164.949 359H166.069V347.32H164.789ZM162.277 358.04C160.709 358.04 159.765 356.856 159.765 355C159.765 353.144 160.709 351.96 162.277 351.96C163.797 351.96 164.789 353.096 164.789 354.904V355.096C164.789 356.904 163.797 358.04 162.277 358.04ZM181.056 358.072C180.608 358.072 180.448 357.88 180.448 357.496V353.56C180.448 351.704 179.12 350.84 177.296 350.84C175.744 350.84 174.48 351.608 174.064 352.792L175.008 353.48C175.44 352.472 176.24 351.96 177.296 351.96C178.496 351.96 179.168 352.664 179.168 353.72V354.168L177.04 354.52C174.976 354.872 173.92 355.816 173.92 357.016C173.92 358.456 175.136 359.16 176.64 359.16C177.664 359.16 178.704 358.728 179.216 357.976C179.36 358.872 179.872 359.16 180.656 359.16C181.056 359.16 181.392 359.08 181.616 359L181.696 357.992C181.504 358.04 181.264 358.072 181.056 358.072ZM176.704 358.04C175.792 358.04 175.248 357.688 175.248 357.016C175.248 356.264 175.968 355.8 177.376 355.544L179.168 355.208V356.312C179.168 357.368 177.984 358.04 176.704 358.04ZM194.46 347.32V352.248C193.964 351.416 193.004 350.84 191.804 350.84C189.58 350.84 188.156 352.392 188.156 355C188.156 357.608 189.58 359.16 191.804 359.16C193.068 359.16 194.076 358.52 194.54 357.608L194.62 359H195.74V347.32H194.46ZM191.948 358.04C190.38 358.04 189.436 356.856 189.436 355C189.436 353.144 190.38 351.96 191.948 351.96C193.468 351.96 194.46 353.096 194.46 354.904V355.096C194.46 356.904 193.468 358.04 191.948 358.04ZM205.579 354.584C205.579 352.52 204.315 350.84 201.995 350.84C199.579 350.84 198.219 352.408 198.219 355C198.219 357.592 199.675 359.16 202.091 359.16C203.819 359.16 204.811 358.504 205.419 357.416L204.347 356.856C204.059 357.624 203.259 358.04 202.091 358.04C200.619 358.04 199.643 357.096 199.483 355.48H205.515C205.547 355.256 205.579 354.952 205.579 354.584ZM201.995 351.96C203.355 351.96 204.171 352.872 204.347 354.344H199.499C199.691 352.84 200.571 351.96 201.995 351.96ZM210.731 359.16C212.779 359.16 214.075 358.184 214.075 356.792C214.075 355.48 213.275 354.808 211.035 354.44C209.403 354.168 208.875 353.816 208.875 353.128C208.875 352.536 209.675 351.96 210.747 351.96C211.755 351.96 212.475 352.344 212.827 353.4L213.915 352.76C213.467 351.448 212.459 350.84 210.747 350.84C208.795 350.84 207.595 351.944 207.595 353.24C207.595 354.584 208.427 355.208 210.699 355.624C212.299 355.912 212.795 356.264 212.795 356.856C212.795 357.512 212.171 358.04 210.859 358.04C209.707 358.04 208.715 357.608 208.331 356.632L207.291 357.352C207.899 358.584 209.259 359.16 210.731 359.16ZM219.825 350.84C217.409 350.84 215.953 352.408 215.953 355C215.953 357.592 217.409 359.16 219.825 359.16C221.521 359.16 222.673 358.28 223.217 356.808L222.033 356.392C221.793 357.448 221.041 358.04 219.793 358.04C218.193 358.04 217.233 356.904 217.233 355C217.233 353.096 218.193 351.96 219.793 351.96C220.897 351.96 221.585 352.52 221.921 353.544L223.137 352.968C222.545 351.656 221.473 350.84 219.825 350.84ZM229.256 350.84C228.008 350.84 227.144 351.336 226.696 352.312L226.52 351H225.48V359H226.76V354.68C226.76 352.888 227.912 352.04 228.872 352.04C229.288 352.04 229.64 352.12 229.88 352.248L230.136 351C229.896 350.872 229.528 350.84 229.256 350.84ZM232.651 349.464C233.227 349.464 233.611 349.08 233.611 348.504C233.611 347.928 233.227 347.544 232.651 347.544C232.075 347.544 231.691 347.928 231.691 348.504C231.691 349.08 232.075 349.464 232.651 349.464ZM233.291 351H232.011V359H233.291V351ZM240.197 350.84C238.933 350.84 237.925 351.48 237.461 352.392L237.381 351H236.261V362.36H237.541V357.752C238.037 358.584 238.997 359.16 240.197 359.16C242.421 359.16 243.845 357.608 243.845 355C243.845 352.392 242.421 350.84 240.197 350.84ZM240.053 358.04C238.533 358.04 237.541 356.904 237.541 355.096V354.904C237.541 353.096 238.533 351.96 240.053 351.96C241.621 351.96 242.565 353.144 242.565 355C242.565 356.856 241.621 358.04 240.053 358.04ZM250.647 357.368C250.279 357.736 249.863 357.96 249.287 357.96C248.583 357.96 248.087 357.576 248.087 356.792V352.104H251.047V351H248.087V348.728L246.807 349.08V351H245.207V352.104H246.807V357.016C246.823 358.568 247.847 359.16 249.031 359.16C249.911 359.16 250.599 358.888 251.095 358.44L250.647 357.368ZM253.542 349.464C254.118 349.464 254.502 349.08 254.502 348.504C254.502 347.928 254.118 347.544 253.542 347.544C252.966 347.544 252.582 347.928 252.582 348.504C252.582 349.08 252.966 349.464 253.542 349.464ZM254.182 351H252.902V359H254.182V351ZM260.528 350.84C258.112 350.84 256.656 352.408 256.656 355C256.656 357.592 258.112 359.16 260.528 359.16C262.944 359.16 264.4 357.592 264.4 355C264.4 352.408 262.944 350.84 260.528 350.84ZM260.528 351.944C262.144 351.944 263.12 353.096 263.12 355C263.12 356.904 262.144 358.056 260.528 358.056C258.912 358.056 257.936 356.904 257.936 355C257.936 353.096 258.912 351.944 260.528 351.944ZM270.774 350.84C269.67 350.84 268.646 351.24 268.086 352.248L268.006 351H266.886V359H268.166V354.744C268.166 352.696 269.478 351.96 270.646 351.96C271.75 351.96 272.614 352.552 272.614 354.328V359H273.894V353.88C273.894 351.816 272.486 350.84 270.774 350.84ZM277.433 357.08C276.857 357.08 276.393 357.576 276.393 358.152C276.393 358.84 276.889 359.16 277.273 359.16C277.529 359.16 277.641 359.112 277.721 359.048L277.785 359.08C277.641 359.752 277.081 360.424 276.217 360.712L276.889 361.336C278.105 360.76 278.633 359.704 278.633 358.632C278.633 357.72 278.185 357.08 277.433 357.08ZM63.1846 381.16C65.2326 381.16 66.5286 380.184 66.5286 378.792C66.5286 377.48 65.7286 376.808 63.4886 376.44C61.8566 376.168 61.3286 375.816 61.3286 375.128C61.3286 374.536 62.1286 373.96 63.2006 373.96C64.2086 373.96 64.9286 374.344 65.2806 375.4L66.3686 374.76C65.9206 373.448 64.9126 372.84 63.2006 372.84C61.2486 372.84 60.0486 373.944 60.0486 375.24C60.0486 376.584 60.8806 377.208 63.1526 377.624C64.7526 377.912 65.2486 378.264 65.2486 378.856C65.2486 379.512 64.6246 380.04 63.3126 380.04C62.1606 380.04 61.1686 379.608 60.7846 378.632L59.7446 379.352C60.3526 380.584 61.7126 381.16 63.1846 381.16ZM72.2781 372.84C69.8621 372.84 68.4061 374.408 68.4061 377C68.4061 379.592 69.8621 381.16 72.2781 381.16C74.6941 381.16 76.1501 379.592 76.1501 377C76.1501 374.408 74.6941 372.84 72.2781 372.84ZM72.2781 373.944C73.8941 373.944 74.8701 375.096 74.8701 377C74.8701 378.904 73.8941 380.056 72.2781 380.056C70.6621 380.056 69.6861 378.904 69.6861 377C69.6861 375.096 70.6621 373.944 72.2781 373.944ZM82.0124 372.84C79.5964 372.84 78.1404 374.408 78.1404 377C78.1404 379.592 79.5964 381.16 82.0124 381.16C83.7084 381.16 84.8604 380.28 85.4044 378.808L84.2204 378.392C83.9804 379.448 83.2284 380.04 81.9804 380.04C80.3804 380.04 79.4204 378.904 79.4204 377C79.4204 375.096 80.3804 373.96 81.9804 373.96C83.0844 373.96 83.7724 374.52 84.1084 375.544L85.3244 374.968C84.7324 373.656 83.6604 372.84 82.0124 372.84ZM88.3077 371.464C88.8837 371.464 89.2677 371.08 89.2677 370.504C89.2677 369.928 88.8837 369.544 88.3077 369.544C87.7317 369.544 87.3477 369.928 87.3477 370.504C87.3477 371.08 87.7317 371.464 88.3077 371.464ZM88.9477 373H87.6677V381H88.9477V373ZM98.4777 380.072C98.0297 380.072 97.8697 379.88 97.8697 379.496V375.56C97.8697 373.704 96.5417 372.84 94.7177 372.84C93.1657 372.84 91.9017 373.608 91.4857 374.792L92.4297 375.48C92.8617 374.472 93.6617 373.96 94.7177 373.96C95.9177 373.96 96.5897 374.664 96.5897 375.72V376.168L94.4617 376.52C92.3977 376.872 91.3417 377.816 91.3417 379.016C91.3417 380.456 92.5577 381.16 94.0617 381.16C95.0857 381.16 96.1257 380.728 96.6377 379.976C96.7817 380.872 97.2937 381.16 98.0777 381.16C98.4777 381.16 98.8137 381.08 99.0377 381L99.1177 379.992C98.9257 380.04 98.6857 380.072 98.4777 380.072ZM94.1257 380.04C93.2137 380.04 92.6697 379.688 92.6697 379.016C92.6697 378.264 93.3897 377.8 94.7977 377.544L96.5897 377.208V378.312C96.5897 379.368 95.4057 380.04 94.1257 380.04ZM102.196 369.32H100.916V379.016C100.916 380.472 101.54 381.16 102.836 381.16C103.252 381.16 103.684 381.08 104.02 380.936L104.228 379.704C103.764 379.88 103.492 379.928 103.06 379.928C102.404 379.928 102.196 379.672 102.196 378.856V369.32ZM111.977 369.32H110.697V379.016C110.697 380.472 111.321 381.16 112.617 381.16C113.033 381.16 113.465 381.08 113.801 380.936L114.009 379.704C113.545 379.88 113.273 379.928 112.841 379.928C112.185 379.928 111.977 379.672 111.977 378.856V369.32ZM116.292 371.464C116.868 371.464 117.252 371.08 117.252 370.504C117.252 369.928 116.868 369.544 116.292 369.544C115.716 369.544 115.332 369.928 115.332 370.504C115.332 371.08 115.716 371.464 116.292 371.464ZM116.932 373H115.652V381H116.932V373ZM123.79 372.84C122.686 372.84 121.662 373.24 121.102 374.248L121.022 373H119.902V381H121.182V376.744C121.182 374.696 122.494 373.96 123.662 373.96C124.766 373.96 125.63 374.552 125.63 376.328V381H126.91V375.88C126.91 373.816 125.502 372.84 123.79 372.84ZM135.472 381H137.024L133.712 376.12L136.832 373H135.232L131.088 377.144V369.32H129.808V381H131.088V378.744L132.784 377.048L135.472 381ZM141.435 381.16C143.483 381.16 144.779 380.184 144.779 378.792C144.779 377.48 143.979 376.808 141.739 376.44C140.107 376.168 139.579 375.816 139.579 375.128C139.579 374.536 140.379 373.96 141.451 373.96C142.459 373.96 143.179 374.344 143.531 375.4L144.619 374.76C144.171 373.448 143.163 372.84 141.451 372.84C139.499 372.84 138.299 373.944 138.299 375.24C138.299 376.584 139.131 377.208 141.403 377.624C143.003 377.912 143.499 378.264 143.499 378.856C143.499 379.512 142.875 380.04 141.563 380.04C140.411 380.04 139.419 379.608 139.035 378.632L137.995 379.352C138.603 380.584 139.963 381.16 141.435 381.16ZM159.165 380.072C158.717 380.072 158.557 379.88 158.557 379.496V375.56C158.557 373.704 157.229 372.84 155.405 372.84C153.853 372.84 152.589 373.608 152.173 374.792L153.117 375.48C153.549 374.472 154.349 373.96 155.405 373.96C156.605 373.96 157.277 374.664 157.277 375.72V376.168L155.149 376.52C153.085 376.872 152.029 377.816 152.029 379.016C152.029 380.456 153.245 381.16 154.749 381.16C155.773 381.16 156.813 380.728 157.325 379.976C157.469 380.872 157.981 381.16 158.765 381.16C159.165 381.16 159.501 381.08 159.725 381L159.805 379.992C159.613 380.04 159.373 380.072 159.165 380.072ZM154.813 380.04C153.901 380.04 153.357 379.688 153.357 379.016C153.357 378.264 154.077 377.8 155.485 377.544L157.277 377.208V378.312C157.277 379.368 156.093 380.04 154.813 380.04ZM165.556 372.84C164.452 372.84 163.428 373.24 162.868 374.248L162.788 373H161.668V381H162.948V376.744C162.948 374.696 164.26 373.96 165.428 373.96C166.532 373.96 167.396 374.552 167.396 376.328V381H168.676V375.88C168.676 373.816 167.268 372.84 165.556 372.84ZM177.398 369.32V374.248C176.902 373.416 175.942 372.84 174.742 372.84C172.518 372.84 171.094 374.392 171.094 377C171.094 379.608 172.518 381.16 174.742 381.16C176.006 381.16 177.014 380.52 177.478 379.608L177.558 381H178.678V369.32H177.398ZM174.886 380.04C173.318 380.04 172.374 378.856 172.374 377C172.374 375.144 173.318 373.96 174.886 373.96C176.406 373.96 177.398 375.096 177.398 376.904V377.096C177.398 378.904 176.406 380.04 174.886 380.04ZM190.168 370.408C190.536 370.408 190.824 370.488 191.08 370.648L191.416 369.608C191.128 369.368 190.616 369.24 190.056 369.24C188.296 369.24 187.432 370.232 187.432 371.656V373H185.832V374.104H187.432V381H188.712V374.104H191.384V373H188.712V371.784C188.712 370.824 189.24 370.408 190.168 370.408ZM195.176 379.928C194.52 379.928 194.312 379.672 194.312 378.856V369.32H193.032V379.016C193.032 380.472 193.656 381.16 194.952 381.16C195.368 381.16 195.8 381.08 196.136 380.936L196.344 379.704C195.88 379.88 195.608 379.928 195.176 379.928ZM201.372 372.84C198.956 372.84 197.5 374.408 197.5 377C197.5 379.592 198.956 381.16 201.372 381.16C203.788 381.16 205.244 379.592 205.244 377C205.244 374.408 203.788 372.84 201.372 372.84ZM201.372 373.944C202.988 373.944 203.964 375.096 203.964 377C203.964 378.904 202.988 380.056 201.372 380.056C199.756 380.056 198.78 378.904 198.78 377C198.78 375.096 199.756 373.944 201.372 373.944ZM211.106 372.84C208.69 372.84 207.234 374.408 207.234 377C207.234 379.592 208.69 381.16 211.106 381.16C213.522 381.16 214.978 379.592 214.978 377C214.978 374.408 213.522 372.84 211.106 372.84ZM211.106 373.944C212.722 373.944 213.698 375.096 213.698 377C213.698 378.904 212.722 380.056 211.106 380.056C209.49 380.056 208.514 378.904 208.514 377C208.514 375.096 209.49 373.944 211.106 373.944ZM221.241 372.84C219.993 372.84 219.129 373.336 218.681 374.312L218.505 373H217.465V381H218.745V376.68C218.745 374.888 219.897 374.04 220.857 374.04C221.273 374.04 221.625 374.12 221.865 374.248L222.121 373C221.881 372.872 221.513 372.84 221.241 372.84ZM233.01 372.84C231.746 372.84 230.738 373.48 230.274 374.392L230.194 373H229.074V384.36H230.354V379.752C230.85 380.584 231.81 381.16 233.01 381.16C235.234 381.16 236.658 379.608 236.658 377C236.658 374.392 235.234 372.84 233.01 372.84ZM232.866 380.04C231.346 380.04 230.354 378.904 230.354 377.096V376.904C230.354 375.096 231.346 373.96 232.866 373.96C234.434 373.96 235.378 375.144 235.378 377C235.378 378.856 234.434 380.04 232.866 380.04ZM242.928 372.84C241.68 372.84 240.816 373.336 240.368 374.312L240.192 373H239.152V381H240.432V376.68C240.432 374.888 241.584 374.04 242.544 374.04C242.96 374.04 243.312 374.12 243.552 374.248L243.808 373C243.568 372.872 243.2 372.84 242.928 372.84ZM246.323 371.464C246.899 371.464 247.283 371.08 247.283 370.504C247.283 369.928 246.899 369.544 246.323 369.544C245.747 369.544 245.363 369.928 245.363 370.504C245.363 371.08 245.747 371.464 246.323 371.464ZM246.963 373H245.683V381H246.963V373ZM253.309 372.84C250.893 372.84 249.437 374.408 249.437 377C249.437 379.592 250.893 381.16 253.309 381.16C255.005 381.16 256.157 380.28 256.701 378.808L255.517 378.392C255.277 379.448 254.525 380.04 253.277 380.04C251.677 380.04 250.717 378.904 250.717 377C250.717 375.096 251.677 373.96 253.277 373.96C254.381 373.96 255.069 374.52 255.405 375.544L256.621 374.968C256.029 373.656 254.957 372.84 253.309 372.84ZM265.829 376.584C265.829 374.52 264.565 372.84 262.245 372.84C259.829 372.84 258.469 374.408 258.469 377C258.469 379.592 259.925 381.16 262.341 381.16C264.069 381.16 265.061 380.504 265.669 379.416L264.597 378.856C264.309 379.624 263.509 380.04 262.341 380.04C260.869 380.04 259.893 379.096 259.733 377.48H265.765C265.797 377.256 265.829 376.952 265.829 376.584ZM262.245 373.96C263.605 373.96 264.421 374.872 264.597 376.344H259.749C259.941 374.84 260.821 373.96 262.245 373.96ZM268.901 379.08C268.277 379.08 267.861 379.496 267.861 380.12C267.861 380.744 268.277 381.16 268.901 381.16C269.525 381.16 269.941 380.744 269.941 380.12C269.941 379.496 269.525 379.08 268.901 379.08Z" fill="white"/>
<defs>
<filter id="filter0_f_39944_5874" x="34.9131" y="4.91211" width="260.175" height="260.174" filterUnits="userSpaceOnUse" color-interpolation-filters="sRGB">
<feFlood flood-opacity="0" result="BackgroundImageFix"/>
<feBlend mode="normal" in="SourceGraphic" in2="BackgroundImageFix" result="shape"/>
<feGaussianBlur stdDeviation="27" result="effect1_foregroundBlur_39944_5874"/>
</filter>
<linearGradient id="paint0_linear_39944_5874" x1="89.8941" y1="30.834" x2="248.897" y2="63.9327" gradientUnits="userSpaceOnUse">
<stop stop-color="#A259FF"/>
<stop offset="1" stop-color="#3B3B3B"/>
</linearGradient>
<linearGradient id="paint1_linear_39944_5874" x1="252.862" y1="147.68" x2="196.245" y2="245.274" gradientUnits="userSpaceOnUse">
<stop stop-color="#A259FF" stop-opacity="0"/>
<stop offset="1" stop-color="#FF6250"/>
</linearGradient>
<linearGradient id="paint2_linear_39944_5874" x1="251.673" y1="59.0345" x2="265.016" y2="69.5142" gradientUnits="userSpaceOnUse">
<stop stop-color="#A259FF"/>
<stop offset="1" stop-color="#377DF7"/>
</linearGradient>
<linearGradient id="paint3_linear_39944_5874" x1="91.0836" y1="214.28" x2="90.6379" y2="227.555" gradientUnits="userSpaceOnUse">
<stop stop-color="#A259FF"/>
<stop offset="1" stop-color="#377DF7"/>
</linearGradient>
<linearGradient id="paint4_linear_39944_5874" x1="237.576" y1="187.77" x2="250.837" y2="187.009" gradientUnits="userSpaceOnUse">
<stop stop-color="#A259FF"/>
<stop offset="1" stop-color="#377DF7"/>
</linearGradient>
<linearGradient id="paint5_linear_39944_5874" x1="184.092" y1="158.037" x2="222.892" y2="250.768" gradientUnits="userSpaceOnUse">
<stop stop-color="#A259FF"/>
<stop offset="0.416667" stop-color="#A259FF" stop-opacity="0"/>
</linearGradient>
<linearGradient id="paint6_linear_39944_5874" x1="195.431" y1="151.332" x2="128.777" y2="171.815" gradientUnits="userSpaceOnUse">
<stop stop-color="#FF7262"/>
<stop offset="0.317708" stop-color="#A259FF"/>
</linearGradient>
<linearGradient id="paint7_linear_39944_5874" x1="184.953" y1="121.553" x2="192.341" y2="137.114" gradientUnits="userSpaceOnUse">
<stop stop-color="#3B3B3B"/>
<stop offset="1" stop-color="#A259FF"/>
</linearGradient>
<linearGradient id="paint8_linear_39944_5874" x1="211.05" y1="94.8342" x2="217.564" y2="101.228" gradientUnits="userSpaceOnUse">
<stop stop-color="#3B3B3B"/>
<stop offset="1" stop-color="#A259FF"/>
</linearGradient>
<linearGradient id="paint9_linear_39944_5874" x1="198.538" y1="124.378" x2="205.925" y2="139.938" gradientUnits="userSpaceOnUse">
<stop stop-color="#3B3B3B"/>
<stop offset="1" stop-color="#A259FF"/>
</linearGradient>
<linearGradient id="paint10_linear_39944_5874" x1="224.654" y1="97.646" x2="231.169" y2="104.039" gradientUnits="userSpaceOnUse">
<stop stop-color="#3B3B3B"/>
<stop offset="1" stop-color="#A259FF"/>
</linearGradient>
<linearGradient id="paint11_linear_39944_5874" x1="208.053" y1="113.502" x2="207.786" y2="131.807" gradientUnits="userSpaceOnUse">
<stop stop-color="#3B3B3B"/>
<stop offset="1" stop-color="#A259FF"/>
</linearGradient>
<linearGradient id="paint12_linear_39944_5874" x1="205.149" y1="117.517" x2="204.881" y2="135.821" gradientUnits="userSpaceOnUse">
<stop stop-color="#3B3B3B"/>
<stop offset="1" stop-color="#A259FF"/>
</linearGradient>
<linearGradient id="paint13_linear_39944_5874" x1="163.704" y1="68.7822" x2="175.466" y2="107.229" gradientUnits="userSpaceOnUse">
<stop stop-color="#FF7262"/>
<stop offset="1" stop-color="#A259FF"/>
</linearGradient>
<linearGradient id="paint14_linear_39944_5874" x1="155.393" y1="133.188" x2="142.615" y2="85.9924" gradientUnits="userSpaceOnUse">
<stop stop-color="#A259FF"/>
<stop offset="1" stop-color="white"/>
</linearGradient>
<linearGradient id="paint15_linear_39944_5874" x1="177.015" y1="193.7" x2="128.155" y2="69.3849" gradientUnits="userSpaceOnUse">
<stop stop-color="#A259FF"/>
<stop offset="0.666667" stop-color="white"/>
</linearGradient>
<clipPath id="clip0_39944_5874">
<rect width="250" height="250" fill="white" transform="translate(40 10)"/>
</clipPath>
</defs>
</svg>
