<svg width="330" height="439" viewBox="0 0 330 439" fill="none" xmlns="http://www.w3.org/2000/svg">
<rect width="330" height="439" rx="20" fill="#3B3B3B"/>
<g clip-path="url(#clip0_39944_5901)">
<path d="M165.001 239.167C222.531 239.167 269.167 192.531 269.167 135.001C269.167 77.471 222.531 30.834 165.001 30.834C107.471 30.834 60.834 77.471 60.834 135.001C60.834 192.531 107.471 239.167 165.001 239.167Z" fill="url(#paint0_linear_39944_5901)"/>
<g filter="url(#filter0_f_39944_5901)">
<path d="M171.34 211.087C209.86 211.087 241.087 179.86 241.087 141.34C241.087 102.82 209.86 71.5938 171.34 71.5938C132.82 71.5938 101.594 102.82 101.594 141.34C101.594 179.86 132.82 211.087 171.34 211.087Z" fill="url(#paint1_linear_39944_5901)"/>
</g>
<path fill-rule="evenodd" clip-rule="evenodd" d="M96.2467 92.0468C97.9895 92.0468 99.4022 90.634 99.4022 88.8912C99.4022 87.1486 97.9895 85.7358 96.2467 85.7358C94.504 85.7358 93.0913 87.1486 93.0913 88.8912C93.0913 90.634 94.504 92.0468 96.2467 92.0468ZM96.2467 94.4134C99.2965 94.4134 101.769 91.9411 101.769 88.8912C101.769 85.8415 99.2965 83.3691 96.2467 83.3691C93.197 83.3691 90.7246 85.8415 90.7246 88.8912C90.7246 91.9411 93.197 94.4134 96.2467 94.4134Z" fill="white"/>
<path fill-rule="evenodd" clip-rule="evenodd" d="M86.2838 189.873C88.0266 189.873 89.4393 188.46 89.4393 186.717C89.4393 184.974 88.0266 183.562 86.2838 183.562C84.5412 183.562 83.1284 184.974 83.1284 186.717C83.1284 188.46 84.5412 189.873 86.2838 189.873ZM86.2838 192.24C89.3336 192.24 91.806 189.767 91.806 186.717C91.806 183.667 89.3336 181.195 86.2838 181.195C83.2341 181.195 80.7617 183.667 80.7617 186.717C80.7617 189.767 83.2341 192.24 86.2838 192.24Z" fill="white"/>
<path fill-rule="evenodd" clip-rule="evenodd" d="M233.022 56.7206C234.764 56.7206 236.178 55.3078 236.178 53.5651C236.178 51.8224 234.764 50.4096 233.022 50.4096C231.279 50.4096 229.867 51.8224 229.867 53.5651C229.867 55.3078 231.279 56.7206 233.022 56.7206ZM233.022 59.0873C236.072 59.0873 238.544 56.6149 238.544 53.5651C238.544 50.5153 236.072 48.043 233.022 48.043C229.972 48.043 227.5 50.5153 227.5 53.5651C227.5 56.6149 229.972 59.0873 233.022 59.0873Z" fill="white"/>
<path d="M99.23 48.2153C99.4621 47.2538 100.83 47.2538 101.062 48.2153L101.843 51.4513C101.926 51.7949 102.194 52.0632 102.538 52.1462L105.774 52.9273C106.735 53.1594 106.735 54.527 105.774 54.7591L102.538 55.5403C102.194 55.6232 101.926 55.8914 101.843 56.2351L101.062 59.4712C100.83 60.4327 99.4621 60.4327 99.23 59.4712L98.4489 56.2351C98.3659 55.8914 98.0976 55.6232 97.7541 55.5403L94.518 54.7591C93.5565 54.527 93.5565 53.1594 94.518 52.9273L97.7541 52.1462C98.0976 52.0632 98.3659 51.7949 98.4489 51.4513L99.23 48.2153Z" fill="white"/>
<path d="M244.977 81.1869C245.231 80.133 246.73 80.133 246.985 81.1869L247.841 84.734C247.932 85.1106 248.226 85.4047 248.602 85.4957L252.149 86.3519C253.204 86.6063 253.204 88.1054 252.149 88.3598L248.602 89.2161C248.226 89.307 247.932 89.601 247.841 89.9777L246.985 93.5249C246.73 94.5788 245.231 94.5788 244.977 93.5249L244.12 89.9777C244.03 89.601 243.735 89.307 243.359 89.2161L239.812 88.3598C238.758 88.1054 238.758 86.6063 239.812 86.3519L243.359 85.4957C243.735 85.4047 244.03 85.1106 244.12 84.734L244.977 81.1869Z" fill="url(#paint2_linear_39944_5901)"/>
<path d="M89.8469 210.396C91.0461 210.204 92.0036 211.381 91.5702 212.516L88.6454 220.175C88.2121 221.31 86.713 221.55 85.9471 220.607L80.7769 214.244C80.0108 213.302 80.5525 211.884 81.7518 211.692L89.8469 210.396Z" fill="url(#paint3_linear_39944_5901)"/>
<path d="M231.103 192.978C230.803 191.8 231.889 190.74 233.059 191.068L240.952 193.287C242.12 193.615 242.496 195.086 241.627 195.934L235.76 201.661C234.89 202.509 233.429 202.098 233.129 200.921L231.103 192.978Z" fill="url(#paint4_linear_39944_5901)"/>
<g filter="url(#filter1_f_39944_5901)">
<path d="M220.276 215.132C220.276 220.721 193.765 225.251 161.062 225.251C128.359 225.251 101.848 220.721 101.848 215.132C101.848 209.544 128.359 205.014 161.062 205.014C193.765 205.014 220.276 209.544 220.276 215.132Z" fill="url(#paint5_radial_39944_5901)"/>
</g>
<g filter="url(#filter2_i_39944_5901)">
<path d="M162.215 69.8649L123.648 76.6653C120.549 77.2117 118.481 80.1663 119.027 83.2647L128.747 138.391C129.293 141.489 132.248 143.558 135.347 143.011L173.914 136.211C177.013 135.665 179.081 132.71 178.535 129.612L168.815 74.4858C168.268 71.3874 165.313 69.3185 162.215 69.8649Z" fill="url(#paint6_linear_39944_5901)"/>
</g>
<path d="M162.772 98.2023L132.812 103.485C131.804 103.663 131.13 104.625 131.308 105.634L131.309 105.64C131.487 106.649 132.449 107.322 133.458 107.144L163.418 101.862C164.426 101.684 165.1 100.722 164.923 99.7128L164.922 99.7069C164.743 98.6981 163.781 98.0244 162.772 98.2023Z" fill="url(#paint7_linear_39944_5901)"/>
<path d="M167.33 123.947L137.628 129.184C136.627 129.361 135.956 130.296 136.129 131.273L136.13 131.279C136.302 132.257 137.252 132.906 138.253 132.73L167.955 127.492C168.956 127.316 169.626 126.381 169.454 125.403L169.453 125.397C169.281 124.42 168.33 123.77 167.33 123.947Z" fill="url(#paint8_linear_39944_5901)"/>
<path d="M164.955 110.476L135.252 115.713C134.252 115.89 133.581 116.825 133.754 117.802L133.755 117.809C133.927 118.786 134.877 119.435 135.878 119.259L165.58 114.021C166.58 113.845 167.252 112.91 167.079 111.932L167.079 111.927C166.906 110.949 165.955 110.3 164.955 110.476Z" fill="url(#paint9_linear_39944_5901)"/>
<path d="M140.405 82.4884L131.65 84.0321C129.711 84.3741 128.416 86.2235 128.758 88.1628L129.186 90.5925C129.528 92.5318 131.378 93.8268 133.317 93.4848L142.072 91.9411C144.011 91.5991 145.307 89.7498 144.964 87.8104L144.536 85.3807C144.194 83.4413 142.345 82.1464 140.405 82.4884Z" fill="#A259FF"/>
<g filter="url(#filter3_i_39944_5901)">
<path d="M208.178 85.0664H157.151C154.773 85.0664 152.846 86.994 152.846 89.3718V113.356C152.846 115.734 154.773 117.662 157.151 117.662H208.178C210.556 117.662 212.483 115.734 212.483 113.356V89.3718C212.483 86.994 210.556 85.0664 208.178 85.0664Z" fill="url(#paint10_linear_39944_5901)"/>
</g>
<path d="M165.44 106.31C168.173 106.31 170.39 104.094 170.39 101.36C170.39 98.6262 168.173 96.4102 165.44 96.4102C162.706 96.4102 160.49 98.6262 160.49 101.36C160.49 104.094 162.706 106.31 165.44 106.31Z" fill="white"/>
<path d="M183.128 106.31C185.862 106.31 188.077 104.094 188.077 101.36C188.077 98.6262 185.862 96.4102 183.128 96.4102C180.394 96.4102 178.178 98.6262 178.178 101.36C178.178 104.094 180.394 106.31 183.128 106.31Z" fill="white"/>
<path d="M200.817 106.31C203.551 106.31 205.767 104.094 205.767 101.36C205.767 98.6262 203.551 96.4102 200.817 96.4102C198.084 96.4102 195.867 98.6262 195.867 101.36C195.867 104.094 198.084 106.31 200.817 106.31Z" fill="white"/>
<path fill-rule="evenodd" clip-rule="evenodd" d="M156.138 171.244C156.565 168.817 158.879 167.198 161.305 167.625L186.794 172.12C190.276 172.734 193.424 174.351 195.655 176.688C197.885 179.023 199.396 182.342 198.748 186.018C198.1 189.694 195.545 192.297 192.651 193.73C189.756 195.164 186.244 195.61 182.76 194.996L122.197 184.316C119.77 183.889 118.15 181.574 118.578 179.149C119.006 176.722 121.32 175.102 123.746 175.53L184.31 186.209C186.116 186.527 187.671 186.241 188.692 185.736C189.714 185.229 189.924 184.688 189.962 184.469C190 184.252 189.989 183.673 189.203 182.849C188.417 182.025 187.053 181.225 185.245 180.906L159.651 175.503C157.226 175.075 155.709 173.669 156.138 171.244Z" fill="url(#paint11_linear_39944_5901)"/>
<path fill-rule="evenodd" clip-rule="evenodd" d="M205.371 125.831C206.329 123.772 208.552 122.614 210.788 123.008L230.77 126.532C233.499 127.013 235.321 129.614 234.84 132.343C234.358 135.071 231.757 136.893 229.028 136.412L212.839 133.557L203.276 154.085C202.106 156.597 199.122 157.684 196.61 156.514C194.099 155.344 193.011 152.36 194.182 149.849L205.371 125.831Z" fill="url(#paint12_linear_39944_5901)"/>
<path d="M134.148 202.088C140.059 203.13 145.696 199.183 146.738 193.272C147.78 187.361 143.833 181.725 137.923 180.683C132.012 179.64 126.375 183.588 125.333 189.498C124.291 195.409 128.237 201.045 134.148 202.088Z" fill="url(#paint13_linear_39944_5901)"/>
<path d="M200.76 134.901L127.007 121.896C121.478 120.921 116.568 124.891 116.953 130.016L117.874 159.93C118.153 163.633 121.175 166.757 125.168 167.461L189.457 183.136L207.446 145.987C211.591 138.463 206.302 135.878 200.76 134.901Z" fill="url(#paint14_linear_39944_5901)"/>
<path d="M134.788 196.726C137.758 197.25 140.589 195.267 141.113 192.298C141.637 189.328 139.654 186.496 136.684 185.973C133.715 185.449 130.883 187.432 130.359 190.402C129.836 193.371 131.818 196.203 134.788 196.726Z" fill="url(#paint15_linear_39944_5901)"/>
<mask id="mask0_39944_5901" style="mask-type:alpha" maskUnits="userSpaceOnUse" x="116" y="121" width="93" height="63">
<path d="M200.76 134.901L127.007 121.896C121.478 120.921 116.568 124.891 116.953 130.016L117.874 159.93C118.153 163.633 121.175 166.757 125.168 167.461L189.457 183.136L207.446 145.987C209.563 141.288 206.302 135.878 200.76 134.901Z" fill="url(#paint16_linear_39944_5901)"/>
</mask>
<g mask="url(#mask0_39944_5901)">
<path d="M165.077 154.626C165.397 152.932 167.03 151.814 168.725 152.127C170.419 152.44 171.533 154.067 171.213 155.76L166.991 178.09C166.672 179.783 165.038 180.902 163.345 180.589C161.65 180.276 160.536 178.649 160.856 176.956L165.077 154.626Z" fill="#A259FF"/>
<path d="M220.174 140.101C221.588 140.347 222.54 141.694 222.301 143.11L222.127 144.135C221.887 145.551 220.546 146.499 219.131 146.254L116.008 128.343C114.593 128.097 113.641 126.75 113.881 125.335L114.055 124.31C114.295 122.894 115.636 121.946 117.051 122.191L220.174 140.101Z" fill="#A259FF"/>
<path d="M182.431 157.762C182.751 156.069 184.384 154.95 186.078 155.264C187.772 155.577 188.887 157.204 188.566 158.897L184.345 181.227C184.025 182.92 182.392 184.039 180.697 183.726C179.003 183.413 177.889 181.786 178.209 180.093L182.431 157.762Z" fill="#A259FF"/>
<path d="M147.724 151.489C148.044 149.796 149.677 148.677 151.371 148.99C153.065 149.303 154.18 150.93 153.859 152.623L149.638 174.954C149.318 176.647 147.685 177.765 145.99 177.453C144.296 177.139 143.182 175.512 143.502 173.82L147.724 151.489Z" fill="#A259FF"/>
<path d="M130.171 148.393C130.491 146.7 132.124 145.582 133.818 145.894C135.512 146.208 136.627 147.834 136.306 149.527L132.085 171.858C131.765 173.551 130.132 174.67 128.438 174.357C126.743 174.044 125.629 172.417 125.949 170.724L130.171 148.393Z" fill="#A259FF"/>
<path d="M114.929 122.21C115.253 120.371 117.006 119.144 118.844 119.468L208.971 135.359C210.809 135.684 212.036 137.437 211.712 139.275C211.387 141.114 209.635 142.341 207.797 142.017L117.671 126.125C115.832 125.801 114.605 124.048 114.929 122.21Z" fill="url(#paint17_linear_39944_5901)"/>
</g>
</g>
<path d="M100.726 288.26C96.9642 288.26 94.7862 290.262 94.7862 292.836C94.7862 295.256 96.3262 296.488 100.374 297.302C102.772 297.786 103.542 298.248 103.542 299.04C103.542 300.14 102.53 300.734 100.66 300.734C98.7022 300.734 97.3162 300.25 96.1722 298.358L94.3682 300.514C95.6002 302.274 97.4702 303.22 100.77 303.22C104.246 303.22 106.732 301.592 106.732 298.864C106.732 296.444 105.258 295.234 101.342 294.508C98.7902 294.046 97.9982 293.518 97.9982 292.55C97.9982 291.516 98.9222 290.746 100.748 290.746C102.706 290.746 103.916 291.538 104.664 293.1L106.754 291.054C105.28 289.118 103.432 288.26 100.726 288.26ZM116.337 300.316C115.875 300.712 115.369 300.932 114.643 300.932C113.697 300.932 113.125 300.47 113.125 299.414V294.244H116.689V292H113.125V288.634L110.111 289.47V292H108.109V294.244H110.111V299.898C110.111 302.318 111.607 303.22 113.785 303.22C114.951 303.22 116.095 302.89 116.799 302.318L116.337 300.316ZM128.846 301.174C128.274 301.174 128.032 300.91 128.032 300.338V295.828C128.032 293.1 126.096 291.78 123.038 291.78C120.354 291.78 118.704 292.968 118.242 294.838L120.64 295.85C120.97 294.464 121.894 293.98 123.17 293.98C124.358 293.98 125.04 294.728 125.04 295.894V296.422L122.4 296.928C119.452 297.478 118.11 298.688 118.11 300.404C118.11 302.252 119.43 303.22 121.52 303.22C123.368 303.22 124.754 302.648 125.414 301.57C125.722 302.758 126.624 303.22 127.944 303.22C128.494 303.22 128.978 303.11 129.374 302.912L129.594 301.086C129.374 301.152 129.11 301.174 128.846 301.174ZM122.466 301.174C121.674 301.174 121.212 300.8 121.212 300.096C121.212 299.37 121.718 299.018 122.686 298.798L125.04 298.27V299.414C125.04 300.58 123.61 301.174 122.466 301.174ZM137.651 291.78C135.935 291.78 134.813 292.638 134.241 294.156L134.043 292H131.425V303H134.439V297.302C134.439 295.3 135.759 294.332 137.079 294.332C137.651 294.332 138.157 294.464 138.465 294.662L138.839 292.022C138.575 291.868 138.135 291.78 137.651 291.78ZM147.382 300.316C146.92 300.712 146.414 300.932 145.688 300.932C144.742 300.932 144.17 300.47 144.17 299.414V294.244H147.734V292H144.17V288.634L141.156 289.47V292H139.154V294.244H141.156V299.898C141.156 302.318 142.652 303.22 144.83 303.22C145.996 303.22 147.14 302.89 147.844 302.318L147.382 300.316ZM159.798 300.558V296.862H165.98V294.53H159.798V290.922H167.652V288.48H156.762V303H167.96V300.558H159.798ZM180.43 301.174C179.858 301.174 179.616 300.91 179.616 300.338V295.828C179.616 293.1 177.68 291.78 174.622 291.78C171.938 291.78 170.288 292.968 169.826 294.838L172.224 295.85C172.554 294.464 173.478 293.98 174.754 293.98C175.942 293.98 176.624 294.728 176.624 295.894V296.422L173.984 296.928C171.036 297.478 169.694 298.688 169.694 300.404C169.694 302.252 171.014 303.22 173.104 303.22C174.952 303.22 176.338 302.648 176.998 301.57C177.306 302.758 178.208 303.22 179.528 303.22C180.078 303.22 180.562 303.11 180.958 302.912L181.178 301.086C180.958 301.152 180.694 301.174 180.43 301.174ZM174.05 301.174C173.258 301.174 172.796 300.8 172.796 300.096C172.796 299.37 173.302 299.018 174.27 298.798L176.624 298.27V299.414C176.624 300.58 175.194 301.174 174.05 301.174ZM189.235 291.78C187.519 291.78 186.397 292.638 185.825 294.156L185.627 292H183.009V303H186.023V297.302C186.023 295.3 187.343 294.332 188.663 294.332C189.235 294.332 189.741 294.464 190.049 294.662L190.423 292.022C190.159 291.868 189.719 291.78 189.235 291.78ZM198.846 291.78C197.196 291.78 195.832 292.484 195.106 293.958L194.996 292H192.29V303H195.304V297.192C195.304 294.992 196.558 294.156 197.834 294.156C198.978 294.156 199.792 294.772 199.792 296.664V303H202.806V295.784C202.806 293.122 201.134 291.78 198.846 291.78ZM207.429 290.416C208.683 290.416 209.299 289.888 209.299 288.81C209.299 287.732 208.683 287.182 207.429 287.182C206.175 287.182 205.559 287.732 205.559 288.81C205.559 289.888 206.175 290.416 207.429 290.416ZM208.925 292H205.911V303H208.925V292ZM218.676 291.78C217.026 291.78 215.662 292.484 214.936 293.958L214.826 292H212.12V303H215.134V297.192C215.134 294.992 216.388 294.156 217.664 294.156C218.808 294.156 219.622 294.772 219.622 296.664V303H222.636V295.784C222.636 293.122 220.964 291.78 218.676 291.78ZM232.429 300.932H228.711C227.941 300.932 227.457 300.624 227.457 300.03C227.457 299.524 227.699 299.194 228.337 299.04C228.931 299.172 229.591 299.238 230.317 299.238C233.441 299.238 235.355 297.808 235.355 295.52C235.355 294.222 234.761 293.21 233.683 292.572C234.013 291.846 234.871 291.406 236.257 291.538L235.861 289.382C233.881 289.294 232.869 290.438 232.517 292.066C231.879 291.868 231.131 291.78 230.317 291.78C227.193 291.78 225.257 293.21 225.257 295.52C225.257 296.84 225.851 297.874 226.995 298.512C225.939 298.886 225.235 299.634 225.235 300.734C225.235 301.812 225.961 302.538 226.863 302.934C225.521 303.264 224.861 304.056 224.861 305.024C224.861 306.63 226.489 307.73 230.273 307.73C233.727 307.73 236.191 306.388 236.191 303.99C236.191 302.01 234.805 300.932 232.429 300.932ZM230.317 293.672C231.483 293.672 232.319 294.398 232.319 295.498C232.319 296.62 231.483 297.346 230.317 297.346C229.151 297.346 228.293 296.62 228.293 295.498C228.293 294.398 229.151 293.672 230.317 293.672ZM230.515 305.662C228.271 305.662 227.259 305.156 227.259 304.364C227.259 303.726 227.809 303.374 229.085 303.374H232.077C233.331 303.374 233.727 303.726 233.727 304.298C233.727 305.046 232.649 305.662 230.515 305.662Z" fill="white"/>
<path d="M56.0838 334.296L54.8038 333.816C54.3398 335.24 53.2358 335.96 51.8278 335.96C49.6358 335.96 48.2758 334.376 48.2758 331.72C48.2758 329.048 49.7318 327.48 51.8918 327.48C53.2998 327.48 54.1638 328.12 54.6278 329.336L55.8918 328.744C55.2198 327.144 53.8438 326.28 51.7958 326.28C48.8518 326.28 46.9318 328.376 46.9318 331.72C46.9318 335.064 48.8198 337.16 51.8278 337.16C53.8118 337.16 55.4118 336.104 56.0838 334.296ZM62.1885 328.84C61.1005 328.84 60.1405 329.24 59.5805 330.2V325.32H58.3005V337H59.5805V332.76C59.5805 330.712 60.8925 329.96 62.0605 329.96C63.1645 329.96 64.0285 330.552 64.0285 332.328V337H65.3085V331.88C65.3085 329.816 63.9005 328.84 62.1885 328.84ZM71.5828 328.84C69.1668 328.84 67.7108 330.408 67.7108 333C67.7108 335.592 69.1668 337.16 71.5828 337.16C73.9988 337.16 75.4548 335.592 75.4548 333C75.4548 330.408 73.9988 328.84 71.5828 328.84ZM71.5828 329.944C73.1988 329.944 74.1748 331.096 74.1748 333C74.1748 334.904 73.1988 336.056 71.5828 336.056C69.9668 336.056 68.9908 334.904 68.9908 333C68.9908 331.096 69.9668 329.944 71.5828 329.944ZM81.3171 328.84C78.9011 328.84 77.4451 330.408 77.4451 333C77.4451 335.592 78.9011 337.16 81.3171 337.16C83.7331 337.16 85.1891 335.592 85.1891 333C85.1891 330.408 83.7331 328.84 81.3171 328.84ZM81.3171 329.944C82.9331 329.944 83.9091 331.096 83.9091 333C83.9091 334.904 82.9331 336.056 81.3171 336.056C79.7011 336.056 78.7251 334.904 78.7251 333C78.7251 331.096 79.7011 329.944 81.3171 329.944ZM90.3955 337.16C92.4435 337.16 93.7395 336.184 93.7395 334.792C93.7395 333.48 92.9395 332.808 90.6995 332.44C89.0675 332.168 88.5395 331.816 88.5395 331.128C88.5395 330.536 89.3395 329.96 90.4115 329.96C91.4195 329.96 92.1395 330.344 92.4915 331.4L93.5795 330.76C93.1315 329.448 92.1235 328.84 90.4115 328.84C88.4595 328.84 87.2595 329.944 87.2595 331.24C87.2595 332.584 88.0915 333.208 90.3635 333.624C91.9635 333.912 92.4595 334.264 92.4595 334.856C92.4595 335.512 91.8355 336.04 90.5235 336.04C89.3715 336.04 88.3795 335.608 87.9955 334.632L86.9555 335.352C87.5635 336.584 88.9235 337.16 90.3955 337.16ZM102.977 332.584C102.977 330.52 101.713 328.84 99.393 328.84C96.977 328.84 95.617 330.408 95.617 333C95.617 335.592 97.073 337.16 99.489 337.16C101.217 337.16 102.209 336.504 102.817 335.416L101.745 334.856C101.457 335.624 100.657 336.04 99.489 336.04C98.017 336.04 97.041 335.096 96.881 333.48H102.913C102.945 333.256 102.977 332.952 102.977 332.584ZM99.393 329.96C100.753 329.96 101.569 330.872 101.745 332.344H96.897C97.089 330.84 97.969 329.96 99.393 329.96ZM114.799 328.84C113.599 328.84 112.639 329.416 112.143 330.248V325.32H110.863V337H111.983L112.063 335.608C112.527 336.52 113.535 337.16 114.799 337.16C117.023 337.16 118.447 335.608 118.447 333C118.447 330.392 117.023 328.84 114.799 328.84ZM114.655 336.04C113.135 336.04 112.143 334.904 112.143 333.096V332.904C112.143 331.096 113.135 329.96 114.655 329.96C116.223 329.96 117.167 331.144 117.167 333C117.167 334.856 116.223 336.04 114.655 336.04ZM127.805 332.584C127.805 330.52 126.541 328.84 124.221 328.84C121.805 328.84 120.445 330.408 120.445 333C120.445 335.592 121.901 337.16 124.317 337.16C126.045 337.16 127.037 336.504 127.645 335.416L126.573 334.856C126.285 335.624 125.485 336.04 124.317 336.04C122.845 336.04 121.869 335.096 121.709 333.48H127.741C127.773 333.256 127.805 332.952 127.805 332.584ZM124.221 329.96C125.581 329.96 126.397 330.872 126.573 332.344H121.725C121.917 330.84 122.797 329.96 124.221 329.96ZM134.452 335.368C134.084 335.736 133.668 335.96 133.092 335.96C132.388 335.96 131.892 335.576 131.892 334.792V330.104H134.852V329H131.892V326.728L130.612 327.08V329H129.012V330.104H130.612V335.016C130.628 336.568 131.652 337.16 132.836 337.16C133.716 337.16 134.404 336.888 134.9 336.44L134.452 335.368ZM146.899 329L144.883 335.512L142.707 329H141.427L139.251 335.512L137.235 329H135.811L138.595 337H139.875L142.003 330.632L144.259 337H145.539L148.323 329H146.899ZM157.024 332.584C157.024 330.52 155.76 328.84 153.44 328.84C151.024 328.84 149.664 330.408 149.664 333C149.664 335.592 151.12 337.16 153.536 337.16C155.264 337.16 156.256 336.504 156.864 335.416L155.792 334.856C155.504 335.624 154.704 336.04 153.536 336.04C152.064 336.04 151.088 335.096 150.928 333.48H156.96C156.992 333.256 157.024 332.952 157.024 332.584ZM153.44 329.96C154.8 329.96 155.616 330.872 155.792 332.344H150.944C151.136 330.84 152.016 329.96 153.44 329.96ZM166.321 332.584C166.321 330.52 165.057 328.84 162.737 328.84C160.321 328.84 158.961 330.408 158.961 333C158.961 335.592 160.417 337.16 162.833 337.16C164.561 337.16 165.553 336.504 166.161 335.416L165.089 334.856C164.801 335.624 164.001 336.04 162.833 336.04C161.361 336.04 160.385 335.096 160.225 333.48H166.257C166.289 333.256 166.321 332.952 166.321 332.584ZM162.737 329.96C164.097 329.96 164.913 330.872 165.089 332.344H160.241C160.433 330.84 161.313 329.96 162.737 329.96ZM172.642 328.84C171.538 328.84 170.514 329.24 169.954 330.248L169.874 329H168.754V337H170.034V332.744C170.034 330.696 171.346 329.96 172.514 329.96C173.618 329.96 174.482 330.552 174.482 332.328V337H175.762V331.88C175.762 329.816 174.354 328.84 172.642 328.84ZM190.673 336.072C190.225 336.072 190.065 335.88 190.065 335.496V331.56C190.065 329.704 188.737 328.84 186.913 328.84C185.361 328.84 184.097 329.608 183.681 330.792L184.625 331.48C185.057 330.472 185.857 329.96 186.913 329.96C188.113 329.96 188.785 330.664 188.785 331.72V332.168L186.657 332.52C184.593 332.872 183.537 333.816 183.537 335.016C183.537 336.456 184.753 337.16 186.257 337.16C187.281 337.16 188.321 336.728 188.833 335.976C188.977 336.872 189.489 337.16 190.273 337.16C190.673 337.16 191.009 337.08 191.233 337L191.313 335.992C191.121 336.04 190.881 336.072 190.673 336.072ZM186.321 336.04C185.409 336.04 184.865 335.688 184.865 335.016C184.865 334.264 185.585 333.8 186.993 333.544L188.785 333.208V334.312C188.785 335.368 187.601 336.04 186.321 336.04ZM198.824 329V333.352C198.824 335.24 197.624 336.04 196.264 336.04C195.112 336.04 194.376 335.544 194.376 333.896V329H193.096V334.232C193.096 336.344 194.456 337.16 196.04 337.16C197.32 337.16 198.344 336.744 198.904 335.784L198.984 337H200.104V329H198.824ZM206.458 328.84C204.042 328.84 202.586 330.408 202.586 333C202.586 335.592 204.042 337.16 206.458 337.16C208.154 337.16 209.306 336.28 209.85 334.808L208.666 334.392C208.426 335.448 207.674 336.04 206.426 336.04C204.826 336.04 203.866 334.904 203.866 333C203.866 331.096 204.826 329.96 206.426 329.96C207.53 329.96 208.218 330.52 208.554 331.544L209.77 330.968C209.178 329.656 208.106 328.84 206.458 328.84ZM216.561 335.368C216.193 335.736 215.777 335.96 215.201 335.96C214.497 335.96 214.001 335.576 214.001 334.792V330.104H216.961V329H214.001V326.728L212.721 327.08V329H211.121V330.104H212.721V335.016C212.737 336.568 213.761 337.16 214.945 337.16C215.825 337.16 216.513 336.888 217.009 336.44L216.561 335.368ZM219.456 327.464C220.032 327.464 220.416 327.08 220.416 326.504C220.416 325.928 220.032 325.544 219.456 325.544C218.88 325.544 218.496 325.928 218.496 326.504C218.496 327.08 218.88 327.464 219.456 327.464ZM220.096 329H218.816V337H220.096V329ZM226.442 328.84C224.026 328.84 222.57 330.408 222.57 333C222.57 335.592 224.026 337.16 226.442 337.16C228.858 337.16 230.314 335.592 230.314 333C230.314 330.408 228.858 328.84 226.442 328.84ZM226.442 329.944C228.058 329.944 229.034 331.096 229.034 333C229.034 334.904 228.058 336.056 226.442 336.056C224.826 336.056 223.85 334.904 223.85 333C223.85 331.096 224.826 329.944 226.442 329.944ZM236.689 328.84C235.585 328.84 234.561 329.24 234.001 330.248L233.921 329H232.801V337H234.081V332.744C234.081 330.696 235.393 329.96 236.561 329.96C237.665 329.96 238.529 330.552 238.529 332.328V337H239.809V331.88C239.809 329.816 238.401 328.84 236.689 328.84ZM245.427 337.16C247.475 337.16 248.771 336.184 248.771 334.792C248.771 333.48 247.971 332.808 245.731 332.44C244.099 332.168 243.571 331.816 243.571 331.128C243.571 330.536 244.371 329.96 245.443 329.96C246.451 329.96 247.171 330.344 247.523 331.4L248.611 330.76C248.163 329.448 247.155 328.84 245.443 328.84C243.491 328.84 242.291 329.944 242.291 331.24C242.291 332.584 243.123 333.208 245.395 333.624C246.995 333.912 247.491 334.264 247.491 334.856C247.491 335.512 246.867 336.04 245.555 336.04C244.403 336.04 243.411 335.608 243.027 334.632L241.987 335.352C242.595 336.584 243.955 337.16 245.427 337.16ZM263.157 336.072C262.709 336.072 262.549 335.88 262.549 335.496V331.56C262.549 329.704 261.221 328.84 259.397 328.84C257.845 328.84 256.581 329.608 256.165 330.792L257.109 331.48C257.541 330.472 258.341 329.96 259.397 329.96C260.597 329.96 261.269 330.664 261.269 331.72V332.168L259.141 332.52C257.077 332.872 256.021 333.816 256.021 335.016C256.021 336.456 257.237 337.16 258.741 337.16C259.765 337.16 260.805 336.728 261.317 335.976C261.461 336.872 261.973 337.16 262.757 337.16C263.157 337.16 263.493 337.08 263.717 337L263.797 335.992C263.605 336.04 263.365 336.072 263.157 336.072ZM258.805 336.04C257.893 336.04 257.349 335.688 257.349 335.016C257.349 334.264 258.069 333.8 259.477 333.544L261.269 333.208V334.312C261.269 335.368 260.085 336.04 258.805 336.04ZM269.548 328.84C268.444 328.84 267.42 329.24 266.86 330.248L266.78 329H265.66V337H266.94V332.744C266.94 330.696 268.252 329.96 269.42 329.96C270.524 329.96 271.388 330.552 271.388 332.328V337H272.668V331.88C272.668 329.816 271.26 328.84 269.548 328.84ZM281.39 325.32V330.248C280.894 329.416 279.934 328.84 278.734 328.84C276.51 328.84 275.086 330.392 275.086 333C275.086 335.608 276.51 337.16 278.734 337.16C279.998 337.16 281.006 336.52 281.47 335.608L281.55 337H282.67V325.32H281.39ZM278.878 336.04C277.31 336.04 276.366 334.856 276.366 333C276.366 331.144 277.31 329.96 278.878 329.96C280.398 329.96 281.39 331.096 281.39 332.904V333.096C281.39 334.904 280.398 336.04 278.878 336.04ZM40.723 348.408C41.091 348.408 41.379 348.488 41.635 348.648L41.971 347.608C41.683 347.368 41.171 347.24 40.611 347.24C38.851 347.24 37.987 348.232 37.987 349.656V351H36.387V352.104H37.987V359H39.267V352.104H41.939V351H39.267V349.784C39.267 348.824 39.795 348.408 40.723 348.408ZM44.291 347.544C43.715 347.544 43.331 347.928 43.331 348.504C43.331 349.08 43.715 349.464 44.291 349.464C44.867 349.464 45.251 349.08 45.251 348.504C45.251 347.928 44.867 347.544 44.291 347.544ZM43.651 359H44.931V351H43.651V359ZM54.4219 359L51.4779 354.92L54.3739 351H52.8699L50.7899 353.96L48.6779 351H47.0779L49.9579 354.968L46.8859 359H48.3739L50.6459 355.912L52.8539 359H54.4219ZM62.9926 354.584C62.9926 352.52 61.7286 350.84 59.4086 350.84C56.9926 350.84 55.6326 352.408 55.6326 355C55.6326 357.592 57.0886 359.16 59.5046 359.16C61.2326 359.16 62.2246 358.504 62.8326 357.416L61.7606 356.856C61.4726 357.624 60.6726 358.04 59.5046 358.04C58.0326 358.04 57.0566 357.096 56.8966 355.48H62.9286C62.9606 355.256 62.9926 354.952 62.9926 354.584ZM59.4086 351.96C60.7686 351.96 61.5846 352.872 61.7606 354.344H56.9126C57.1046 352.84 57.9846 351.96 59.4086 351.96ZM71.2495 347.32V352.248C70.7535 351.416 69.7935 350.84 68.5935 350.84C66.3695 350.84 64.9455 352.392 64.9455 355C64.9455 357.608 66.3695 359.16 68.5935 359.16C69.8575 359.16 70.8655 358.52 71.3295 357.608L71.4095 359H72.5295V347.32H71.2495ZM68.7375 358.04C67.1695 358.04 66.2255 356.856 66.2255 355C66.2255 353.144 67.1695 351.96 68.7375 351.96C70.2575 351.96 71.2495 353.096 71.2495 354.904V355.096C71.2495 356.904 70.2575 358.04 68.7375 358.04ZM80.7356 354.152H75.4556V355.48H80.7356V354.152ZM87.5959 350.84C86.3319 350.84 85.3239 351.48 84.8599 352.392L84.7799 351H83.6599V362.36H84.9399V357.752C85.4359 358.584 86.3959 359.16 87.5959 359.16C89.8199 359.16 91.2439 357.608 91.2439 355C91.2439 352.392 89.8199 350.84 87.5959 350.84ZM87.4519 358.04C85.9319 358.04 84.9399 356.904 84.9399 355.096V354.904C84.9399 353.096 85.9319 351.96 87.4519 351.96C89.0199 351.96 89.9639 353.144 89.9639 355C89.9639 356.856 89.0199 358.04 87.4519 358.04ZM97.514 350.84C96.266 350.84 95.402 351.336 94.954 352.312L94.778 351H93.738V359H95.018V354.68C95.018 352.888 96.17 352.04 97.13 352.04C97.546 352.04 97.898 352.12 98.138 352.248L98.394 351C98.154 350.872 97.786 350.84 97.514 350.84ZM100.909 349.464C101.485 349.464 101.869 349.08 101.869 348.504C101.869 347.928 101.485 347.544 100.909 347.544C100.333 347.544 99.9493 347.928 99.9493 348.504C99.9493 349.08 100.333 349.464 100.909 349.464ZM101.549 351H100.269V359H101.549V351ZM107.895 350.84C105.479 350.84 104.023 352.408 104.023 355C104.023 357.592 105.479 359.16 107.895 359.16C109.591 359.16 110.743 358.28 111.287 356.808L110.103 356.392C109.863 357.448 109.111 358.04 107.863 358.04C106.263 358.04 105.303 356.904 105.303 355C105.303 353.096 106.263 351.96 107.863 351.96C108.967 351.96 109.655 352.52 109.991 353.544L111.207 352.968C110.615 351.656 109.543 350.84 107.895 350.84ZM120.415 354.584C120.415 352.52 119.151 350.84 116.831 350.84C114.414 350.84 113.055 352.408 113.055 355C113.055 357.592 114.511 359.16 116.927 359.16C118.655 359.16 119.647 358.504 120.255 357.416L119.183 356.856C118.895 357.624 118.095 358.04 116.927 358.04C115.455 358.04 114.479 357.096 114.319 355.48H120.351C120.383 355.256 120.415 354.952 120.415 354.584ZM116.831 351.96C118.191 351.96 119.007 352.872 119.183 354.344H114.335C114.527 352.84 115.407 351.96 116.831 351.96ZM129.517 347.32H128.237V357.016C128.237 358.472 128.861 359.16 130.157 359.16C130.573 359.16 131.005 359.08 131.341 358.936L131.549 357.704C131.085 357.88 130.812 357.928 130.381 357.928C129.725 357.928 129.517 357.672 129.517 356.856V347.32ZM133.831 349.464C134.407 349.464 134.791 349.08 134.791 348.504C134.791 347.928 134.407 347.544 133.831 347.544C133.255 347.544 132.871 347.928 132.871 348.504C132.871 349.08 133.255 349.464 133.831 349.464ZM134.471 351H133.191V359H134.471V351ZM140.161 359.16C142.209 359.16 143.505 358.184 143.505 356.792C143.505 355.48 142.705 354.808 140.465 354.44C138.833 354.168 138.305 353.816 138.305 353.128C138.305 352.536 139.105 351.96 140.177 351.96C141.185 351.96 141.905 352.344 142.257 353.4L143.345 352.76C142.897 351.448 141.889 350.84 140.177 350.84C138.225 350.84 137.025 351.944 137.025 353.24C137.025 354.584 137.857 355.208 140.129 355.624C141.729 355.912 142.225 356.264 142.225 356.856C142.225 357.512 141.601 358.04 140.289 358.04C139.137 358.04 138.145 357.608 137.761 356.632L136.721 357.352C137.329 358.584 138.689 359.16 140.161 359.16ZM150.327 357.368C149.959 357.736 149.543 357.96 148.967 357.96C148.263 357.96 147.767 357.576 147.767 356.792V352.104H150.727V351H147.767V348.728L146.487 349.08V351H144.887V352.104H146.487V357.016C146.503 358.568 147.527 359.16 148.711 359.16C149.591 359.16 150.279 358.888 150.775 358.44L150.327 357.368ZM153.222 349.464C153.798 349.464 154.182 349.08 154.182 348.504C154.182 347.928 153.798 347.544 153.222 347.544C152.646 347.544 152.262 347.928 152.262 348.504C152.262 349.08 152.646 349.464 153.222 349.464ZM153.862 351H152.582V359H153.862V351ZM160.72 350.84C159.616 350.84 158.592 351.24 158.032 352.248L157.952 351H156.832V359H158.112V354.744C158.112 352.696 159.424 351.96 160.592 351.96C161.696 351.96 162.56 352.552 162.56 354.328V359H163.84V353.88C163.84 351.816 162.432 350.84 160.72 350.84ZM171.202 357.976H168.546C167.922 357.976 167.49 357.672 167.49 357.112C167.49 356.568 167.746 356.248 168.386 356.104C168.738 356.2 169.154 356.248 169.618 356.248C171.538 356.248 172.898 355.128 172.898 353.544C172.898 352.712 172.53 352.008 171.89 351.528C172.114 350.952 172.722 350.648 173.794 350.648L173.506 349.528C172.306 349.528 171.554 350.056 171.25 351.16C170.77 350.952 170.226 350.84 169.618 350.84C167.698 350.84 166.338 351.96 166.338 353.544C166.338 354.472 166.738 355.256 167.506 355.736C166.802 355.976 166.306 356.472 166.306 357.304C166.306 358.008 166.786 358.488 167.394 358.776C166.514 359.016 165.986 359.592 165.986 360.328C165.986 361.528 167.138 362.44 169.666 362.44C171.826 362.44 173.618 361.464 173.618 359.88C173.618 358.728 172.722 357.976 171.202 357.976ZM169.618 351.88C170.722 351.88 171.57 352.552 171.57 353.544C171.57 354.536 170.722 355.208 169.618 355.208C168.514 355.208 167.666 354.536 167.666 353.544C167.666 352.552 168.514 351.88 169.618 351.88ZM169.81 361.368C168.05 361.368 167.17 360.856 167.17 360.072C167.17 359.464 167.698 359.08 168.706 359.08H170.85C172.05 359.08 172.434 359.448 172.434 360.024C172.434 360.728 171.506 361.368 169.81 361.368ZM178.239 359.16C180.287 359.16 181.583 358.184 181.583 356.792C181.583 355.48 180.783 354.808 178.543 354.44C176.911 354.168 176.383 353.816 176.383 353.128C176.383 352.536 177.183 351.96 178.255 351.96C179.263 351.96 179.983 352.344 180.335 353.4L181.423 352.76C180.975 351.448 179.967 350.84 178.255 350.84C176.303 350.84 175.103 351.944 175.103 353.24C175.103 354.584 175.935 355.208 178.207 355.624C179.807 355.912 180.303 356.264 180.303 356.856C180.303 357.512 179.679 358.04 178.367 358.04C177.215 358.04 176.223 357.608 175.839 356.632L174.799 357.352C175.407 358.584 176.767 359.16 178.239 359.16ZM184.597 357.08C183.973 357.08 183.557 357.496 183.557 358.12C183.557 358.744 183.973 359.16 184.597 359.16C185.221 359.16 185.637 358.744 185.637 358.12C185.637 357.496 185.221 357.08 184.597 357.08ZM197.292 348.28C194.844 348.28 193.356 349.72 193.356 351.416C193.356 353.032 194.38 353.896 197.228 354.392C199.452 354.776 200.14 355.304 200.14 356.216C200.14 357.352 199.052 357.96 197.42 357.96C195.692 357.96 194.604 357.192 194.044 355.976L192.94 356.872C193.676 358.184 195.148 359.16 197.388 359.16C199.852 359.16 201.468 357.96 201.468 356.152C201.468 354.52 200.46 353.624 197.628 353.144C195.404 352.76 194.7 352.264 194.7 351.272C194.7 350.264 195.628 349.48 197.308 349.48C198.86 349.48 199.628 350.024 200.268 351.416L201.372 350.52C200.556 349.048 199.228 348.28 197.292 348.28ZM208.358 357.368C207.99 357.736 207.574 357.96 206.998 357.96C206.294 357.96 205.798 357.576 205.798 356.792V352.104H208.758V351H205.798V348.728L204.518 349.08V351H202.918V352.104H204.518V357.016C204.534 358.568 205.558 359.16 206.742 359.16C207.622 359.16 208.31 358.888 208.806 358.44L208.358 357.368ZM217.173 358.072C216.725 358.072 216.565 357.88 216.565 357.496V353.56C216.565 351.704 215.237 350.84 213.413 350.84C211.861 350.84 210.597 351.608 210.181 352.792L211.125 353.48C211.557 352.472 212.357 351.96 213.413 351.96C214.613 351.96 215.285 352.664 215.285 353.72V354.168L213.157 354.52C211.093 354.872 210.037 355.816 210.037 357.016C210.037 358.456 211.253 359.16 212.757 359.16C213.781 359.16 214.821 358.728 215.333 357.976C215.477 358.872 215.989 359.16 216.773 359.16C217.173 359.16 217.509 359.08 217.733 359L217.813 357.992C217.621 358.04 217.381 358.072 217.173 358.072ZM212.821 358.04C211.909 358.04 211.365 357.688 211.365 357.016C211.365 356.264 212.085 355.8 213.493 355.544L215.285 355.208V356.312C215.285 357.368 214.101 358.04 212.821 358.04ZM223.452 350.84C222.204 350.84 221.34 351.336 220.892 352.312L220.716 351H219.676V359H220.956V354.68C220.956 352.888 222.108 352.04 223.068 352.04C223.484 352.04 223.836 352.12 224.076 352.248L224.332 351C224.092 350.872 223.724 350.84 223.452 350.84ZM230.17 357.368C229.802 357.736 229.386 357.96 228.81 357.96C228.106 357.96 227.61 357.576 227.61 356.792V352.104H230.57V351H227.61V348.728L226.33 349.08V351H224.73V352.104H226.33V357.016C226.346 358.568 227.37 359.16 228.554 359.16C229.434 359.16 230.122 358.888 230.618 358.44L230.17 357.368ZM244.743 354.584C244.743 352.52 243.479 350.84 241.159 350.84C238.743 350.84 237.383 352.408 237.383 355C237.383 357.592 238.839 359.16 241.255 359.16C242.983 359.16 243.975 358.504 244.583 357.416L243.511 356.856C243.223 357.624 242.423 358.04 241.255 358.04C239.783 358.04 238.807 357.096 238.647 355.48H244.679C244.711 355.256 244.743 354.952 244.743 354.584ZM241.159 351.96C242.519 351.96 243.335 352.872 243.511 354.344H238.663C238.855 352.84 239.735 351.96 241.159 351.96ZM253.736 358.072C253.288 358.072 253.128 357.88 253.128 357.496V353.56C253.128 351.704 251.8 350.84 249.976 350.84C248.424 350.84 247.16 351.608 246.743 352.792L247.688 353.48C248.12 352.472 248.92 351.96 249.976 351.96C251.176 351.96 251.848 352.664 251.848 353.72V354.168L249.72 354.52C247.656 354.872 246.6 355.816 246.6 357.016C246.6 358.456 247.816 359.16 249.32 359.16C250.344 359.16 251.384 358.728 251.896 357.976C252.04 358.872 252.552 359.16 253.336 359.16C253.736 359.16 254.072 359.08 254.296 359L254.376 357.992C254.184 358.04 253.944 358.072 253.736 358.072ZM249.384 358.04C248.472 358.04 247.928 357.688 247.928 357.016C247.928 356.264 248.648 355.8 250.056 355.544L251.848 355.208V356.312C251.848 357.368 250.664 358.04 249.384 358.04ZM260.014 350.84C258.766 350.84 257.902 351.336 257.454 352.312L257.278 351H256.238V359H257.518V354.68C257.518 352.888 258.67 352.04 259.63 352.04C260.046 352.04 260.398 352.12 260.638 352.248L260.894 351C260.654 350.872 260.286 350.84 260.014 350.84ZM266.657 350.84C265.553 350.84 264.529 351.24 263.969 352.248L263.889 351H262.769V359H264.049V354.744C264.049 352.696 265.361 351.96 266.529 351.96C267.633 351.96 268.497 352.552 268.497 354.328V359H269.777V353.88C269.777 351.816 268.369 350.84 266.657 350.84ZM273.316 349.464C273.892 349.464 274.276 349.08 274.276 348.504C274.276 347.928 273.892 347.544 273.316 347.544C272.74 347.544 272.356 347.928 272.356 348.504C272.356 349.08 272.74 349.464 273.316 349.464ZM273.956 351H272.676V359H273.956V351ZM280.814 350.84C279.71 350.84 278.686 351.24 278.126 352.248L278.046 351H276.926V359H278.206V354.744C278.206 352.696 279.518 351.96 280.686 351.96C281.79 351.96 282.654 352.552 282.654 354.328V359H283.934V353.88C283.934 351.816 282.526 350.84 280.814 350.84ZM291.296 357.976H288.64C288.016 357.976 287.584 357.672 287.584 357.112C287.584 356.568 287.84 356.248 288.48 356.104C288.832 356.2 289.248 356.248 289.712 356.248C291.632 356.248 292.992 355.128 292.992 353.544C292.992 352.712 292.624 352.008 291.984 351.528C292.208 350.952 292.816 350.648 293.888 350.648L293.6 349.528C292.4 349.528 291.648 350.056 291.344 351.16C290.864 350.952 290.32 350.84 289.712 350.84C287.792 350.84 286.432 351.96 286.432 353.544C286.432 354.472 286.832 355.256 287.6 355.736C286.896 355.976 286.4 356.472 286.4 357.304C286.4 358.008 286.88 358.488 287.488 358.776C286.608 359.016 286.08 359.592 286.08 360.328C286.08 361.528 287.232 362.44 289.76 362.44C291.92 362.44 293.712 361.464 293.712 359.88C293.712 358.728 292.816 357.976 291.296 357.976ZM289.712 351.88C290.816 351.88 291.664 352.552 291.664 353.544C291.664 354.536 290.816 355.208 289.712 355.208C288.608 355.208 287.76 354.536 287.76 353.544C287.76 352.552 288.608 351.88 289.712 351.88ZM289.904 361.368C288.144 361.368 287.264 360.856 287.264 360.072C287.264 359.464 287.792 359.08 288.8 359.08H290.944C292.144 359.08 292.528 359.448 292.528 360.024C292.528 360.728 291.6 361.368 289.904 361.368ZM51.2443 372.84C50.0443 372.84 49.0843 373.416 48.5883 374.248V369.32H47.3083V381H48.4283L48.5083 379.608C48.9723 380.52 49.9803 381.16 51.2443 381.16C53.4683 381.16 54.8923 379.608 54.8923 377C54.8923 374.392 53.4683 372.84 51.2443 372.84ZM51.1003 380.04C49.5803 380.04 48.5883 378.904 48.5883 377.096V376.904C48.5883 375.096 49.5803 373.96 51.1003 373.96C52.6683 373.96 53.6123 375.144 53.6123 377C53.6123 378.856 52.6683 380.04 51.1003 380.04ZM63.9521 373H62.5761L60.7041 378.056L60.1281 379.64L59.6321 378.216L57.6321 373H56.1761L59.5201 380.984L59.1041 382.024C58.7041 383.08 58.2081 383.32 57.6481 383.32C57.2001 383.32 56.7201 383.192 56.3521 382.68L55.9041 383.768C56.3521 384.248 56.8641 384.44 57.6641 384.44C58.8481 384.44 59.5681 383.912 60.1921 382.344L63.9521 373ZM73.4814 381.16C75.5294 381.16 76.8254 380.184 76.8254 378.792C76.8254 377.48 76.0254 376.808 73.7854 376.44C72.1534 376.168 71.6254 375.816 71.6254 375.128C71.6254 374.536 72.4254 373.96 73.4974 373.96C74.5054 373.96 75.2254 374.344 75.5774 375.4L76.6654 374.76C76.2174 373.448 75.2094 372.84 73.4974 372.84C71.5454 372.84 70.3454 373.944 70.3454 375.24C70.3454 376.584 71.1774 377.208 73.4494 377.624C75.0494 377.912 75.5454 378.264 75.5454 378.856C75.5454 379.512 74.9214 380.04 73.6094 380.04C72.4574 380.04 71.4654 379.608 71.0814 378.632L70.0414 379.352C70.6494 380.584 72.0094 381.16 73.4814 381.16ZM86.0629 376.584C86.0629 374.52 84.7989 372.84 82.4789 372.84C80.0629 372.84 78.7029 374.408 78.7029 377C78.7029 379.592 80.1589 381.16 82.5749 381.16C84.3029 381.16 85.2949 380.504 85.9029 379.416L84.8309 378.856C84.5429 379.624 83.7429 380.04 82.5749 380.04C81.1029 380.04 80.1269 379.096 79.9669 377.48H85.9989C86.0309 377.256 86.0629 376.952 86.0629 376.584ZM82.4789 373.96C83.8389 373.96 84.6549 374.872 84.8309 376.344H79.9829C80.1749 374.84 81.0549 373.96 82.4789 373.96ZM89.7118 369.32H88.4318V379.016C88.4318 380.472 89.0558 381.16 90.3518 381.16C90.7678 381.16 91.1998 381.08 91.5358 380.936L91.7438 379.704C91.2798 379.88 91.0078 379.928 90.5758 379.928C89.9198 379.928 89.7118 379.672 89.7118 378.856V369.32ZM94.6024 369.32H93.3224V379.016C93.3224 380.472 93.9464 381.16 95.2424 381.16C95.6584 381.16 96.0904 381.08 96.4264 380.936L96.6344 379.704C96.1704 379.88 95.8984 379.928 95.4664 379.928C94.8104 379.928 94.6024 379.672 94.6024 378.856V369.32ZM98.9171 371.464C99.4931 371.464 99.8771 371.08 99.8771 370.504C99.8771 369.928 99.4931 369.544 98.9171 369.544C98.3411 369.544 97.9571 369.928 97.9571 370.504C97.9571 371.08 98.3411 371.464 98.9171 371.464ZM99.5571 373H98.2771V381H99.5571V373ZM106.415 372.84C105.311 372.84 104.287 373.24 103.727 374.248L103.647 373H102.527V381H103.807V376.744C103.807 374.696 105.119 373.96 106.287 373.96C107.391 373.96 108.255 374.552 108.255 376.328V381H109.535V375.88C109.535 373.816 108.127 372.84 106.415 372.84ZM116.897 379.976H114.241C113.617 379.976 113.185 379.672 113.185 379.112C113.185 378.568 113.441 378.248 114.081 378.104C114.433 378.2 114.849 378.248 115.313 378.248C117.233 378.248 118.593 377.128 118.593 375.544C118.593 374.712 118.225 374.008 117.585 373.528C117.809 372.952 118.417 372.648 119.489 372.648L119.201 371.528C118.001 371.528 117.249 372.056 116.945 373.16C116.465 372.952 115.921 372.84 115.313 372.84C113.393 372.84 112.033 373.96 112.033 375.544C112.033 376.472 112.433 377.256 113.201 377.736C112.497 377.976 112.001 378.472 112.001 379.304C112.001 380.008 112.481 380.488 113.089 380.776C112.209 381.016 111.681 381.592 111.681 382.328C111.681 383.528 112.833 384.44 115.361 384.44C117.521 384.44 119.313 383.464 119.313 381.88C119.313 380.728 118.417 379.976 116.897 379.976ZM115.313 373.88C116.417 373.88 117.265 374.552 117.265 375.544C117.265 376.536 116.417 377.208 115.313 377.208C114.209 377.208 113.361 376.536 113.361 375.544C113.361 374.552 114.209 373.88 115.313 373.88ZM115.505 383.368C113.745 383.368 112.865 382.856 112.865 382.072C112.865 381.464 113.393 381.08 114.401 381.08H116.545C117.745 381.08 118.129 381.448 118.129 382.024C118.129 382.728 117.201 383.368 115.505 383.368ZM133.061 373H131.685L129.813 378.056L129.237 379.64L128.741 378.216L126.741 373H125.285L128.629 380.984L128.213 382.024C127.813 383.08 127.317 383.32 126.757 383.32C126.309 383.32 125.829 383.192 125.461 382.68L125.013 383.768C125.461 384.248 125.973 384.44 126.773 384.44C127.957 384.44 128.677 383.912 129.301 382.344L133.061 373ZM138.2 372.84C135.784 372.84 134.328 374.408 134.328 377C134.328 379.592 135.784 381.16 138.2 381.16C140.616 381.16 142.072 379.592 142.072 377C142.072 374.408 140.616 372.84 138.2 372.84ZM138.2 373.944C139.816 373.944 140.792 375.096 140.792 377C140.792 378.904 139.816 380.056 138.2 380.056C136.584 380.056 135.608 378.904 135.608 377C135.608 375.096 136.584 373.944 138.2 373.944ZM150.206 373V377.352C150.206 379.24 149.006 380.04 147.646 380.04C146.494 380.04 145.758 379.544 145.758 377.896V373H144.478V378.232C144.478 380.344 145.838 381.16 147.422 381.16C148.702 381.16 149.726 380.744 150.286 379.784L150.366 381H151.486V373H150.206ZM158.241 372.84C156.993 372.84 156.129 373.336 155.681 374.312L155.505 373H154.465V381H155.745V376.68C155.745 374.888 156.897 374.04 157.857 374.04C158.273 374.04 158.625 374.12 158.865 374.248L159.121 373C158.881 372.872 158.513 372.84 158.241 372.84ZM174.602 370.44H173.386V377.896L173.45 379.592H173.434L172.298 377.48L167.898 370.44H166.314V381H167.53V373.544L167.466 371.848H167.482L168.602 373.928L173.018 381H174.602V370.44ZM185.456 371.64V370.44H178.064V381H179.344V376.248H184.112V375.048H179.344V371.64H185.456ZM195.254 370.44H186.614V371.64H190.294V381H191.574V371.64H195.254V370.44ZM198.372 381.16C200.42 381.16 201.716 380.184 201.716 378.792C201.716 377.48 200.916 376.808 198.676 376.44C197.044 376.168 196.516 375.816 196.516 375.128C196.516 374.536 197.316 373.96 198.388 373.96C199.396 373.96 200.116 374.344 200.468 375.4L201.556 374.76C201.108 373.448 200.1 372.84 198.388 372.84C196.436 372.84 195.236 373.944 195.236 375.24C195.236 376.584 196.068 377.208 198.34 377.624C199.94 377.912 200.436 378.264 200.436 378.856C200.436 379.512 199.812 380.04 198.5 380.04C197.348 380.04 196.356 379.608 195.972 378.632L194.932 379.352C195.54 380.584 196.9 381.16 198.372 381.16ZM212.919 372.84C210.503 372.84 209.047 374.408 209.047 377C209.047 379.592 210.503 381.16 212.919 381.16C215.335 381.16 216.791 379.592 216.791 377C216.791 374.408 215.335 372.84 212.919 372.84ZM212.919 373.944C214.535 373.944 215.511 375.096 215.511 377C215.511 378.904 214.535 380.056 212.919 380.056C211.303 380.056 210.327 378.904 210.327 377C210.327 375.096 211.303 373.944 212.919 373.944ZM223.053 372.84C221.805 372.84 220.941 373.336 220.493 374.312L220.317 373H219.277V381H220.557V376.68C220.557 374.888 221.709 374.04 222.669 374.04C223.085 374.04 223.437 374.12 223.677 374.248L223.933 373C223.693 372.872 223.325 372.84 223.053 372.84ZM235.022 379.368C234.654 379.736 234.238 379.96 233.662 379.96C232.958 379.96 232.462 379.576 232.462 378.792V374.104H235.422V373H232.462V370.728L231.182 371.08V373H229.582V374.104H231.182V379.016C231.198 380.568 232.222 381.16 233.406 381.16C234.286 381.16 234.974 380.888 235.47 380.44L235.022 379.368ZM241.053 372.84C239.805 372.84 238.941 373.336 238.493 374.312L238.317 373H237.277V381H238.557V376.68C238.557 374.888 239.709 374.04 240.669 374.04C241.085 374.04 241.437 374.12 241.677 374.248L241.933 373C241.693 372.872 241.325 372.84 241.053 372.84ZM250.15 380.072C249.702 380.072 249.542 379.88 249.542 379.496V375.56C249.542 373.704 248.214 372.84 246.39 372.84C244.838 372.84 243.574 373.608 243.158 374.792L244.102 375.48C244.534 374.472 245.334 373.96 246.39 373.96C247.59 373.96 248.262 374.664 248.262 375.72V376.168L246.134 376.52C244.07 376.872 243.014 377.816 243.014 379.016C243.014 380.456 244.23 381.16 245.734 381.16C246.758 381.16 247.798 380.728 248.31 379.976C248.454 380.872 248.966 381.16 249.75 381.16C250.15 381.16 250.486 381.08 250.71 381L250.79 379.992C250.598 380.04 250.358 380.072 250.15 380.072ZM245.798 380.04C244.886 380.04 244.342 379.688 244.342 379.016C244.342 378.264 245.062 377.8 246.47 377.544L248.262 377.208V378.312C248.262 379.368 247.078 380.04 245.798 380.04ZM258.476 369.32V374.248C257.98 373.416 257.02 372.84 255.82 372.84C253.596 372.84 252.172 374.392 252.172 377C252.172 379.608 253.596 381.16 255.82 381.16C257.084 381.16 258.092 380.52 258.556 379.608L258.636 381H259.756V369.32H258.476ZM255.964 380.04C254.396 380.04 253.452 378.856 253.452 377C253.452 375.144 254.396 373.96 255.964 373.96C257.484 373.96 258.476 375.096 258.476 376.904V377.096C258.476 378.904 257.484 380.04 255.964 380.04ZM263.37 371.464C263.946 371.464 264.33 371.08 264.33 370.504C264.33 369.928 263.946 369.544 263.37 369.544C262.794 369.544 262.41 369.928 262.41 370.504C262.41 371.08 262.794 371.464 263.37 371.464ZM264.01 373H262.73V381H264.01V373ZM270.868 372.84C269.764 372.84 268.74 373.24 268.18 374.248L268.1 373H266.98V381H268.26V376.744C268.26 374.696 269.572 373.96 270.74 373.96C271.844 373.96 272.708 374.552 272.708 376.328V381H273.988V375.88C273.988 373.816 272.58 372.84 270.868 372.84ZM281.35 379.976H278.694C278.07 379.976 277.638 379.672 277.638 379.112C277.638 378.568 277.894 378.248 278.534 378.104C278.886 378.2 279.302 378.248 279.766 378.248C281.686 378.248 283.046 377.128 283.046 375.544C283.046 374.712 282.678 374.008 282.038 373.528C282.262 372.952 282.87 372.648 283.942 372.648L283.654 371.528C282.454 371.528 281.702 372.056 281.398 373.16C280.918 372.952 280.374 372.84 279.766 372.84C277.846 372.84 276.486 373.96 276.486 375.544C276.486 376.472 276.886 377.256 277.654 377.736C276.95 377.976 276.454 378.472 276.454 379.304C276.454 380.008 276.934 380.488 277.542 380.776C276.662 381.016 276.134 381.592 276.134 382.328C276.134 383.528 277.286 384.44 279.814 384.44C281.974 384.44 283.766 383.464 283.766 381.88C283.766 380.728 282.87 379.976 281.35 379.976ZM279.766 373.88C280.87 373.88 281.718 374.552 281.718 375.544C281.718 376.536 280.87 377.208 279.766 377.208C278.662 377.208 277.814 376.536 277.814 375.544C277.814 374.552 278.662 373.88 279.766 373.88ZM279.958 383.368C278.198 383.368 277.318 382.856 277.318 382.072C277.318 381.464 277.846 381.08 278.854 381.08H280.998C282.198 381.08 282.582 381.448 282.582 382.024C282.582 382.728 281.654 383.368 279.958 383.368ZM142.677 394.84C140.261 394.84 138.805 396.408 138.805 399C138.805 401.592 140.261 403.16 142.677 403.16C145.093 403.16 146.549 401.592 146.549 399C146.549 396.408 145.093 394.84 142.677 394.84ZM142.677 395.944C144.293 395.944 145.269 397.096 145.269 399C145.269 400.904 144.293 402.056 142.677 402.056C141.061 402.056 140.085 400.904 140.085 399C140.085 397.096 141.061 395.944 142.677 395.944ZM153.342 401.368C152.974 401.736 152.558 401.96 151.982 401.96C151.278 401.96 150.782 401.576 150.782 400.792V396.104H153.742V395H150.782V392.728L149.502 393.08V395H147.902V396.104H149.502V401.016C149.518 402.568 150.542 403.16 151.726 403.16C152.606 403.16 153.294 402.888 153.79 402.44L153.342 401.368ZM159.485 394.84C158.397 394.84 157.437 395.24 156.877 396.2V391.32H155.597V403H156.877V398.76C156.877 396.712 158.189 395.96 159.357 395.96C160.461 395.96 161.325 396.552 161.325 398.328V403H162.605V397.88C162.605 395.816 161.197 394.84 159.485 394.84ZM172.368 398.584C172.368 396.52 171.104 394.84 168.784 394.84C166.368 394.84 165.008 396.408 165.008 399C165.008 401.592 166.464 403.16 168.88 403.16C170.608 403.16 171.6 402.504 172.208 401.416L171.136 400.856C170.848 401.624 170.048 402.04 168.88 402.04C167.408 402.04 166.432 401.096 166.272 399.48H172.304C172.336 399.256 172.368 398.952 172.368 398.584ZM168.784 395.96C170.144 395.96 170.96 396.872 171.136 398.344H166.288C166.48 396.84 167.36 395.96 168.784 395.96ZM178.577 394.84C177.329 394.84 176.465 395.336 176.017 396.312L175.841 395H174.801V403H176.081V398.68C176.081 396.888 177.233 396.04 178.193 396.04C178.609 396.04 178.961 396.12 179.201 396.248L179.457 395C179.217 394.872 178.849 394.84 178.577 394.84ZM183.708 403.16C185.756 403.16 187.052 402.184 187.052 400.792C187.052 399.48 186.252 398.808 184.012 398.44C182.38 398.168 181.852 397.816 181.852 397.128C181.852 396.536 182.652 395.96 183.724 395.96C184.732 395.96 185.452 396.344 185.804 397.4L186.892 396.76C186.444 395.448 185.436 394.84 183.724 394.84C181.772 394.84 180.572 395.944 180.572 397.24C180.572 398.584 181.404 399.208 183.676 399.624C185.276 399.912 185.772 400.264 185.772 400.856C185.772 401.512 185.148 402.04 183.836 402.04C182.684 402.04 181.692 401.608 181.308 400.632L180.268 401.352C180.876 402.584 182.236 403.16 183.708 403.16ZM190.066 401.08C189.442 401.08 189.026 401.496 189.026 402.12C189.026 402.744 189.442 403.16 190.066 403.16C190.69 403.16 191.106 402.744 191.106 402.12C191.106 401.496 190.69 401.08 190.066 401.08Z" fill="white"/>
<defs>
<filter id="filter0_f_39944_5901" x="47.5938" y="17.5938" width="247.492" height="247.492" filterUnits="userSpaceOnUse" color-interpolation-filters="sRGB">
<feFlood flood-opacity="0" result="BackgroundImageFix"/>
<feBlend mode="normal" in="SourceGraphic" in2="BackgroundImageFix" result="shape"/>
<feGaussianBlur stdDeviation="27" result="effect1_foregroundBlur_39944_5901"/>
</filter>
<filter id="filter1_f_39944_5901" x="81.1603" y="184.326" width="159.803" height="61.6111" filterUnits="userSpaceOnUse" color-interpolation-filters="sRGB">
<feFlood flood-opacity="0" result="BackgroundImageFix"/>
<feBlend mode="normal" in="SourceGraphic" in2="BackgroundImageFix" result="shape"/>
<feGaussianBlur stdDeviation="10.3437" result="effect1_foregroundBlur_39944_5901"/>
</filter>
<filter id="filter2_i_39944_5901" x="118.939" y="69.7773" width="62.0681" height="78.8862" filterUnits="userSpaceOnUse" color-interpolation-filters="sRGB">
<feFlood flood-opacity="0" result="BackgroundImageFix"/>
<feBlend mode="normal" in="SourceGraphic" in2="BackgroundImageFix" result="shape"/>
<feColorMatrix in="SourceAlpha" type="matrix" values="0 0 0 0 0 0 0 0 0 0 0 0 0 0 0 0 0 0 127 0" result="hardAlpha"/>
<feOffset dx="2.38455" dy="5.56394"/>
<feGaussianBlur stdDeviation="5.96137"/>
<feComposite in2="hardAlpha" operator="arithmetic" k2="-1" k3="1"/>
<feColorMatrix type="matrix" values="0 0 0 0 0.104618 0 0 0 0 0.465612 0 0 0 0 0.545833 0 0 0 0.15 0"/>
<feBlend mode="normal" in2="shape" result="effect1_innerShadow_39944_5901"/>
</filter>
<filter id="filter3_i_39944_5901" x="152.846" y="85.0664" width="65.2626" height="36.3463" filterUnits="userSpaceOnUse" color-interpolation-filters="sRGB">
<feFlood flood-opacity="0" result="BackgroundImageFix"/>
<feBlend mode="normal" in="SourceGraphic" in2="BackgroundImageFix" result="shape"/>
<feColorMatrix in="SourceAlpha" type="matrix" values="0 0 0 0 0 0 0 0 0 0 0 0 0 0 0 0 0 0 127 0" result="hardAlpha"/>
<feOffset dx="5.62585" dy="3.75056"/>
<feGaussianBlur stdDeviation="6.09467"/>
<feComposite in2="hardAlpha" operator="arithmetic" k2="-1" k3="1"/>
<feColorMatrix type="matrix" values="0 0 0 0 0.104618 0 0 0 0 0.465612 0 0 0 0 0.545833 0 0 0 0.09 0"/>
<feBlend mode="normal" in2="shape" result="effect1_innerShadow_39944_5901"/>
</filter>
<linearGradient id="paint0_linear_39944_5901" x1="89.895" y1="30.834" x2="248.898" y2="63.9327" gradientUnits="userSpaceOnUse">
<stop stop-color="#A259FF"/>
<stop offset="1" stop-color="#3B3B3B"/>
</linearGradient>
<linearGradient id="paint1_linear_39944_5901" x1="201.231" y1="197.801" x2="154.714" y2="192.499" gradientUnits="userSpaceOnUse">
<stop stop-color="#A259FF" stop-opacity="0"/>
<stop offset="1" stop-color="#FF6250"/>
</linearGradient>
<linearGradient id="paint2_linear_39944_5901" x1="248.957" y1="83.4895" x2="262.299" y2="93.9693" gradientUnits="userSpaceOnUse">
<stop stop-color="#A259FF"/>
<stop offset="1" stop-color="#377DF7"/>
</linearGradient>
<linearGradient id="paint3_linear_39944_5901" x1="91.0836" y1="214.28" x2="90.6379" y2="227.555" gradientUnits="userSpaceOnUse">
<stop stop-color="#A259FF"/>
<stop offset="1" stop-color="#377DF7"/>
</linearGradient>
<linearGradient id="paint4_linear_39944_5901" x1="234.86" y1="191.393" x2="248.12" y2="190.633" gradientUnits="userSpaceOnUse">
<stop stop-color="#A259FF"/>
<stop offset="1" stop-color="#377DF7"/>
</linearGradient>
<radialGradient id="paint5_radial_39944_5901" cx="0" cy="0" r="1" gradientUnits="userSpaceOnUse" gradientTransform="translate(161.062 215.132) rotate(90) scale(10.1188 59.2142)">
<stop stop-color="#2B2B2B"/>
<stop offset="1" stop-color="#2B2B2B" stop-opacity="0"/>
</radialGradient>
<linearGradient id="paint6_linear_39944_5901" x1="126.099" y1="76.2332" x2="176.258" y2="74.6874" gradientUnits="userSpaceOnUse">
<stop stop-color="#A259FF"/>
<stop offset="1" stop-color="#3B3B3B"/>
</linearGradient>
<linearGradient id="paint7_linear_39944_5901" x1="158.27" y1="101.702" x2="154.978" y2="91.9423" gradientUnits="userSpaceOnUse">
<stop stop-color="#A259FF"/>
<stop offset="0.666667" stop-color="white"/>
</linearGradient>
<linearGradient id="paint8_linear_39944_5901" x1="162.856" y1="127.357" x2="159.697" y2="117.886" gradientUnits="userSpaceOnUse">
<stop stop-color="#A259FF"/>
<stop offset="0.666667" stop-color="white"/>
</linearGradient>
<linearGradient id="paint9_linear_39944_5901" x1="160.481" y1="113.886" x2="157.321" y2="104.415" gradientUnits="userSpaceOnUse">
<stop stop-color="#A259FF"/>
<stop offset="0.666667" stop-color="white"/>
</linearGradient>
<linearGradient id="paint10_linear_39944_5901" x1="152.846" y1="124.984" x2="189.544" y2="69.9061" gradientUnits="userSpaceOnUse">
<stop stop-color="#A259FF"/>
<stop offset="1" stop-color="#FF6250"/>
</linearGradient>
<linearGradient id="paint11_linear_39944_5901" x1="181.924" y1="188.175" x2="169.343" y2="129.126" gradientUnits="userSpaceOnUse">
<stop stop-color="#A259FF"/>
<stop offset="0.666667" stop-color="white"/>
</linearGradient>
<linearGradient id="paint12_linear_39944_5901" x1="223.859" y1="133.353" x2="252.9" y2="167.155" gradientUnits="userSpaceOnUse">
<stop stop-color="#A259FF"/>
<stop offset="1" stop-color="#377DF7"/>
</linearGradient>
<linearGradient id="paint13_linear_39944_5901" x1="141.593" y1="197.156" x2="116.77" y2="171.794" gradientUnits="userSpaceOnUse">
<stop stop-color="#A259FF"/>
<stop offset="0.666667" stop-color="white"/>
</linearGradient>
<linearGradient id="paint14_linear_39944_5901" x1="185.221" y1="168.18" x2="135.324" y2="68.7037" gradientUnits="userSpaceOnUse">
<stop stop-color="#A259FF"/>
<stop offset="0.666667" stop-color="white"/>
</linearGradient>
<linearGradient id="paint15_linear_39944_5901" x1="129.563" y1="193.031" x2="145.055" y2="196.017" gradientUnits="userSpaceOnUse">
<stop stop-color="white"/>
<stop offset="1" stop-color="#BCF3FF"/>
</linearGradient>
<linearGradient id="paint16_linear_39944_5901" x1="116.305" y1="131.766" x2="207.648" y2="149" gradientUnits="userSpaceOnUse">
<stop stop-color="#AFF1FF"/>
<stop offset="1" stop-color="#65C8DE"/>
</linearGradient>
<linearGradient id="paint17_linear_39944_5901" x1="191.901" y1="137.272" x2="193.387" y2="118.464" gradientUnits="userSpaceOnUse">
<stop stop-color="#A259FF"/>
<stop offset="0.666667" stop-color="white"/>
</linearGradient>
<clipPath id="clip0_39944_5901">
<rect width="250" height="250" fill="white" transform="translate(40 10)"/>
</clipPath>
</defs>
</svg>
