<svg width="224" height="60" viewBox="0 0 224 60" fill="none" xmlns="http://www.w3.org/2000/svg">
<rect width="224" height="60" rx="20" fill="#A259FF"/>
<path fill-rule="evenodd" clip-rule="evenodd" d="M56.1705 32.4494C56.2805 32.7766 56.1045 33.131 55.7773 33.241C54.7179 33.5973 54.1549 34.4866 53.8537 35.391C53.7341 35.7501 53.6619 36.0958 53.6185 36.3817C53.9043 36.3383 54.2501 36.266 54.6092 36.1464C55.5136 35.8453 56.4029 35.2823 56.7592 34.2228C56.8692 33.8957 57.2236 33.7196 57.5508 33.8296C57.878 33.9397 58.054 34.2941 57.944 34.6213C57.4096 36.2103 56.088 36.9715 55.0041 37.3324C54.4566 37.5148 53.9439 37.6048 53.5698 37.6497C53.3818 37.6722 53.2264 37.6836 53.116 37.6894C53.0607 37.6924 53.0166 37.6939 52.9851 37.6946C52.9693 37.695 52.9567 37.6952 52.9474 37.6954L52.936 37.6955L52.9322 37.6955L52.9308 37.6955L52.9302 37.6955C52.9299 37.6955 52.9297 37.6955 52.9297 37.0705C52.3047 37.0705 52.3047 37.0702 52.3047 37.07L52.3047 37.0694L52.3047 37.068L52.3047 37.0642L52.3048 37.0528C52.3049 37.0435 52.3051 37.0309 52.3055 37.0151C52.3063 36.9836 52.3078 36.9394 52.3107 36.8842C52.3165 36.7738 52.328 36.6184 52.3505 36.4304C52.3954 36.0562 52.4854 35.5436 52.6678 34.9961C53.0287 33.9122 53.7899 32.5906 55.3789 32.0562C55.7061 31.9462 56.0605 32.1222 56.1705 32.4494ZM52.9297 37.0705H52.3047C52.3047 37.4157 52.5845 37.6955 52.9297 37.6955V37.0705Z" fill="white"/>
<path fill-rule="evenodd" clip-rule="evenodd" d="M66.5462 23.4541C65.8208 23.3494 64.0351 23.31 62.2076 25.1375L57.3448 30.0003L60 32.6555L64.8627 27.7927C66.6903 25.9652 66.6508 24.1795 66.5462 23.4541ZM66.7275 22.2173C65.7298 22.0728 63.5058 22.0716 61.3237 24.2536L56.019 29.5583C55.9018 29.6755 55.8359 29.8345 55.8359 30.0003C55.8359 30.166 55.9018 30.325 56.019 30.4422L59.5581 33.9813C59.8021 34.2254 60.1979 34.2254 60.4419 33.9813L65.7466 28.6766C67.9287 26.4945 67.9275 24.2705 67.783 23.2728C67.7465 23.0058 67.6235 22.758 67.4329 22.5674C67.2422 22.3768 66.9945 22.2538 66.7275 22.2173Z" fill="white"/>
<path fill-rule="evenodd" clip-rule="evenodd" d="M64.422 28.4922C64.7672 28.4922 65.047 28.772 65.047 29.1172V34.1641L65.0469 34.173C65.0423 34.5013 64.9086 34.8145 64.675 35.045L62.1527 37.575C61.9926 37.7349 61.7921 37.8484 61.5725 37.9033C61.353 37.9582 61.1227 37.9524 60.9061 37.8867C60.6896 37.8209 60.495 37.6976 60.343 37.5299C60.1912 37.3623 60.0877 37.1567 60.0435 36.9349C60.0434 36.9347 60.0435 36.9351 60.0435 36.9349L59.3873 33.6619C59.3195 33.3235 59.5388 32.9941 59.8773 32.9263C60.2157 32.8584 60.5451 33.0778 60.6129 33.4162L61.2694 36.6906L63.797 34.1552V29.1172C63.797 28.772 64.0768 28.4922 64.422 28.4922Z" fill="white"/>
<path fill-rule="evenodd" clip-rule="evenodd" d="M55.8272 24.9532L55.8361 24.9531H60.883C61.2282 24.9531 61.508 25.2329 61.508 25.5781C61.508 25.9233 61.2282 26.2031 60.883 26.2031H55.845L55.8399 26.2083L55.8399 26.2082L53.3096 28.7307L53.3105 28.7309L56.584 29.3872C56.9224 29.455 57.1418 29.7844 57.0739 30.1229C57.0061 30.4613 56.6767 30.6807 56.3383 30.6128L53.0658 29.9567C53.0656 29.9567 53.0654 29.9567 53.0652 29.9566C52.8435 29.9124 52.6379 29.8089 52.4703 29.6571C52.3026 29.5052 52.1793 29.3105 52.1135 29.094C52.0477 28.8775 52.042 28.6471 52.0969 28.4276C52.1518 28.208 52.2652 28.0075 52.4252 27.8474L52.4261 27.8464L52.4261 27.8464L54.9552 25.3251C55.1857 25.0915 55.4989 24.9579 55.8272 24.9532Z" fill="white"/>
<path d="M87.7469 29.416V31.048H90.8349V31.288C90.8349 32.696 89.7309 33.384 88.3069 33.384C86.3549 33.384 85.3469 32.12 85.3469 29.72C85.3469 27.368 86.4509 26.088 88.2589 26.088C89.4269 26.088 90.3229 26.632 90.6589 27.752L92.6909 26.872C91.8589 25.08 90.4829 24.28 88.1949 24.28C85.0589 24.28 83.0589 26.344 83.0589 29.736C83.0589 33.176 85.0589 35.16 87.9549 35.16C89.4429 35.16 90.4669 34.632 91.0749 33.736L91.1229 35H92.7389V29.416H87.7469ZM102.397 30.968C102.397 28.344 101.037 26.84 98.5414 26.84C95.9654 26.84 94.5094 28.376 94.5094 31C94.5094 33.624 96.0134 35.16 98.6694 35.16C100.477 35.16 101.709 34.472 102.221 33.192L100.429 32.536C100.205 33.176 99.5974 33.528 98.6694 33.528C97.5974 33.528 96.8934 32.984 96.6694 31.832H102.333C102.365 31.624 102.397 31.192 102.397 30.968ZM98.5254 28.456C99.5334 28.456 100.205 29.096 100.381 30.296H96.6534C96.8294 29.08 97.4694 28.456 98.5254 28.456ZM109.249 33.048C108.913 33.336 108.545 33.496 108.017 33.496C107.329 33.496 106.913 33.16 106.913 32.392V28.632H109.505V27H106.913V24.552L104.721 25.16V27H103.265V28.632H104.721V32.744C104.721 34.504 105.809 35.16 107.393 35.16C108.241 35.16 109.073 34.92 109.585 34.504L109.249 33.048ZM119.927 24.28C117.191 24.28 115.607 25.736 115.607 27.608C115.607 29.368 116.727 30.264 119.671 30.856C121.415 31.208 121.975 31.544 121.975 32.12C121.975 32.92 121.239 33.352 119.879 33.352C118.455 33.352 117.447 33 116.615 31.624L115.303 33.192C116.199 34.472 117.559 35.16 119.959 35.16C122.487 35.16 124.295 33.976 124.295 31.992C124.295 30.232 123.223 29.352 120.375 28.824C118.519 28.488 117.943 28.104 117.943 27.4C117.943 26.648 118.615 26.088 119.943 26.088C121.367 26.088 122.247 26.664 122.791 27.8L124.311 26.312C123.239 24.904 121.895 24.28 119.927 24.28ZM131.281 33.048C130.945 33.336 130.577 33.496 130.049 33.496C129.361 33.496 128.945 33.16 128.945 32.392V28.632H131.537V27H128.945V24.552L126.753 25.16V27H125.297V28.632H126.753V32.744C126.753 34.504 127.841 35.16 129.425 35.16C130.273 35.16 131.105 34.92 131.617 34.504L131.281 33.048ZM140.378 33.672C139.962 33.672 139.786 33.48 139.786 33.064V29.784C139.786 27.8 138.378 26.84 136.154 26.84C134.202 26.84 133.002 27.704 132.666 29.064L134.41 29.8C134.65 28.792 135.322 28.44 136.25 28.44C137.114 28.44 137.61 28.984 137.61 29.832V30.216L135.69 30.584C133.546 30.984 132.57 31.864 132.57 33.112C132.57 34.456 133.53 35.16 135.05 35.16C136.394 35.16 137.402 34.744 137.882 33.96C138.106 34.824 138.762 35.16 139.722 35.16C140.122 35.16 140.474 35.08 140.762 34.936L140.922 33.608C140.762 33.656 140.57 33.672 140.378 33.672ZM135.738 33.672C135.162 33.672 134.826 33.4 134.826 32.888C134.826 32.36 135.194 32.104 135.898 31.944L137.61 31.56V32.392C137.61 33.24 136.57 33.672 135.738 33.672ZM146.782 26.84C145.534 26.84 144.718 27.464 144.302 28.568L144.158 27H142.254V35H144.446V30.856C144.446 29.4 145.406 28.696 146.366 28.696C146.782 28.696 147.15 28.792 147.374 28.936L147.646 27.016C147.454 26.904 147.134 26.84 146.782 26.84ZM153.859 33.048C153.523 33.336 153.155 33.496 152.627 33.496C151.939 33.496 151.523 33.16 151.523 32.392V28.632H154.115V27H151.523V24.552L149.331 25.16V27H147.875V28.632H149.331V32.744C149.331 34.504 150.419 35.16 152.003 35.16C152.851 35.16 153.683 34.92 154.195 34.504L153.859 33.048ZM163.038 30.968C163.038 28.344 161.678 26.84 159.182 26.84C156.606 26.84 155.15 28.376 155.15 31C155.15 33.624 156.654 35.16 159.31 35.16C161.118 35.16 162.35 34.472 162.862 33.192L161.07 32.536C160.846 33.176 160.238 33.528 159.31 33.528C158.238 33.528 157.534 32.984 157.31 31.832H162.974C163.006 31.624 163.038 31.192 163.038 30.968ZM159.166 28.456C160.174 28.456 160.846 29.096 161.022 30.296H157.294C157.47 29.08 158.11 28.456 159.166 28.456ZM170.431 23.496V28.296C169.967 27.416 169.103 26.84 167.935 26.84C165.823 26.84 164.511 28.392 164.511 31.016C164.511 33.624 165.807 35.16 167.935 35.16C169.167 35.16 170.111 34.52 170.575 33.56L170.671 35H172.623V23.496H170.431ZM168.591 33.48C167.423 33.48 166.719 32.632 166.719 31C166.719 29.368 167.423 28.52 168.591 28.52C169.647 28.52 170.319 29.256 170.431 30.536V31.464C170.319 32.776 169.631 33.48 168.591 33.48Z" fill="white"/>
</svg>
