<svg width="187" height="60" viewBox="0 0 187 60" fill="none" xmlns="http://www.w3.org/2000/svg">
<rect x="1" y="1" width="185" height="58" rx="19" stroke="#A259FF" stroke-width="2"/>
<path fill-rule="evenodd" clip-rule="evenodd" d="M52.8393 26.7456C54.3292 25.2557 56.6671 23.75 60 23.75C63.3329 23.75 65.6708 25.2557 67.1607 26.7456C67.9038 27.4887 68.4397 28.2308 68.7906 28.7881C68.9664 29.0672 69.0966 29.3015 69.184 29.4683C69.2277 29.5518 69.2608 29.6185 69.2835 29.6657C69.2949 29.6893 69.3037 29.708 69.3099 29.7216L69.3174 29.7379L69.3197 29.7431L69.3206 29.7449L69.3209 29.7456C69.321 29.7459 69.3211 29.7462 68.75 30C69.3211 30.2538 69.321 30.2541 69.3209 30.2544L69.3206 30.2551L69.3197 30.2569L69.3174 30.2621L69.3099 30.2784C69.3037 30.292 69.2949 30.3107 69.2835 30.3343C69.2608 30.3815 69.2277 30.4482 69.184 30.5317C69.0966 30.6985 68.9664 30.9328 68.7906 31.2119C68.4397 31.7692 67.9038 32.5113 67.1607 33.2544C65.6708 34.7443 63.3329 36.25 60 36.25C56.6671 36.25 54.3292 34.7443 52.8393 33.2544C52.0962 32.5113 51.5603 31.7692 51.2094 31.2119C51.0336 30.9328 50.9034 30.6985 50.816 30.5317C50.7723 30.4482 50.7392 30.3815 50.7165 30.3343C50.7051 30.3107 50.6963 30.292 50.6901 30.2784L50.6826 30.2621L50.6803 30.2569L50.6794 30.2551L50.6791 30.2544C50.679 30.2541 50.6789 30.2538 51.25 30C50.6789 29.7462 50.679 29.7459 50.6791 29.7456L50.6794 29.7449L50.6803 29.7431L50.6826 29.7379L50.6901 29.7216C50.6963 29.708 50.7051 29.6893 50.7165 29.6657C50.7392 29.6185 50.7723 29.5518 50.816 29.4683C50.9034 29.3015 51.0336 29.0672 51.2094 28.7881C51.5603 28.2308 52.0962 27.4887 52.8393 26.7456ZM51.25 30L50.6789 29.7462C50.607 29.9078 50.607 30.0922 50.6789 30.2538L51.25 30ZM51.9488 30C52.0223 30.1377 52.1279 30.3248 52.2672 30.5459C52.5803 31.0433 53.0601 31.7074 53.7232 32.3706C55.0458 33.6932 57.0829 35 60 35C62.9171 35 64.9542 33.6932 66.2768 32.3706C66.9399 31.7074 67.4197 31.0433 67.7328 30.5459C67.8721 30.3248 67.9777 30.1377 68.0512 30C67.9777 29.8623 67.8721 29.6752 67.7328 29.4541C67.4197 28.9567 66.9399 28.2926 66.2768 27.6294C64.9542 26.3068 62.9171 25 60 25C57.0829 25 55.0458 26.3068 53.7232 27.6294C53.0601 28.2926 52.5803 28.9567 52.2672 29.4541C52.1279 29.6752 52.0223 29.8623 51.9488 30ZM68.75 30L69.3211 30.2538C69.393 30.0922 69.393 29.9078 69.3211 29.7462L68.75 30Z" fill="#A259FF"/>
<path fill-rule="evenodd" clip-rule="evenodd" d="M60 27.5C58.6193 27.5 57.5 28.6193 57.5 30C57.5 31.3807 58.6193 32.5 60 32.5C61.3807 32.5 62.5 31.3807 62.5 30C62.5 28.6193 61.3807 27.5 60 27.5ZM56.25 30C56.25 27.9289 57.9289 26.25 60 26.25C62.0711 26.25 63.75 27.9289 63.75 30C63.75 32.0711 62.0711 33.75 60 33.75C57.9289 33.75 56.25 32.0711 56.25 30Z" fill="#A259FF"/>
<path d="M87.5914 24.28C84.8554 24.28 83.2714 25.736 83.2714 27.608C83.2714 29.368 84.3914 30.264 87.3354 30.856C89.0794 31.208 89.6394 31.544 89.6394 32.12C89.6394 32.92 88.9034 33.352 87.5434 33.352C86.1194 33.352 85.1114 33 84.2794 31.624L82.9674 33.192C83.8634 34.472 85.2234 35.16 87.6234 35.16C90.1514 35.16 91.9594 33.976 91.9594 31.992C91.9594 30.232 90.8874 29.352 88.0394 28.824C86.1834 28.488 85.6074 28.104 85.6074 27.4C85.6074 26.648 86.2794 26.088 87.6074 26.088C89.0314 26.088 89.9114 26.664 90.4554 27.8L91.9754 26.312C90.9034 24.904 89.5594 24.28 87.5914 24.28ZM101.265 30.968C101.265 28.344 99.9046 26.84 97.4086 26.84C94.8326 26.84 93.3766 28.376 93.3766 31C93.3766 33.624 94.8806 35.16 97.5366 35.16C99.3446 35.16 100.577 34.472 101.089 33.192L99.2966 32.536C99.0726 33.176 98.4646 33.528 97.5366 33.528C96.4646 33.528 95.7606 32.984 95.5366 31.832H101.201C101.233 31.624 101.265 31.192 101.265 30.968ZM97.3926 28.456C98.4006 28.456 99.0726 29.096 99.2486 30.296H95.5206C95.6966 29.08 96.3366 28.456 97.3926 28.456ZM110.577 30.968C110.577 28.344 109.217 26.84 106.721 26.84C104.145 26.84 102.689 28.376 102.689 31C102.689 33.624 104.193 35.16 106.849 35.16C108.657 35.16 109.889 34.472 110.401 33.192L108.609 32.536C108.385 33.176 107.777 33.528 106.849 33.528C105.777 33.528 105.073 32.984 104.849 31.832H110.513C110.545 31.624 110.577 31.192 110.577 30.968ZM106.705 28.456C107.713 28.456 108.385 29.096 108.561 30.296H104.833C105.009 29.08 105.649 28.456 106.705 28.456ZM123.944 35H126.232L122.376 24.44H119.736L115.88 35H118.136L119 32.424H123.08L123.944 35ZM119.56 30.792L120.568 27.784L121.016 26.216H121.048L121.528 27.816L122.536 30.792H119.56ZM129.734 23.496H127.542V32.776C127.542 34.44 128.23 35.16 129.782 35.16C130.31 35.16 130.918 35.032 131.27 34.824L131.462 33.304C131.11 33.432 130.886 33.48 130.518 33.48C129.926 33.48 129.734 33.208 129.734 32.456V23.496ZM134.843 23.496H132.651V32.776C132.651 34.44 133.339 35.16 134.891 35.16C135.419 35.16 136.027 35.032 136.379 34.824L136.571 33.304C136.219 33.432 135.995 33.48 135.627 33.48C135.035 33.48 134.843 33.208 134.843 32.456V23.496Z" fill="white"/>
</svg>
