<svg width="152" height="60" viewBox="0 0 152 60" fill="none" xmlns="http://www.w3.org/2000/svg">
<rect width="152" height="60" rx="20" fill="#A259FF"/>
<path fill-rule="evenodd" clip-rule="evenodd" d="M40 23.125C37.5838 23.125 35.625 25.0838 35.625 27.5C35.625 29.9162 37.5838 31.875 40 31.875C42.4162 31.875 44.375 29.9162 44.375 27.5C44.375 25.0838 42.4162 23.125 40 23.125ZM34.375 27.5C34.375 24.3934 36.8934 21.875 40 21.875C43.1066 21.875 45.625 24.3934 45.625 27.5C45.625 30.6066 43.1066 33.125 40 33.125C36.8934 33.125 34.375 30.6066 34.375 27.5Z" fill="white"/>
<path fill-rule="evenodd" clip-rule="evenodd" d="M40.0001 33.124C38.5737 33.124 37.1725 33.4995 35.9373 34.2128C34.702 34.926 33.6763 35.9518 32.9633 37.1872C32.7907 37.4861 32.4085 37.5886 32.1095 37.416C31.8106 37.2435 31.7081 36.8612 31.8807 36.5623C32.7035 35.1369 33.887 33.9532 35.3122 33.1303C36.7375 32.3073 38.3543 31.874 40.0001 31.874C41.6459 31.874 43.2627 32.3073 44.688 33.1303C46.1132 33.9532 47.2968 35.1369 48.1195 36.5623C48.2921 36.8612 48.1896 37.2435 47.8907 37.416C47.5917 37.5886 47.2095 37.4861 47.0369 37.1872C46.3239 35.9518 45.2982 34.926 44.0629 34.2128C42.8277 33.4995 41.4265 33.124 40.0001 33.124Z" fill="white"/>
<path d="M67.2554 24.28C64.5194 24.28 62.9354 25.736 62.9354 27.608C62.9354 29.368 64.0554 30.264 66.9994 30.856C68.7434 31.208 69.3034 31.544 69.3034 32.12C69.3034 32.92 68.5674 33.352 67.2074 33.352C65.7834 33.352 64.7754 33 63.9434 31.624L62.6314 33.192C63.5274 34.472 64.8874 35.16 67.2874 35.16C69.8154 35.16 71.6234 33.976 71.6234 31.992C71.6234 30.232 70.5514 29.352 67.7034 28.824C65.8474 28.488 65.2714 28.104 65.2714 27.4C65.2714 26.648 65.9434 26.088 67.2714 26.088C68.6954 26.088 69.5754 26.664 70.1194 27.8L71.6394 26.312C70.5674 24.904 69.2234 24.28 67.2554 24.28ZM74.5138 25.848C75.4258 25.848 75.8738 25.464 75.8738 24.68C75.8738 23.896 75.4258 23.496 74.5138 23.496C73.6018 23.496 73.1538 23.896 73.1538 24.68C73.1538 25.464 73.6018 25.848 74.5138 25.848ZM75.6018 27H73.4098V35H75.6018V27ZM82.7894 33.496H80.0854C79.5254 33.496 79.1734 33.272 79.1734 32.84C79.1734 32.472 79.3494 32.232 79.8134 32.12C80.2454 32.216 80.7254 32.264 81.2534 32.264C83.5254 32.264 84.9174 31.224 84.9174 29.56C84.9174 28.616 84.4854 27.88 83.7014 27.416C83.9414 26.888 84.5654 26.568 85.5734 26.664L85.2854 25.096C83.8454 25.032 83.1094 25.864 82.8534 27.048C82.3894 26.904 81.8454 26.84 81.2534 26.84C78.9814 26.84 77.5734 27.88 77.5734 29.56C77.5734 30.52 78.0054 31.272 78.8374 31.736C78.0694 32.008 77.5574 32.552 77.5574 33.352C77.5574 34.136 78.0854 34.664 78.7414 34.952C77.7654 35.192 77.2854 35.768 77.2854 36.472C77.2854 37.64 78.4694 38.44 81.2214 38.44C83.7334 38.44 85.5254 37.464 85.5254 35.72C85.5254 34.28 84.5174 33.496 82.7894 33.496ZM81.2534 28.216C82.1014 28.216 82.7094 28.744 82.7094 29.544C82.7094 30.36 82.1014 30.888 81.2534 30.888C80.4054 30.888 79.7814 30.36 79.7814 29.544C79.7814 28.744 80.4054 28.216 81.2534 28.216ZM81.3974 36.936C79.7654 36.936 79.0294 36.568 79.0294 35.992C79.0294 35.528 79.4294 35.272 80.3574 35.272H82.5334C83.4454 35.272 83.7334 35.528 83.7334 35.944C83.7334 36.488 82.9494 36.936 81.3974 36.936ZM91.6466 26.84C90.4466 26.84 89.4546 27.352 88.9266 28.424L88.8466 27H86.8786V35H89.0706V30.776C89.0706 29.176 89.9826 28.568 90.9106 28.568C91.7426 28.568 92.3346 29.016 92.3346 30.392V35H94.5266V29.752C94.5266 27.816 93.3106 26.84 91.6466 26.84ZM110.763 24.44H108.539V30.744C108.539 32.52 107.803 33.352 106.251 33.352C104.699 33.352 103.947 32.52 103.947 30.744V24.44H101.739V30.84C101.739 33.72 103.307 35.16 106.251 35.16C109.195 35.16 110.763 33.72 110.763 30.84V24.44ZM117.77 26.84C116.49 26.84 115.53 27.528 115.082 28.552L115.002 27H113.066V38.36H115.258V33.672C115.722 34.568 116.586 35.16 117.77 35.16C119.882 35.16 121.194 33.608 121.194 30.984C121.194 28.376 119.898 26.84 117.77 26.84ZM117.114 33.48C115.962 33.48 115.258 32.6 115.258 31.08V30.92C115.258 29.368 115.978 28.52 117.114 28.52C118.282 28.52 118.986 29.368 118.986 31C118.986 32.632 118.282 33.48 117.114 33.48Z" fill="white"/>
</svg>
