<svg width="421" height="60" viewBox="0 0 421 60" fill="none" xmlns="http://www.w3.org/2000/svg">
<rect x="0.707031" width="420" height="60" rx="20" fill="white"/>
<path d="M23.715 33.8V30.248H28.483V29.048H23.715V25.64H29.843V24.44H22.435V35H30.083V33.8H23.715ZM36.2862 26.84C35.1822 26.84 34.1582 27.24 33.5982 28.248L33.5182 27H32.3982V35H33.6782V30.744C33.6782 28.696 34.9902 27.96 36.1582 27.96C37.2622 27.96 38.1262 28.552 38.1262 30.328V35H39.4062V29.88C39.4062 27.816 37.9982 26.84 36.2862 26.84ZM46.643 33.368C46.275 33.736 45.859 33.96 45.283 33.96C44.579 33.96 44.083 33.576 44.083 32.792V28.104H47.043V27H44.083V24.728L42.803 25.08V27H41.203V28.104H42.803V33.016C42.819 34.568 43.843 35.16 45.027 35.16C45.907 35.16 46.595 34.888 47.091 34.44L46.643 33.368ZM55.7622 30.584C55.7622 28.52 54.4982 26.84 52.1782 26.84C49.7622 26.84 48.4022 28.408 48.4022 31C48.4022 33.592 49.8582 35.16 52.2742 35.16C54.0022 35.16 54.9942 34.504 55.6022 33.416L54.5302 32.856C54.2422 33.624 53.4422 34.04 52.2742 34.04C50.8022 34.04 49.8262 33.096 49.6662 31.48H55.6982C55.7302 31.256 55.7622 30.952 55.7622 30.584ZM52.1782 27.96C53.5382 27.96 54.3542 28.872 54.5302 30.344H49.6822C49.8742 28.84 50.7542 27.96 52.1782 27.96ZM61.971 26.84C60.723 26.84 59.859 27.336 59.411 28.312L59.235 27H58.195V35H59.475V30.68C59.475 28.888 60.627 28.04 61.587 28.04C62.003 28.04 62.355 28.12 62.595 28.248L62.851 27C62.611 26.872 62.243 26.84 61.971 26.84ZM76.1982 27H74.8222L72.9502 32.056L72.3742 33.64L71.8782 32.216L69.8782 27H68.4222L71.7662 34.984L71.3502 36.024C70.9502 37.08 70.4542 37.32 69.8942 37.32C69.4462 37.32 68.9662 37.192 68.5982 36.68L68.1502 37.768C68.5982 38.248 69.1102 38.44 69.9102 38.44C71.0942 38.44 71.8142 37.912 72.4382 36.344L76.1982 27ZM81.3367 26.84C78.9207 26.84 77.4647 28.408 77.4647 31C77.4647 33.592 78.9207 35.16 81.3367 35.16C83.7527 35.16 85.2087 33.592 85.2087 31C85.2087 28.408 83.7527 26.84 81.3367 26.84ZM81.3367 27.944C82.9527 27.944 83.9287 29.096 83.9287 31C83.9287 32.904 82.9527 34.056 81.3367 34.056C79.7207 34.056 78.7447 32.904 78.7447 31C78.7447 29.096 79.7207 27.944 81.3367 27.944ZM93.343 27V31.352C93.343 33.24 92.143 34.04 90.783 34.04C89.631 34.04 88.895 33.544 88.895 31.896V27H87.615V32.232C87.615 34.344 88.975 35.16 90.559 35.16C91.839 35.16 92.863 34.744 93.423 33.784L93.503 35H94.623V27H93.343ZM101.377 26.84C100.129 26.84 99.2653 27.336 98.8173 28.312L98.6413 27H97.6013V35H98.8813V30.68C98.8813 28.888 100.033 28.04 100.993 28.04C101.409 28.04 101.761 28.12 102.001 28.248L102.257 27C102.017 26.872 101.649 26.84 101.377 26.84ZM116.075 30.584C116.075 28.52 114.811 26.84 112.491 26.84C110.075 26.84 108.715 28.408 108.715 31C108.715 33.592 110.171 35.16 112.587 35.16C114.315 35.16 115.307 34.504 115.915 33.416L114.843 32.856C114.555 33.624 113.755 34.04 112.587 34.04C111.115 34.04 110.139 33.096 109.979 31.48H116.011C116.043 31.256 116.075 30.952 116.075 30.584ZM112.491 27.96C113.851 27.96 114.667 28.872 114.843 30.344H109.995C110.187 28.84 111.067 27.96 112.491 27.96ZM127.804 26.84C126.796 26.84 125.516 27.32 125.02 28.408C124.492 27.336 123.388 26.84 122.268 26.84C121.276 26.84 120.284 27.272 119.708 28.248L119.628 27H118.508V35H119.788V30.728C119.788 28.744 121.1 27.96 122.156 27.96C123.212 27.96 124.044 28.552 124.044 30.008V35H125.324V30.616C125.324 28.904 126.444 27.96 127.692 27.96C128.748 27.96 129.58 28.552 129.58 30.008V35H130.86V29.88C130.86 27.768 129.34 26.84 127.804 26.84ZM140.318 34.072C139.87 34.072 139.71 33.88 139.71 33.496V29.56C139.71 27.704 138.382 26.84 136.558 26.84C135.006 26.84 133.742 27.608 133.326 28.792L134.27 29.48C134.702 28.472 135.502 27.96 136.558 27.96C137.758 27.96 138.43 28.664 138.43 29.72V30.168L136.302 30.52C134.238 30.872 133.182 31.816 133.182 33.016C133.182 34.456 134.398 35.16 135.902 35.16C136.926 35.16 137.966 34.728 138.478 33.976C138.622 34.872 139.134 35.16 139.918 35.16C140.318 35.16 140.654 35.08 140.878 35L140.958 33.992C140.766 34.04 140.526 34.072 140.318 34.072ZM135.966 34.04C135.054 34.04 134.51 33.688 134.51 33.016C134.51 32.264 135.23 31.8 136.638 31.544L138.43 31.208V32.312C138.43 33.368 137.246 34.04 135.966 34.04ZM143.46 25.464C144.036 25.464 144.42 25.08 144.42 24.504C144.42 23.928 144.036 23.544 143.46 23.544C142.884 23.544 142.5 23.928 142.5 24.504C142.5 25.08 142.884 25.464 143.46 25.464ZM144.1 27H142.82V35H144.1V27ZM148.286 23.32H147.006V33.016C147.006 34.472 147.63 35.16 148.926 35.16C149.342 35.16 149.774 35.08 150.11 34.936L150.318 33.704C149.854 33.88 149.582 33.928 149.15 33.928C148.494 33.928 148.286 33.672 148.286 32.856V23.32ZM160.739 26.84C159.651 26.84 158.691 27.24 158.131 28.2V23.32H156.851V35H158.131V30.76C158.131 28.712 159.443 27.96 160.611 27.96C161.715 27.96 162.579 28.552 162.579 30.328V35H163.859V29.88C163.859 27.816 162.451 26.84 160.739 26.84ZM173.622 30.584C173.622 28.52 172.358 26.84 170.038 26.84C167.622 26.84 166.262 28.408 166.262 31C166.262 33.592 167.718 35.16 170.134 35.16C171.862 35.16 172.854 34.504 173.462 33.416L172.39 32.856C172.102 33.624 171.302 34.04 170.134 34.04C168.662 34.04 167.686 33.096 167.526 31.48H173.558C173.59 31.256 173.622 30.952 173.622 30.584ZM170.038 27.96C171.398 27.96 172.214 28.872 172.39 30.344H167.542C167.734 28.84 168.614 27.96 170.038 27.96ZM179.83 26.84C178.582 26.84 177.718 27.336 177.27 28.312L177.094 27H176.054V35H177.334V30.68C177.334 28.888 178.486 28.04 179.446 28.04C179.862 28.04 180.214 28.12 180.454 28.248L180.71 27C180.47 26.872 180.102 26.84 179.83 26.84ZM189.2 30.584C189.2 28.52 187.936 26.84 185.616 26.84C183.2 26.84 181.84 28.408 181.84 31C181.84 33.592 183.296 35.16 185.712 35.16C187.44 35.16 188.432 34.504 189.04 33.416L187.968 32.856C187.68 33.624 186.88 34.04 185.712 34.04C184.24 34.04 183.264 33.096 183.104 31.48H189.136C189.168 31.256 189.2 30.952 189.2 30.584ZM185.616 27.96C186.976 27.96 187.792 28.872 187.968 30.344H183.12C183.312 28.84 184.192 27.96 185.616 27.96Z" fill="#2B2B2B"/>
<rect x="241.707" width="179" height="60" rx="20" fill="#A259FF"/>
<path d="M297.228 24.28C294.492 24.28 292.908 25.736 292.908 27.608C292.908 29.368 294.028 30.264 296.972 30.856C298.716 31.208 299.276 31.544 299.276 32.12C299.276 32.92 298.54 33.352 297.18 33.352C295.756 33.352 294.748 33 293.916 31.624L292.604 33.192C293.5 34.472 294.86 35.16 297.26 35.16C299.788 35.16 301.596 33.976 301.596 31.992C301.596 30.232 300.524 29.352 297.676 28.824C295.82 28.488 295.244 28.104 295.244 27.4C295.244 26.648 295.916 26.088 297.244 26.088C298.668 26.088 299.548 26.664 300.092 27.8L301.612 26.312C300.54 24.904 299.196 24.28 297.228 24.28ZM308.79 27V31.288C308.79 32.776 307.958 33.432 306.918 33.432C306.054 33.432 305.526 33.032 305.526 31.736V27H303.334V32.296C303.334 34.344 304.534 35.16 306.15 35.16C307.43 35.16 308.422 34.68 308.95 33.624L309.03 35H310.982V27H308.79ZM317.993 26.84C316.809 26.84 315.945 27.432 315.481 28.328V23.496H313.289V35H315.225L315.305 33.448C315.753 34.472 316.713 35.16 317.993 35.16C320.121 35.16 321.417 33.624 321.417 31.016C321.417 28.392 320.105 26.84 317.993 26.84ZM317.337 33.48C316.201 33.48 315.481 32.632 315.481 31.08V30.92C315.481 29.4 316.185 28.52 317.337 28.52C318.505 28.52 319.209 29.368 319.209 31C319.209 32.632 318.505 33.48 317.337 33.48ZM326.455 35.16C328.839 35.16 330.103 34.12 330.103 32.68C330.103 31.352 329.239 30.648 326.903 30.184C325.559 29.912 325.159 29.64 325.159 29.208C325.159 28.792 325.703 28.44 326.599 28.44C327.671 28.44 328.311 28.856 328.775 29.688L330.135 28.536C329.399 27.384 328.407 26.84 326.567 26.84C324.199 26.84 322.967 28.12 322.967 29.416C322.967 30.744 323.799 31.512 326.295 32.008C327.463 32.248 327.895 32.472 327.895 32.84C327.895 33.272 327.367 33.56 326.423 33.56C325.335 33.56 324.471 33.272 324.023 32.312L322.743 33.624C323.479 34.712 324.807 35.16 326.455 35.16ZM335.484 26.84C332.924 26.84 331.404 28.376 331.404 31C331.404 33.624 332.908 35.16 335.564 35.16C337.596 35.16 338.844 34.168 339.18 32.744L337.196 32.104C337.036 33.016 336.492 33.528 335.532 33.528C334.348 33.528 333.596 32.728 333.596 31.016C333.596 29.336 334.3 28.472 335.548 28.472C336.396 28.472 336.908 28.968 337.1 29.928L339.148 29.192C338.764 27.88 337.74 26.84 335.484 26.84ZM345.457 26.84C344.209 26.84 343.393 27.464 342.977 28.568L342.833 27H340.929V35H343.121V30.856C343.121 29.4 344.081 28.696 345.041 28.696C345.457 28.696 345.825 28.792 346.049 28.936L346.321 27.016C346.129 26.904 345.809 26.84 345.457 26.84ZM348.783 25.848C349.695 25.848 350.143 25.464 350.143 24.68C350.143 23.896 349.695 23.496 348.783 23.496C347.871 23.496 347.423 23.896 347.423 24.68C347.423 25.464 347.871 25.848 348.783 25.848ZM349.871 27H347.679V35H349.871V27ZM356.899 26.84C355.715 26.84 354.851 27.432 354.387 28.328V23.496H352.195V35H354.131L354.211 33.448C354.659 34.472 355.619 35.16 356.899 35.16C359.027 35.16 360.323 33.624 360.323 31.016C360.323 28.392 359.011 26.84 356.899 26.84ZM356.243 33.48C355.107 33.48 354.387 32.632 354.387 31.08V30.92C354.387 29.4 355.091 28.52 356.243 28.52C357.411 28.52 358.115 29.368 358.115 31C358.115 32.632 357.411 33.48 356.243 33.48ZM369.729 30.968C369.729 28.344 368.369 26.84 365.873 26.84C363.297 26.84 361.841 28.376 361.841 31C361.841 33.624 363.345 35.16 366.001 35.16C367.809 35.16 369.041 34.472 369.553 33.192L367.761 32.536C367.537 33.176 366.929 33.528 366.001 33.528C364.929 33.528 364.225 32.984 364.001 31.832H369.665C369.697 31.624 369.729 31.192 369.729 30.968ZM365.857 28.456C366.865 28.456 367.537 29.096 367.713 30.296H363.985C364.161 29.08 364.801 28.456 365.857 28.456Z" fill="white"/>
</svg>
