<svg width="247" height="60" viewBox="0 0 247 60" fill="none" xmlns="http://www.w3.org/2000/svg">
<rect x="1" y="1" width="245" height="58" rx="19" stroke="#A259FF" stroke-width="2"/>
<path fill-rule="evenodd" clip-rule="evenodd" d="M56.1705 32.4494C56.2805 32.7766 56.1045 33.131 55.7773 33.241C54.7179 33.5973 54.1549 34.4866 53.8537 35.391C53.7341 35.7501 53.6619 36.0958 53.6185 36.3817C53.9043 36.3383 54.2501 36.266 54.6092 36.1464C55.5136 35.8453 56.4029 35.2823 56.7592 34.2228C56.8692 33.8957 57.2236 33.7196 57.5508 33.8296C57.878 33.9397 58.054 34.2941 57.944 34.6213C57.4096 36.2103 56.088 36.9715 55.0041 37.3324C54.4566 37.5148 53.9439 37.6048 53.5698 37.6497C53.3818 37.6722 53.2264 37.6836 53.116 37.6894C53.0607 37.6924 53.0166 37.6939 52.9851 37.6946C52.9693 37.695 52.9567 37.6952 52.9474 37.6954L52.936 37.6955L52.9322 37.6955L52.9308 37.6955L52.9302 37.6955C52.9299 37.6955 52.9297 37.6955 52.9297 37.0705C52.3047 37.0705 52.3047 37.0702 52.3047 37.07L52.3047 37.0694L52.3047 37.068L52.3047 37.0642L52.3048 37.0528C52.3049 37.0435 52.3051 37.0309 52.3055 37.0151C52.3063 36.9836 52.3078 36.9394 52.3107 36.8842C52.3165 36.7738 52.328 36.6184 52.3505 36.4304C52.3954 36.0562 52.4854 35.5436 52.6678 34.9961C53.0287 33.9122 53.7899 32.5906 55.3789 32.0562C55.7061 31.9462 56.0605 32.1222 56.1705 32.4494ZM52.9297 37.0705H52.3047C52.3047 37.4157 52.5845 37.6955 52.9297 37.6955V37.0705Z" fill="#A259FF"/>
<path fill-rule="evenodd" clip-rule="evenodd" d="M66.5462 23.4541C65.8208 23.3494 64.0351 23.31 62.2076 25.1375L57.3448 30.0003L60 32.6555L64.8627 27.7927C66.6903 25.9652 66.6508 24.1795 66.5462 23.4541ZM66.7275 22.2173C65.7298 22.0728 63.5058 22.0716 61.3237 24.2536L56.019 29.5583C55.9018 29.6755 55.8359 29.8345 55.8359 30.0003C55.8359 30.166 55.9018 30.325 56.019 30.4422L59.5581 33.9813C59.8021 34.2254 60.1979 34.2254 60.4419 33.9813L65.7466 28.6766C67.9287 26.4945 67.9275 24.2705 67.783 23.2728C67.7465 23.0058 67.6235 22.758 67.4329 22.5674C67.2422 22.3768 66.9945 22.2538 66.7275 22.2173Z" fill="#A259FF"/>
<path fill-rule="evenodd" clip-rule="evenodd" d="M64.422 28.4922C64.7672 28.4922 65.047 28.772 65.047 29.1172V34.1641L65.0469 34.173C65.0423 34.5013 64.9086 34.8145 64.675 35.045L62.1527 37.575C61.9926 37.7349 61.7921 37.8484 61.5725 37.9033C61.353 37.9582 61.1227 37.9524 60.9061 37.8867C60.6896 37.8209 60.495 37.6976 60.343 37.5299C60.1912 37.3623 60.0877 37.1567 60.0435 36.9349C60.0434 36.9347 60.0435 36.9351 60.0435 36.9349L59.3873 33.6619C59.3195 33.3235 59.5388 32.9941 59.8773 32.9263C60.2157 32.8584 60.5451 33.0778 60.6129 33.4162L61.2694 36.6906L63.797 34.1552V29.1172C63.797 28.772 64.0768 28.4922 64.422 28.4922Z" fill="#A259FF"/>
<path fill-rule="evenodd" clip-rule="evenodd" d="M55.8262 24.9532L55.8351 24.9531H60.882C61.2272 24.9531 61.507 25.2329 61.507 25.5781C61.507 25.9233 61.2272 26.2031 60.882 26.2031H55.844L55.8389 26.2083L55.8389 26.2082L53.3086 28.7307L53.3096 28.7309L56.583 29.3872C56.9214 29.455 57.1408 29.7844 57.073 30.1229C57.0051 30.4613 56.6757 30.6807 56.3373 30.6128L53.0648 29.9567C53.0646 29.9567 53.0645 29.9567 53.0643 29.9566C52.8425 29.9124 52.6369 29.8089 52.4693 29.6571C52.3016 29.5052 52.1783 29.3105 52.1125 29.094C52.0468 28.8775 52.041 28.6471 52.0959 28.4276C52.1508 28.208 52.2643 28.0075 52.4242 27.8474L52.4251 27.8464L52.4251 27.8464L54.9542 25.3251C55.1848 25.0915 55.498 24.9579 55.8262 24.9532Z" fill="#A259FF"/>
<path d="M92.7148 24.44H90.4427L88.2028 31.176L87.6108 33.24L87.0028 31.16L84.7788 24.44H82.4428L86.2988 35H88.8748L92.7148 24.44ZM95.1935 25.848C96.1055 25.848 96.5535 25.464 96.5535 24.68C96.5535 23.896 96.1055 23.496 95.1935 23.496C94.2815 23.496 93.8335 23.896 93.8335 24.68C93.8335 25.464 94.2815 25.848 95.1935 25.848ZM96.2815 27H94.0895V35H96.2815V27ZM106.077 30.968C106.077 28.344 104.717 26.84 102.221 26.84C99.6451 26.84 98.1891 28.376 98.1891 31C98.1891 33.624 99.6931 35.16 102.349 35.16C104.157 35.16 105.389 34.472 105.901 33.192L104.109 32.536C103.885 33.176 103.277 33.528 102.349 33.528C101.277 33.528 100.573 32.984 100.349 31.832H106.013C106.045 31.624 106.077 31.192 106.077 30.968ZM102.205 28.456C103.213 28.456 103.885 29.096 104.061 30.296H100.333C100.509 29.08 101.149 28.456 102.205 28.456ZM118.131 27L116.531 33.24L114.739 27H112.579L110.787 33.24L109.187 27H106.867L109.411 35H111.939L113.619 29.352L115.363 35H117.907L120.451 27H118.131ZM133.329 35H135.809L133.025 30.712C134.401 30.28 135.185 29.224 135.185 27.704C135.185 25.624 133.745 24.44 131.345 24.44H126.689V35H128.865V30.952H130.849L133.329 35ZM128.865 26.2H131.057C132.337 26.2 132.929 26.68 132.929 27.736C132.929 28.792 132.337 29.272 131.057 29.272H128.865V26.2ZM144.652 33.672C144.236 33.672 144.06 33.48 144.06 33.064V29.784C144.06 27.8 142.652 26.84 140.428 26.84C138.476 26.84 137.276 27.704 136.94 29.064L138.684 29.8C138.924 28.792 139.596 28.44 140.524 28.44C141.388 28.44 141.884 28.984 141.884 29.832V30.216L139.964 30.584C137.82 30.984 136.844 31.864 136.844 33.112C136.844 34.456 137.804 35.16 139.324 35.16C140.668 35.16 141.676 34.744 142.156 33.96C142.38 34.824 143.036 35.16 143.996 35.16C144.396 35.16 144.748 35.08 145.036 34.936L145.196 33.608C145.036 33.656 144.844 33.672 144.652 33.672ZM140.012 33.672C139.436 33.672 139.1 33.4 139.1 32.888C139.1 32.36 139.468 32.104 140.172 31.944L141.884 31.56V32.392C141.884 33.24 140.844 33.672 140.012 33.672ZM151.295 26.84C150.095 26.84 149.103 27.352 148.575 28.424L148.495 27H146.527V35H148.719V30.776C148.719 29.176 149.631 28.568 150.559 28.568C151.391 28.568 151.983 29.016 151.983 30.392V35H154.175V29.752C154.175 27.816 152.959 26.84 151.295 26.84ZM162.289 35H164.769L161.569 30.136L164.577 27H162.097L158.625 30.664V23.496H156.433V35H158.625V33.016L160.081 31.464L162.289 35ZM167.162 25.848C168.074 25.848 168.522 25.464 168.522 24.68C168.522 23.896 168.074 23.496 167.162 23.496C166.25 23.496 165.802 23.896 165.802 24.68C165.802 25.464 166.25 25.848 167.162 25.848ZM168.25 27H166.058V35H168.25V27ZM175.342 26.84C174.142 26.84 173.15 27.352 172.622 28.424L172.542 27H170.574V35H172.766V30.776C172.766 29.176 173.678 28.568 174.606 28.568C175.438 28.568 176.03 29.016 176.03 30.392V35H178.222V29.752C178.222 27.816 177.006 26.84 175.342 26.84ZM185.344 33.496H182.64C182.08 33.496 181.728 33.272 181.728 32.84C181.728 32.472 181.904 32.232 182.368 32.12C182.8 32.216 183.28 32.264 183.808 32.264C186.08 32.264 187.472 31.224 187.472 29.56C187.472 28.616 187.04 27.88 186.256 27.416C186.496 26.888 187.12 26.568 188.128 26.664L187.84 25.096C186.4 25.032 185.664 25.864 185.408 27.048C184.944 26.904 184.4 26.84 183.808 26.84C181.536 26.84 180.128 27.88 180.128 29.56C180.128 30.52 180.56 31.272 181.392 31.736C180.624 32.008 180.112 32.552 180.112 33.352C180.112 34.136 180.64 34.664 181.296 34.952C180.32 35.192 179.84 35.768 179.84 36.472C179.84 37.64 181.024 38.44 183.776 38.44C186.288 38.44 188.08 37.464 188.08 35.72C188.08 34.28 187.072 33.496 185.344 33.496ZM183.808 28.216C184.656 28.216 185.264 28.744 185.264 29.544C185.264 30.36 184.656 30.888 183.808 30.888C182.96 30.888 182.336 30.36 182.336 29.544C182.336 28.744 182.96 28.216 183.808 28.216ZM183.952 36.936C182.32 36.936 181.584 36.568 181.584 35.992C181.584 35.528 181.984 35.272 182.912 35.272H185.088C186 35.272 186.288 35.528 186.288 35.944C186.288 36.488 185.504 36.936 183.952 36.936ZM192.537 35.16C194.921 35.16 196.185 34.12 196.185 32.68C196.185 31.352 195.321 30.648 192.985 30.184C191.641 29.912 191.241 29.64 191.241 29.208C191.241 28.792 191.785 28.44 192.681 28.44C193.753 28.44 194.393 28.856 194.857 29.688L196.217 28.536C195.481 27.384 194.489 26.84 192.649 26.84C190.281 26.84 189.049 28.12 189.049 29.416C189.049 30.744 189.881 31.512 192.377 32.008C193.545 32.248 193.977 32.472 193.977 32.84C193.977 33.272 193.449 33.56 192.505 33.56C191.417 33.56 190.553 33.272 190.105 32.312L188.825 33.624C189.561 34.712 190.889 35.16 192.537 35.16Z" fill="white"/>
</svg>
